<svg width="375" height="800" viewBox="0 0 375 800" fill="none" xmlns="http://www.w3.org/2000/svg">
<g clip-path="url(#clip0_304_465)">
<rect width="375" height="800" fill="white"/>
<rect x="16" y="764" width="344" height="136" fill="#F5F5F5"/>
<path d="M40.588 787.584V788.4H50.428V787.584H40.588ZM45.076 788.1V790.596H46.084V788.1H45.076ZM41.836 791.868V792.696H49.336V791.868H41.836ZM41.836 789.528V792.096H42.832V789.528H41.836ZM45.496 782.352C43.192 782.352 41.692 783.192 41.692 784.536C41.692 785.88 43.192 786.72 45.496 786.72C47.788 786.72 49.3 785.88 49.3 784.536C49.3 783.192 47.788 782.352 45.496 782.352ZM45.496 783.168C47.152 783.168 48.244 783.696 48.244 784.536C48.244 785.388 47.152 785.904 45.496 785.904C43.84 785.904 42.748 785.388 42.748 784.536C42.748 783.696 43.84 783.168 45.496 783.168ZM59.8231 782.088V788.952H60.7711V782.088H59.8231ZM58.0591 785.028V785.856H60.1111V785.028H58.0591ZM57.5071 782.304V788.568H58.4431V782.304H57.5071ZM51.5791 783.384V784.176H57.0751V783.384H51.5791ZM54.3391 784.728C52.9711 784.728 52.0231 785.472 52.0231 786.588C52.0231 787.716 52.9711 788.448 54.3391 788.448C55.6951 788.448 56.6431 787.716 56.6431 786.588C56.6431 785.472 55.6951 784.728 54.3391 784.728ZM54.3391 785.472C55.1791 785.472 55.7551 785.916 55.7551 786.588C55.7551 787.272 55.1791 787.704 54.3391 787.704C53.4871 787.704 52.9111 787.272 52.9111 786.588C52.9111 785.916 53.4871 785.472 54.3391 785.472ZM53.8471 782.172V783.828H54.8191V782.172H53.8471ZM57.2191 789.144C54.9391 789.144 53.5951 789.816 53.5951 791.028C53.5951 792.228 54.9391 792.912 57.2191 792.912C59.4751 792.912 60.8311 792.228 60.8311 791.028C60.8311 789.816 59.4751 789.144 57.2191 789.144ZM57.2191 789.912C58.8631 789.912 59.8471 790.308 59.8471 791.028C59.8471 791.748 58.8631 792.156 57.2191 792.156C55.5511 792.156 54.5791 791.748 54.5791 791.028C54.5791 790.308 55.5511 789.912 57.2191 789.912ZM73.5507 782.088V792.936H74.5467V782.088H73.5507ZM70.3707 783.252V783.42C70.3707 786.3 68.9187 788.604 65.7867 790.116L66.3147 790.92C69.9387 789.144 71.3547 786.396 71.3547 783.252H70.3707ZM66.2787 783.252V784.068H70.8027V783.252H66.2787ZM84.1098 782.088V790.02H85.1058V782.088H84.1098ZM84.7938 785.376V786.204H86.7138V785.376H84.7938ZM81.1458 782.928V783.36C81.1458 785.448 79.4298 787.128 76.6938 787.968L77.1258 788.784C80.2338 787.788 82.2018 785.736 82.2018 782.928H81.1458ZM77.1378 782.928V783.744H81.6498V782.928H77.1378ZM78.3378 791.88V792.696H85.5858V791.88H78.3378ZM78.3378 789.216V792.204H79.3338V789.216H78.3378ZM90.7094 787.428V788.244H100.513V787.428H90.7094ZM95.1134 785.688V787.764H96.0974V785.688H95.1134ZM91.9454 785.376V786.192H99.3734V785.376H91.9454ZM91.9454 782.58V785.856H92.9294V783.384H99.2894V782.58H91.9454ZM95.5934 789.024C93.2774 789.024 91.8734 789.732 91.8734 790.968C91.8734 792.228 93.2774 792.924 95.5934 792.924C97.9094 792.924 99.3134 792.228 99.3134 790.968C99.3134 789.732 97.9094 789.024 95.5934 789.024ZM95.5934 789.792C97.2974 789.792 98.3054 790.224 98.3054 790.968C98.3054 791.724 97.2974 792.144 95.5934 792.144C93.9014 792.144 92.8814 791.724 92.8814 790.968C92.8814 790.224 93.9014 789.792 95.5934 789.792ZM109.164 782.076V790.068H110.16V782.076H109.164ZM109.848 785.376V786.204H111.768V785.376H109.848ZM103.404 791.88V792.696H110.652V791.88H103.404ZM103.404 789.252V792.204H104.4V789.252H103.404ZM104.772 782.844C103.152 782.844 101.94 783.96 101.94 785.52C101.94 787.092 103.152 788.196 104.772 788.196C106.392 788.196 107.604 787.092 107.604 785.52C107.604 783.96 106.392 782.844 104.772 782.844ZM104.772 783.72C105.828 783.72 106.632 784.464 106.632 785.52C106.632 786.588 105.828 787.32 104.772 787.32C103.716 787.32 102.912 786.588 102.912 785.52C102.912 784.464 103.716 783.72 104.772 783.72ZM119.436 783.422V792H118.352V784.775L116.166 785.572V784.594L119.266 783.422H119.436ZM125.598 788.592V790.38H126.606V788.592H125.598ZM130.35 782.088V792.936H131.346V782.088H130.35ZM122.706 790.872C124.71 790.872 127.326 790.848 129.738 790.44L129.666 789.708C127.326 790.008 124.626 790.032 122.574 790.044L122.706 790.872ZM122.802 783.408V784.212H129.39V783.408H122.802ZM126.09 784.836C124.542 784.836 123.486 785.628 123.486 786.84C123.486 788.064 124.542 788.844 126.09 788.844C127.65 788.844 128.706 788.064 128.706 786.84C128.706 785.628 127.65 784.836 126.09 784.836ZM126.09 785.604C127.074 785.604 127.758 786.096 127.758 786.84C127.758 787.584 127.074 788.076 126.09 788.076C125.118 788.076 124.434 787.584 124.434 786.84C124.434 786.096 125.118 785.604 126.09 785.604ZM125.598 782.088V783.852H126.594V782.088H125.598ZM134.764 790.711V791.584C134.764 791.939 134.674 792.314 134.494 792.709C134.314 793.107 134.062 793.439 133.738 793.705L133.123 793.277C133.248 793.105 133.354 792.93 133.439 792.75C133.525 792.574 133.59 792.391 133.633 792.199C133.68 792.012 133.703 791.812 133.703 791.602V790.711H134.764ZM141.981 788.592V790.38H142.989V788.592H141.981ZM146.733 782.088V792.936H147.729V782.088H146.733ZM139.089 790.872C141.093 790.872 143.709 790.848 146.121 790.44L146.049 789.708C143.709 790.008 141.009 790.032 138.957 790.044L139.089 790.872ZM139.185 783.408V784.212H145.773V783.408H139.185ZM142.473 784.836C140.925 784.836 139.869 785.628 139.869 786.84C139.869 788.064 140.925 788.844 142.473 788.844C144.033 788.844 145.089 788.064 145.089 786.84C145.089 785.628 144.033 784.836 142.473 784.836ZM142.473 785.604C143.457 785.604 144.141 786.096 144.141 786.84C144.141 787.584 143.457 788.076 142.473 788.076C141.501 788.076 140.817 787.584 140.817 786.84C140.817 786.096 141.501 785.604 142.473 785.604ZM141.981 782.088V783.852H142.977V782.088H141.981ZM157.364 782.088V788.532H158.36V782.088H157.364ZM158.072 784.908V785.736H159.956V784.908H158.072ZM154.892 788.76C152.696 788.76 151.328 789.54 151.328 790.848C151.328 792.156 152.696 792.924 154.892 792.924C157.088 792.924 158.456 792.156 158.456 790.848C158.456 789.54 157.088 788.76 154.892 788.76ZM154.892 789.576C156.5 789.576 157.484 790.032 157.484 790.848C157.484 791.64 156.5 792.108 154.892 792.108C153.284 792.108 152.3 791.64 152.3 790.848C152.3 790.032 153.284 789.576 154.892 789.576ZM150.416 786.864V787.68H151.256C153.548 787.68 154.832 787.608 156.332 787.308L156.212 786.492C154.76 786.792 153.5 786.864 151.256 786.864H150.416ZM150.416 782.916V787.392H151.4V783.732H155.204V782.916H150.416ZM169.826 789.129V790.02H163.662V789.381L167.482 783.469H168.367L167.418 785.18L164.893 789.129H169.826ZM168.637 783.469V792H167.553V783.469H168.637ZM173.486 783.384V784.02C173.486 785.496 172.358 786.78 170.75 787.296L171.242 788.076C173.054 787.476 174.302 785.928 174.302 784.02V783.384H173.486ZM173.666 783.384V784.02C173.666 785.832 174.878 787.32 176.678 787.896L177.146 787.116C175.562 786.624 174.482 785.4 174.482 784.02V783.384H173.666ZM171.074 783.084V783.912H176.882V783.084H171.074ZM173.486 787.62V790.14H174.482V787.62H173.486ZM178.742 786.588V787.428H180.746V786.588H178.742ZM178.034 782.088V792.936H179.03V782.088H178.034ZM170.702 790.668C172.574 790.68 175.118 790.668 177.434 790.26L177.35 789.516C175.118 789.84 172.478 789.84 170.57 789.84L170.702 790.668ZM187.309 784.356V785.184H189.877V784.356H187.309ZM184.441 782.64V783.768C184.441 785.424 183.385 786.876 181.753 787.476L182.269 788.268C184.093 787.572 185.257 785.856 185.257 783.768V782.64H184.441ZM184.621 782.64V783.816C184.621 785.724 185.797 787.368 187.537 788.028L188.065 787.248C186.505 786.696 185.425 785.304 185.425 783.816V782.64H184.621ZM183.421 789.096V789.9H189.661V792.936H190.657V789.096H183.421ZM189.661 782.088V788.496H190.657V782.088H189.661ZM200.304 782.088V792.936H201.288V782.088H200.304ZM200.976 786.552V787.392H202.908V786.552H200.976ZM195.108 783.252V783.36C195.108 785.82 194.508 788.076 192.72 789.936L193.524 790.5C195.468 788.4 196.02 785.868 196.02 783.252H195.108ZM193.068 783.252V784.08H195.48V783.252H193.068ZM198.06 783.252V783.348C198.06 785.856 197.652 788.544 195.816 790.668L196.62 791.22C198.612 788.856 198.984 785.88 198.984 783.252H198.06ZM196.368 783.252V784.08H198.468V783.252H196.368ZM206.687 783.636V785.4C206.687 787.272 205.379 789.312 203.807 790.056L204.383 790.848C206.111 789.996 207.491 787.692 207.491 785.4V783.636H206.687ZM206.879 783.636V785.4C206.879 787.656 208.271 789.768 210.023 790.584L210.587 789.792C208.991 789.108 207.683 787.236 207.683 785.4V783.636H206.879ZM204.167 783.192V784.032H210.227V783.192H204.167ZM211.691 782.088V792.936H212.687V782.088H211.691ZM222.154 784.704V785.532H224.266V784.704H222.154ZM222.154 788.004V788.832H224.266V788.004H222.154ZM226.09 782.088V792.936H227.05V782.088H226.09ZM223.966 782.316V792.396H224.902V782.316H223.966ZM220.27 782.988C218.866 782.988 217.966 784.44 217.966 786.768C217.966 789.096 218.866 790.548 220.27 790.548C221.674 790.548 222.586 789.096 222.586 786.768C222.586 784.44 221.674 782.988 220.27 782.988ZM220.27 783.912C221.134 783.912 221.674 785.016 221.674 786.768C221.674 788.52 221.134 789.624 220.27 789.624C219.418 789.624 218.866 788.52 218.866 786.768C218.866 785.016 219.418 783.912 220.27 783.912ZM236.985 783.732V784.572H238.869V783.732H236.985ZM236.985 786.06V786.888H238.869V786.06H236.985ZM236.289 782.088V788.532H237.285V782.088H236.289ZM230.241 789.048V789.852H236.289V792.936H237.285V789.048H230.241ZM231.897 782.724C230.265 782.724 229.065 783.78 229.065 785.304C229.065 786.816 230.265 787.86 231.897 787.86C233.529 787.86 234.729 786.816 234.729 785.304C234.729 783.78 233.529 782.724 231.897 782.724ZM231.897 783.576C232.977 783.576 233.757 784.272 233.757 785.304C233.757 786.324 232.977 787.032 231.897 787.032C230.817 787.032 230.037 786.324 230.037 785.304C230.037 784.272 230.817 783.576 231.897 783.576ZM250.221 782.076V792.936H251.229V782.076H250.221ZM250.953 786.48V787.308H252.957V786.48H250.953ZM247.449 783.252V783.408C247.449 786.276 245.949 788.592 242.949 790.116L243.501 790.884C247.005 789.12 248.421 786.336 248.421 783.252H247.449ZM243.453 783.252V784.068H247.965V783.252H243.453ZM255.26 785.1V785.916H262.616V785.1H255.26ZM255.26 782.304V785.46H256.244V782.304H255.26ZM253.928 787.176V787.98H263.732V787.176H253.928ZM258.812 788.952C256.496 788.952 255.092 789.66 255.092 790.932C255.092 792.18 256.496 792.9 258.812 792.9C261.128 792.9 262.532 792.18 262.532 790.932C262.532 789.66 261.128 788.952 258.812 788.952ZM258.812 789.732C260.516 789.732 261.524 790.164 261.524 790.932C261.524 791.676 260.516 792.108 258.812 792.108C257.12 792.108 256.1 791.676 256.1 790.932C256.1 790.164 257.12 789.732 258.812 789.732ZM272.383 782.088V788.388H273.379V782.088H272.383ZM272.947 784.848V785.688H274.987V784.848H272.947ZM266.563 788.868V792.792H273.379V788.868H272.395V790.02H267.535V788.868H266.563ZM267.535 790.788H272.395V791.988H267.535V790.788ZM264.991 783.192V784.008H271.399V783.192H264.991ZM268.195 784.5C266.635 784.5 265.591 785.256 265.591 786.408C265.591 787.56 266.635 788.316 268.195 788.316C269.743 788.316 270.787 787.56 270.787 786.408C270.787 785.256 269.743 784.5 268.195 784.5ZM268.195 785.256C269.167 785.256 269.839 785.712 269.839 786.408C269.839 787.104 269.167 787.56 268.195 787.56C267.199 787.56 266.539 787.104 266.539 786.408C266.539 785.712 267.199 785.256 268.195 785.256ZM267.691 781.98V783.636H268.687V781.98H267.691ZM283.89 782.088V792.936H284.886V782.088H283.89ZM276.69 783.144V789.864H277.674V783.144H276.69ZM276.69 789.276V790.14H277.578C279.294 790.14 281.01 790.008 282.894 789.624L282.774 788.772C280.938 789.156 279.222 789.276 277.578 789.276H276.69ZM294.377 782.076V792.948H295.385V782.076H294.377ZM295.145 786.36V787.2H297.161V786.36H295.145ZM287.501 789.408V790.248H288.353C290.393 790.248 291.821 790.188 293.489 789.876L293.381 789.036C291.761 789.336 290.357 789.408 288.353 789.408H287.501ZM287.501 783.132V789.78H288.485V783.948H292.541V783.132H287.501ZM298.328 791.426C298.328 791.242 298.385 791.088 298.498 790.963C298.615 790.834 298.783 790.77 299.002 790.77C299.221 790.77 299.387 790.834 299.5 790.963C299.617 791.088 299.676 791.242 299.676 791.426C299.676 791.605 299.617 791.758 299.5 791.883C299.387 792.008 299.221 792.07 299.002 792.07C298.783 792.07 298.615 792.008 298.498 791.883C298.385 791.758 298.328 791.605 298.328 791.426Z" fill="#666666"/>
<circle cx="34" cy="788" r="2" fill="#C4C4C4"/>
<rect y="30" width="375" height="45" fill="white"/>
<path d="M25 44.5L17.5 52L25 59.5" stroke="black" stroke-width="2" stroke-linecap="round"/>
<path d="M17.5 52H38.5" stroke="black" stroke-width="2" stroke-linecap="round"/>
<path d="M304.996 51.944V56.48H306.604V51.944H304.996ZM310.156 45.956V57.068H311.752V45.956H310.156ZM302.428 52.34C304.6 52.328 307.192 52.28 309.652 51.92L309.532 50.744C307.132 51.008 304.444 51.044 302.236 51.044L302.428 52.34ZM303.136 46.712V47.996H307.492V46.712H303.136ZM306.916 46.712V47.348C306.916 48.188 306.916 49.412 306.568 51.176L308.152 51.296C308.5 49.496 308.5 48.212 308.5 47.348V46.712H306.916ZM320.439 45.944V57.056H322.047V45.944H320.439ZM321.627 50.192V51.5H323.583V50.192H321.627ZM317.523 47.096V47.372C317.523 50.384 316.143 52.424 313.227 53.936L314.115 55.148C317.811 53.288 319.083 50.432 319.083 47.096H317.523ZM313.839 47.096V48.38H318.339V47.096H313.839ZM332.331 45.956V52.916H333.843V45.956H332.331ZM330.975 48.692V49.988H332.751V48.692H330.975ZM330.027 46.172V52.556H331.515V46.172H330.027ZM324.327 47.096V48.32H329.715V47.096H324.327ZM327.039 48.68C325.647 48.68 324.639 49.472 324.639 50.624C324.639 51.776 325.647 52.556 327.039 52.556C328.431 52.556 329.439 51.776 329.439 50.624C329.439 49.472 328.431 48.68 327.039 48.68ZM327.039 49.82C327.615 49.82 328.011 50.108 328.011 50.624C328.011 51.14 327.615 51.428 327.039 51.428C326.451 51.428 326.055 51.14 326.055 50.624C326.055 50.108 326.451 49.82 327.039 49.82ZM326.235 46.064V47.936H327.807V46.064H326.235ZM330.087 53.036C327.699 53.036 326.259 53.756 326.259 55.052C326.259 56.336 327.699 57.068 330.087 57.068C332.463 57.068 333.903 56.336 333.903 55.052C333.903 53.756 332.463 53.036 330.087 53.036ZM330.087 54.224C331.563 54.224 332.307 54.476 332.307 55.052C332.307 55.616 331.563 55.88 330.087 55.88C328.599 55.88 327.855 55.616 327.855 55.052C327.855 54.476 328.599 54.224 330.087 54.224ZM342.818 48.404V49.688H344.666V48.404H342.818ZM342.818 51.836V53.132H344.666V51.836H342.818ZM346.43 45.956V57.068H347.954V45.956H346.43ZM344.21 46.124V56.564H345.698V46.124H344.21ZM340.898 46.736C339.434 46.736 338.498 48.26 338.498 50.768C338.498 53.288 339.434 54.812 340.898 54.812C342.374 54.812 343.322 53.288 343.322 50.768C343.322 48.26 342.374 46.736 340.898 46.736ZM340.898 48.236C341.522 48.236 341.882 49.076 341.882 50.768C341.882 52.472 341.522 53.3 340.898 53.3C340.286 53.3 339.926 52.472 339.926 50.768C339.926 49.076 340.286 48.236 340.898 48.236ZM357.697 47.396V48.704H359.617V47.396H357.697ZM357.697 49.808V51.116H359.617V49.808H357.697ZM356.593 45.956V52.508H358.189V45.956H356.593ZM350.773 52.964V54.236H356.593V57.068H358.189V52.964H350.773ZM352.537 46.556C350.821 46.556 349.513 47.696 349.513 49.28C349.513 50.864 350.821 51.992 352.537 51.992C354.253 51.992 355.561 50.864 355.561 49.28C355.561 47.696 354.253 46.556 352.537 46.556ZM352.537 47.912C353.377 47.912 354.001 48.404 354.001 49.28C354.001 50.156 353.377 50.66 352.537 50.66C351.697 50.66 351.073 50.156 351.073 49.28C351.073 48.404 351.697 47.912 352.537 47.912Z" fill="#A71596"/>
<line y1="695.5" x2="375" y2="695.5" stroke="#E2E2E2"/>
<line y1="743.5" x2="375" y2="743.5" stroke="#E2E2E2"/>
<path d="M19.4268 720.263L18.415 720.003L18.9141 715.047H24.0205V716.216H19.9873L19.6865 718.923C19.8688 718.818 20.099 718.72 20.377 718.629C20.6595 718.538 20.9831 718.492 21.3477 718.492C21.8079 718.492 22.2204 718.572 22.585 718.731C22.9495 718.886 23.2594 719.11 23.5146 719.401C23.7744 719.693 23.9727 720.044 24.1094 720.454C24.2461 720.864 24.3145 721.322 24.3145 721.828C24.3145 722.307 24.2484 722.746 24.1162 723.147C23.9886 723.549 23.7949 723.899 23.5352 724.2C23.2754 724.496 22.9473 724.727 22.5508 724.891C22.1589 725.055 21.6963 725.137 21.1631 725.137C20.762 725.137 20.3815 725.082 20.0215 724.973C19.666 724.859 19.347 724.688 19.0645 724.46C18.7865 724.228 18.5586 723.94 18.3809 723.599C18.2077 723.252 18.0983 722.847 18.0527 722.382H19.2559C19.3105 722.756 19.4199 723.07 19.584 723.325C19.748 723.58 19.9622 723.774 20.2266 723.906C20.4954 724.034 20.8076 724.098 21.1631 724.098C21.4639 724.098 21.7305 724.045 21.9629 723.94C22.1953 723.836 22.3913 723.685 22.5508 723.489C22.7103 723.293 22.8311 723.056 22.9131 722.778C22.9997 722.5 23.043 722.188 23.043 721.842C23.043 721.527 22.9997 721.236 22.9131 720.967C22.8265 720.698 22.6966 720.463 22.5234 720.263C22.3548 720.062 22.1475 719.907 21.9014 719.798C21.6553 719.684 21.3727 719.627 21.0537 719.627C20.6299 719.627 20.3086 719.684 20.0898 719.798C19.8757 719.912 19.6546 720.067 19.4268 720.263ZM28.963 718.672V720.926H30.125V718.672H28.963ZM34.773 713.436V720.884H35.935V713.436H34.773ZM25.673 719.064C28.039 719.064 31.063 719.036 33.835 718.63L33.765 717.874C31.063 718.182 27.969 718.196 25.533 718.196L25.673 719.064ZM27.451 721.346V722.186H34.787V723.208H27.479V725.406H28.613V723.978H35.935V721.346H27.451ZM27.479 725.112V725.952H36.355V725.112H27.479ZM32.253 719.456V720.212H35.137V719.456H32.253ZM29.621 713.674C27.731 713.674 26.499 714.402 26.499 715.578C26.499 716.754 27.731 717.482 29.621 717.482C31.497 717.482 32.729 716.754 32.729 715.578C32.729 714.402 31.497 713.674 29.621 713.674ZM29.621 714.486C30.839 714.486 31.637 714.906 31.637 715.578C31.637 716.25 30.839 716.67 29.621 716.67C28.375 716.67 27.577 716.25 27.577 715.578C27.577 714.906 28.375 714.486 29.621 714.486ZM46.21 714.992V725H44.9453V716.571L42.3955 717.501V716.359L46.0117 714.992H46.21ZM51.5283 720.263L50.5166 720.003L51.0156 715.047H56.1221V716.216H52.0889L51.7881 718.923C51.9704 718.818 52.2005 718.72 52.4785 718.629C52.7611 718.538 53.0846 718.492 53.4492 718.492C53.9095 718.492 54.3219 718.572 54.6865 718.731C55.0511 718.886 55.361 719.11 55.6162 719.401C55.876 719.693 56.0742 720.044 56.2109 720.454C56.3477 720.864 56.416 721.322 56.416 721.828C56.416 722.307 56.3499 722.746 56.2178 723.147C56.0902 723.549 55.8965 723.899 55.6367 724.2C55.377 724.496 55.0488 724.727 54.6523 724.891C54.2604 725.055 53.7979 725.137 53.2646 725.137C52.8636 725.137 52.4831 725.082 52.123 724.973C51.7676 724.859 51.4486 724.688 51.166 724.46C50.888 724.228 50.6602 723.94 50.4824 723.599C50.3092 723.252 50.1999 722.847 50.1543 722.382H51.3574C51.4121 722.756 51.5215 723.07 51.6855 723.325C51.8496 723.58 52.0638 723.774 52.3281 723.906C52.597 724.034 52.9092 724.098 53.2646 724.098C53.5654 724.098 53.832 724.045 54.0645 723.94C54.2969 723.836 54.4928 723.685 54.6523 723.489C54.8118 723.293 54.9326 723.056 55.0146 722.778C55.1012 722.5 55.1445 722.188 55.1445 721.842C55.1445 721.527 55.1012 721.236 55.0146 720.967C54.9281 720.698 54.7982 720.463 54.625 720.263C54.4564 720.062 54.249 719.907 54.0029 719.798C53.7568 719.684 53.4743 719.627 53.1553 719.627C52.7314 719.627 52.4102 719.684 52.1914 719.798C51.9772 719.912 51.7562 720.067 51.5283 720.263ZM61.2186 713.898C59.3426 713.898 57.9566 715.046 57.9566 716.712C57.9566 718.364 59.3426 719.512 61.2186 719.512C63.1086 719.512 64.4946 718.364 64.4946 716.712C64.4946 715.046 63.1086 713.898 61.2186 713.898ZM61.2186 714.85C62.4506 714.85 63.3606 715.62 63.3606 716.712C63.3606 717.804 62.4506 718.56 61.2186 718.56C60.0006 718.56 59.0766 717.804 59.0766 716.712C59.0766 715.62 60.0006 714.85 61.2186 714.85ZM66.8746 713.436V719.918H68.0506V713.436H66.8746ZM59.8606 720.534V721.472H66.9026V722.746H59.8886V725.518H61.0226V723.614H68.0506V720.534H59.8606ZM59.8886 725V725.924H68.4706V725H59.8886ZM70.7715 721.021V720.953C70.7715 719.96 70.8831 719.062 71.1064 718.26C71.3298 717.453 71.6146 716.747 71.9609 716.141C72.3073 715.535 72.6719 715.033 73.0547 714.637C73.4375 714.236 73.7907 713.946 74.1143 713.769L74.3809 714.603C74.112 714.808 73.8385 715.09 73.5605 715.45C73.2871 715.81 73.0342 716.252 72.8018 716.776C72.5739 717.3 72.3893 717.909 72.248 718.602C72.1068 719.294 72.0361 720.074 72.0361 720.939V721.035C72.0361 721.901 72.1068 722.683 72.248 723.38C72.3893 724.073 72.5739 724.683 72.8018 725.212C73.0342 725.741 73.2871 726.189 73.5605 726.559C73.8385 726.932 74.112 727.229 74.3809 727.447L74.1143 728.213C73.7907 728.035 73.4375 727.746 73.0547 727.345C72.6719 726.948 72.3073 726.447 71.9609 725.841C71.6146 725.239 71.3298 724.535 71.1064 723.729C70.8831 722.922 70.7715 722.02 70.7715 721.021ZM78.8963 713.898C77.0203 713.898 75.6343 715.046 75.6343 716.712C75.6343 718.364 77.0203 719.512 78.8963 719.512C80.7863 719.512 82.1723 718.364 82.1723 716.712C82.1723 715.046 80.7863 713.898 78.8963 713.898ZM78.8963 714.85C80.1283 714.85 81.0383 715.62 81.0383 716.712C81.0383 717.804 80.1283 718.56 78.8963 718.56C77.6783 718.56 76.7543 717.804 76.7543 716.712C76.7543 715.62 77.6783 714.85 78.8963 714.85ZM84.5523 713.436V719.918H85.7283V713.436H84.5523ZM77.5383 720.534V721.472H84.5803V722.746H77.5663V725.518H78.7003V723.614H85.7283V720.534H77.5383ZM77.5663 725V725.924H86.1483V725H77.5663ZM91.4092 720.953V721.021C91.4092 722.02 91.2975 722.922 91.0742 723.729C90.8509 724.535 90.5661 725.239 90.2197 725.841C89.8734 726.447 89.5088 726.948 89.126 727.345C88.7432 727.746 88.39 728.035 88.0664 728.213L87.7998 727.447C88.0687 727.242 88.3398 726.955 88.6133 726.586C88.8867 726.221 89.1396 725.77 89.3721 725.232C89.6045 724.699 89.7913 724.084 89.9326 723.387C90.0739 722.685 90.1445 721.901 90.1445 721.035V720.939C90.1445 720.074 90.0693 719.292 89.9189 718.595C89.7686 717.893 89.5726 717.275 89.3311 716.742C89.0941 716.209 88.8389 715.76 88.5654 715.396C88.2965 715.026 88.0413 714.742 87.7998 714.541L88.0664 713.769C88.39 713.946 88.7432 714.236 89.126 714.637C89.5088 715.033 89.8734 715.535 90.2197 716.141C90.5661 716.747 90.8509 717.453 91.0742 718.26C91.2975 719.062 91.4092 719.96 91.4092 720.953Z" fill="black"/>
<path d="M343 718L348 723L353 718" stroke="black" stroke-width="2" stroke-linecap="round"/>
<rect width="375" height="48" transform="matrix(1 0 0 -1 0 207)" fill="#F5F5F5"/>
<line y1="158.5" x2="375" y2="158.5" stroke="#E2E2E2"/>
<path d="M19.5361 183.468L17.9639 183.092L18.5312 178.047H24.123V179.64H20.1514L19.9053 181.848C20.0374 181.77 20.238 181.688 20.5068 181.602C20.7757 181.51 21.0765 181.465 21.4092 181.465C21.8923 181.465 22.3206 181.54 22.6943 181.69C23.068 181.841 23.3848 182.06 23.6445 182.347C23.9089 182.634 24.1094 182.985 24.2461 183.399C24.3828 183.814 24.4512 184.284 24.4512 184.808C24.4512 185.25 24.3828 185.671 24.2461 186.072C24.1094 186.469 23.902 186.824 23.624 187.139C23.346 187.449 22.9974 187.692 22.5781 187.87C22.1589 188.048 21.6621 188.137 21.0879 188.137C20.6595 188.137 20.2448 188.073 19.8438 187.945C19.4473 187.818 19.0895 187.629 18.7705 187.378C18.4561 187.127 18.2031 186.824 18.0117 186.469C17.8249 186.109 17.7269 185.699 17.7178 185.238H19.6729C19.7002 185.521 19.7731 185.765 19.8916 185.97C20.0146 186.17 20.1764 186.325 20.377 186.435C20.5775 186.544 20.8122 186.599 21.0811 186.599C21.3317 186.599 21.5459 186.551 21.7236 186.455C21.9014 186.359 22.0449 186.227 22.1543 186.059C22.2637 185.885 22.3434 185.685 22.3936 185.457C22.4482 185.225 22.4756 184.974 22.4756 184.705C22.4756 184.436 22.4437 184.192 22.3799 183.974C22.3161 183.755 22.2181 183.566 22.0859 183.406C21.9538 183.247 21.7852 183.124 21.5801 183.037C21.3796 182.951 21.1449 182.907 20.876 182.907C20.5114 182.907 20.2288 182.964 20.0283 183.078C19.8324 183.192 19.6683 183.322 19.5361 183.468ZM28.7351 181.546V183.8H30.5971V181.546H28.7351ZM34.6571 176.282V183.786H36.5191V176.282H34.6571ZM25.8091 182.12C28.2311 182.134 31.1851 182.106 33.9991 181.714L33.9011 180.566C31.1711 180.832 28.1051 180.832 25.6131 180.832L25.8091 182.12ZM27.4471 184.178V185.438H34.6711V186.054H27.4751V188.238H29.3091V187.216H36.5191V184.178H27.4471ZM27.4751 187.888V189.162H36.8131V187.888H27.4751ZM32.3611 182.288V183.394H35.2311V182.288H32.3611ZM29.7291 176.464C27.7831 176.464 26.4811 177.234 26.4811 178.41C26.4811 179.6 27.7831 180.356 29.7291 180.356C31.6611 180.356 32.9631 179.6 32.9631 178.41C32.9631 177.234 31.6611 176.464 29.7291 176.464ZM29.7291 177.682C30.6531 177.682 31.2271 177.934 31.2271 178.41C31.2271 178.886 30.6531 179.124 29.7291 179.124C28.7911 179.124 28.2171 178.886 28.2171 178.41C28.2171 177.934 28.7911 177.682 29.7291 177.682ZM46.8867 178.026V188H44.918V180.296L42.5527 181.048V179.496L46.6748 178.026H46.8867ZM57.0996 184.281V185.826H49.9287L49.833 184.63L53.9824 178.047H55.5479L53.8525 180.884L51.7881 184.281H57.0996ZM55.9717 178.047V188H54.0029V178.047H55.9717ZM61.6964 176.66C59.7224 176.66 58.2384 177.892 58.2384 179.628C58.2384 181.35 59.7224 182.582 61.6964 182.582C63.6704 182.582 65.1544 181.35 65.1544 179.628C65.1544 177.892 63.6704 176.66 61.6964 176.66ZM61.6964 178.172C62.6484 178.172 63.3484 178.704 63.3484 179.628C63.3484 180.552 62.6484 181.084 61.6964 181.084C60.7444 181.084 60.0304 180.552 60.0304 179.628C60.0304 178.704 60.7444 178.172 61.6964 178.172ZM66.9464 176.282V182.764H68.8224V176.282H66.9464ZM60.1704 183.296V184.738H66.9744V185.508H60.1984V188.42H62.0184V186.852H68.8224V183.296H60.1704ZM60.1984 187.664V189.106H69.1444V187.664H60.1984ZM71.2158 184.104V183.953C71.2158 182.992 71.3161 182.119 71.5166 181.335C71.7217 180.551 71.9906 179.863 72.3232 179.271C72.6605 178.674 73.0273 178.179 73.4238 177.787C73.8203 177.395 74.2145 177.113 74.6064 176.939L74.9824 177.979C74.7227 178.17 74.4674 178.434 74.2168 178.771C73.9661 179.104 73.7383 179.514 73.5332 180.002C73.3327 180.485 73.1709 181.055 73.0479 181.711C72.9248 182.363 72.8633 183.105 72.8633 183.939V184.117C72.8633 184.951 72.9248 185.696 73.0479 186.353C73.1709 187.004 73.3327 187.574 73.5332 188.062C73.7383 188.554 73.9661 188.968 74.2168 189.306C74.4674 189.643 74.7227 189.91 74.9824 190.105L74.6064 191.117C74.2145 190.944 73.8203 190.661 73.4238 190.27C73.0273 189.882 72.6605 189.39 72.3232 188.793C71.9906 188.201 71.7217 187.512 71.5166 186.729C71.3161 185.94 71.2158 185.065 71.2158 184.104ZM77.2019 182.694V184.164H86.3159V182.694H77.2019ZM75.8299 186.32V187.818H87.5619V186.32H75.8299ZM80.7579 183.436V186.978H82.6199V183.436H80.7579ZM77.2019 177.164V183.254H79.0919V178.648H86.2039V177.164H77.2019ZM78.5179 179.908V181.364H85.9099V179.908H78.5179ZM92.2842 183.953V184.104C92.2842 185.033 92.1794 185.89 91.9697 186.674C91.7601 187.453 91.4821 188.144 91.1357 188.745C90.7939 189.351 90.418 189.855 90.0078 190.256C89.6022 190.657 89.1966 190.944 88.791 191.117L88.4082 190.105C88.668 189.914 88.9209 189.65 89.167 189.312C89.4176 188.975 89.6455 188.561 89.8506 188.068C90.0557 187.581 90.2174 187.009 90.3359 186.353C90.459 185.696 90.5205 184.951 90.5205 184.117V183.939C90.5205 183.105 90.459 182.36 90.3359 181.704C90.2129 181.048 90.0465 180.476 89.8369 179.988C89.6318 179.496 89.404 179.084 89.1533 178.751C88.9072 178.414 88.6589 178.149 88.4082 177.958L88.791 176.939C89.1966 177.113 89.6022 177.402 90.0078 177.808C90.418 178.209 90.7939 178.71 91.1357 179.312C91.4821 179.913 91.7601 180.606 91.9697 181.39C92.1794 182.169 92.2842 183.023 92.2842 183.953Z" fill="black"/>
<path d="M353 185L348 180L343 185" stroke="black" stroke-width="2" stroke-linecap="round"/>
<path d="M18.608 245.732V247.004H26.48V245.732H18.608ZM17.492 249.536V250.82H27.548V249.536H17.492ZM21.716 246.488V249.896H23.312V246.488H21.716ZM18.608 241.796V246.284H20.216V241.796H18.608ZM34.1951 243.32V244.604H36.7751V243.32H34.1951ZM31.0631 241.64V242.84C31.0631 244.412 30.2951 245.948 28.4591 246.56L29.2991 247.808C31.3991 247.04 32.3471 245.108 32.3471 242.84V241.64H31.0631ZM31.4111 241.64V242.852C31.4111 244.952 32.3231 246.812 34.3151 247.532L35.1671 246.308C33.4151 245.708 32.6831 244.28 32.6831 242.852V241.64H31.4111ZM36.2231 240.968V249.164H37.8191V240.968H36.2231ZM30.4631 250.604V251.876H38.0591V250.604H30.4631ZM30.4631 248.336V251.312H32.0711V248.336H30.4631ZM44.5861 241.112C42.0421 241.112 40.5661 241.784 40.5661 243.008C40.5661 244.232 42.0421 244.904 44.5861 244.904C47.1181 244.904 48.6061 244.232 48.6061 243.008C48.6061 241.784 47.1181 241.112 44.5861 241.112ZM44.5861 242.276C46.1941 242.276 46.9501 242.516 46.9501 243.008C46.9501 243.524 46.1941 243.74 44.5861 243.74C42.9781 243.74 42.2221 243.524 42.2221 243.008C42.2221 242.516 42.9781 242.276 44.5861 242.276ZM39.5581 245.42V246.68H49.6021V245.42H39.5581ZM40.7101 247.304V248.492H46.8181V249.056H40.7221V251.144H42.2941V250.16H48.3901V247.304H40.7101ZM40.7221 250.796V251.996H48.6781V250.796H40.7221ZM59.2615 243.32V244.604H61.8415V243.32H59.2615ZM56.1295 241.64V242.84C56.1295 244.412 55.3615 245.948 53.5255 246.56L54.3655 247.808C56.4655 247.04 57.4135 245.108 57.4135 242.84V241.64H56.1295ZM56.4775 241.64V242.852C56.4775 244.952 57.3895 246.812 59.3815 247.532L60.2335 246.308C58.4815 245.708 57.7495 244.28 57.7495 242.852V241.64H56.4775ZM61.2895 240.968V249.164H62.8855V240.968H61.2895ZM55.5295 250.604V251.876H63.1255V250.604H55.5295ZM55.5295 248.336V251.312H57.1375V248.336H55.5295ZM64.9965 246.02V247.316H65.7645C67.4205 247.316 68.5005 247.28 69.7725 247.064L69.6285 245.792C68.4045 245.996 67.3725 246.02 65.7645 246.02H64.9965ZM64.9965 241.7V246.728H66.5325V242.972H69.3765V241.7H64.9965ZM66.0765 243.872V245.072H69.2565V243.872H66.0765ZM72.5805 240.956V247.736H74.0925V240.956H72.5805ZM71.2485 243.68V244.952H73.0125V243.68H71.2485ZM70.2045 241.16V247.664H71.6925V241.16H70.2045ZM66.4605 248.216V249.488H72.5085V252.068H74.0925V248.216H66.4605ZM82.7916 240.956V252.068H84.3756V240.956H82.7916ZM84.0156 245.288V246.62H85.9836V245.288H84.0156ZM75.6156 242.6V243.872H82.0836V242.6H75.6156ZM78.8676 244.496C77.2476 244.496 76.0476 245.6 76.0476 247.148C76.0476 248.696 77.2476 249.8 78.8676 249.8C80.4876 249.8 81.6876 248.696 81.6876 247.148C81.6876 245.6 80.4876 244.496 78.8676 244.496ZM78.8676 245.792C79.6236 245.792 80.1636 246.296 80.1636 247.148C80.1636 248 79.6236 248.504 78.8676 248.504C78.1116 248.504 77.5716 248 77.5716 247.148C77.5716 246.296 78.1116 245.792 78.8676 245.792ZM78.0636 241.136V243.08H79.6596V241.136H78.0636ZM91.0827 244.688V245.984H92.9187V244.688H91.0827ZM88.7067 241.916V243.788C88.7067 245.672 88.1307 247.652 86.4987 248.66L87.4587 249.86C89.2347 248.768 89.9307 246.308 89.9307 243.788V241.916H88.7067ZM89.0547 241.916V243.716C89.0547 246.116 89.6067 248.516 91.3707 249.608L92.2347 248.36C90.7227 247.376 90.2547 245.528 90.2547 243.716V241.916H89.0547ZM94.7307 240.956V252.068H96.2547V240.956H94.7307ZM92.4747 241.124V251.564H93.9627V241.124H92.4747ZM99.9617 246.596V249.716H101.546V246.596H99.9617ZM103.994 246.596V249.716H105.59V246.596H103.994ZM97.7537 249.488V250.784H107.81V249.488H97.7537ZM102.77 241.496C100.37 241.496 98.6177 242.672 98.6177 244.484C98.6177 246.296 100.37 247.46 102.77 247.46C105.158 247.46 106.922 246.296 106.922 244.484C106.922 242.672 105.158 241.496 102.77 241.496ZM102.77 242.744C104.318 242.744 105.35 243.38 105.35 244.484C105.35 245.576 104.318 246.224 102.77 246.224C101.222 246.224 100.19 245.576 100.19 244.484C100.19 243.38 101.222 242.744 102.77 242.744Z" fill="black"/>
<rect x="16.5" y="267.5" width="343" height="43" rx="3.5" stroke="#E2E2E2"/>
<path d="M42.9756 291.872H44.1376V282.492H42.9756V285.432H40.2316V286.384H42.9756V291.872ZM41.1276 288.904C39.3216 288.232 38.0896 286.58 38.0896 284.83V283.234H36.9416V284.788C36.9416 286.706 35.6816 288.484 33.8056 289.17L34.4076 290.08C35.8776 289.492 36.9976 288.302 37.5296 286.804C38.0616 288.162 39.1396 289.24 40.5256 289.786L41.1276 288.904ZM37.2076 293.818V290.836H36.0596V294.756H44.4316V293.818H37.2076ZM52.5505 288.162C51.2345 288.428 50.1145 288.498 48.3225 288.498V286.79H51.9205V285.908H48.3225V284.326H52.0605V283.402H47.2165V289.436H48.0145C50.0305 289.436 51.2205 289.38 52.6625 289.086L52.5505 288.162ZM48.8265 291.676H56.1205V295.036H57.2685V290.752H48.8265V291.676ZM56.1625 282.492V285.754H54.4825V282.716H53.3905V290.01H54.4825V286.692H56.1625V290.094H57.2685V282.492H56.1625ZM63.2314 291.284C62.0974 291.284 61.2714 290.472 61.2714 289.352C61.2714 288.218 62.0974 287.406 63.2314 287.406C64.3794 287.406 65.2054 288.218 65.2054 289.352C65.2054 290.472 64.3794 291.284 63.2314 291.284ZM63.2314 286.454C61.4674 286.454 60.1934 287.658 60.1934 289.352C60.1934 291.06 61.4674 292.236 63.2314 292.236C65.0234 292.236 66.2974 291.06 66.2974 289.352C66.2974 287.658 65.0234 286.454 63.2314 286.454ZM63.7914 282.632H62.6434V284.494H59.4794V285.418H66.8854V284.494H63.7914V282.632ZM71.2814 287.644H69.2234V282.492H68.0754V295.036H69.2234V288.61H71.2814V287.644ZM76.1523 283.668H75.0463V286.062C75.0463 288.218 74.0103 290.472 72.2883 291.48L73.0023 292.334C74.2483 291.564 75.1583 290.15 75.6063 288.484C76.0543 290.01 76.8943 291.34 78.0843 292.068L78.7423 291.172C77.0903 290.164 76.1523 288.036 76.1523 286.02V283.668ZM79.4563 286.986H77.3843V287.938H79.4563V294.42H80.5343V282.758H79.4563V286.986ZM82.0043 282.478V295.036H83.0963V282.478H82.0043ZM89.2412 289.52C89.7592 289.646 90.3612 289.716 90.9772 289.716C91.6072 289.716 92.2092 289.646 92.7412 289.52V292.474H89.2412V289.52ZM90.9772 284.172C92.9932 284.172 94.4492 285.096 94.4492 286.496C94.4492 287.896 92.9932 288.82 90.9772 288.82C88.9612 288.82 87.5192 287.896 87.5192 286.496C87.5192 285.096 88.9612 284.172 90.9772 284.172ZM93.8892 292.474V289.072C94.9252 288.526 95.5412 287.63 95.5412 286.496C95.5412 284.536 93.6512 283.276 90.9772 283.276C88.3172 283.276 86.4132 284.536 86.4132 286.496C86.4132 287.63 87.0432 288.54 88.0932 289.086V292.474H85.2932V293.426H96.7032V292.474H93.8892Z" fill="#898989"/>
<path d="M332.921 287L337.936 292L342.951 287H332.921Z" fill="#121212"/>
<path d="M23.696 349.336C22.412 349.564 21.272 349.612 19.496 349.624V348.808H22.88V347.584H19.496V346.792H23.108V345.532H17.924V350.872H18.848C21.044 350.872 22.388 350.824 23.864 350.56L23.696 349.336ZM24.644 354.64H20.564V353.716H24.644V354.64ZM24.644 352.504H20.564V351.556H19.004V355.9H26.216V351.556H24.644V352.504ZM27.68 347.356H26.216V344.98H24.632V351.1H26.216V348.652H27.68V347.356ZM38.0471 348.232C35.5751 347.92 34.3631 346.648 34.3631 345.496V345.172H32.7311V345.496C32.7311 346.66 31.5191 347.92 29.0471 348.232L29.6231 349.468C31.4951 349.204 32.8511 348.4 33.5471 347.332C34.2551 348.4 35.5991 349.204 37.4831 349.468L38.0471 348.232ZM33.5231 354.856C32.0471 354.856 31.2911 354.604 31.2911 354.04C31.2911 353.476 32.0471 353.224 33.5231 353.224C34.9991 353.224 35.7551 353.476 35.7551 354.04C35.7551 354.604 34.9991 354.856 33.5231 354.856ZM33.5231 352.036C31.1351 352.036 29.6951 352.756 29.6951 354.04C29.6951 355.324 31.1351 356.044 33.5231 356.044C35.9111 356.044 37.3631 355.324 37.3631 354.04C37.3631 352.756 35.9111 352.036 33.5231 352.036ZM28.5551 350.056V351.304H38.5391V350.056H28.5551ZM51.7624 344.992H50.1664V352.924H51.7624V344.992ZM44.2864 348.496C44.2864 347.584 44.9344 347.056 45.7504 347.056C46.5784 347.056 47.2024 347.584 47.2024 348.496C47.2024 349.384 46.5784 349.924 45.7504 349.924C44.9344 349.924 44.2864 349.384 44.2864 348.496ZM48.7504 348.496C48.7504 346.864 47.4424 345.688 45.7504 345.688C44.0584 345.688 42.7384 346.864 42.7384 348.496C42.7384 350.104 44.0584 351.292 45.7504 351.292C47.4424 351.292 48.7504 350.104 48.7504 348.496ZM45.9904 354.58V352.144H44.4064V355.84H52.0384V354.58H45.9904ZM59.2615 351.4V352.48H61.3375V353.356H62.9215V344.98H61.3375V351.4H59.2615ZM57.1375 346.504C57.8695 346.504 58.3855 346.792 58.3855 347.332C58.3855 347.872 57.8695 348.148 57.1375 348.148C56.3935 348.148 55.8775 347.872 55.8775 347.332C55.8775 346.792 56.3935 346.504 57.1375 346.504ZM57.1375 349.3C58.7455 349.3 59.8855 348.508 59.8855 347.332C59.8855 346.156 58.7455 345.352 57.1375 345.352C55.5175 345.352 54.3895 346.156 54.3895 347.332C54.3895 348.508 55.5175 349.3 57.1375 349.3ZM56.5495 354.58V353.068H58.0735V350.98C58.9615 350.908 59.8495 350.812 60.7135 350.668L60.6055 349.54C58.2775 349.84 55.5895 349.864 53.5735 349.876L53.7775 351.136C54.6055 351.136 55.5295 351.124 56.5015 351.076V352.552H54.9655V355.84H63.1615V354.58H56.5495ZM69.6525 346.3C71.2605 346.3 72.0165 346.528 72.0165 347.02C72.0165 347.536 71.2605 347.752 69.6525 347.752C68.0565 347.752 67.3005 347.536 67.3005 347.02C67.3005 346.528 68.0565 346.3 69.6525 346.3ZM69.6525 348.904C72.1845 348.904 73.6605 348.244 73.6605 347.02C73.6605 345.808 72.1845 345.136 69.6525 345.136C67.1325 345.136 65.6565 345.808 65.6565 347.02C65.6565 348.244 67.1325 348.904 69.6525 348.904ZM67.3845 354.136H73.4325V351.292H65.8005V352.456H71.8725V353.044H65.8125V355.948H73.7205V354.76H67.3845V354.136ZM64.6605 349.432V350.668H74.6445V349.432H64.6605ZM86.3439 353.14H87.9279V344.98H86.3439V347.332H84.3159V348.616H86.3439V353.14ZM85.2879 350.308C83.5599 349.696 82.8159 348.292 82.8159 346.852V345.652H81.2079V346.84C81.2079 348.412 80.4399 349.948 78.6159 350.56L79.4439 351.796C80.7279 351.328 81.5799 350.428 82.0479 349.288C82.5039 350.308 83.2959 351.112 84.4479 351.532L85.2879 350.308ZM82.2159 354.58V352.324H80.6319V355.84H88.1679V354.58H82.2159ZM94.6949 349.792C93.6869 349.948 92.8109 350.008 91.6229 350.02V349.084H94.3349V347.884H91.6229V346.972H94.4429V345.724H90.0989V351.292H90.8669C92.5109 351.292 93.5789 351.256 94.8389 351.052L94.6949 349.792ZM91.5389 353.464H97.5629V356.044H99.1469V352.204H91.5389V353.464ZM97.6469 344.98V347.692H96.7589V345.172H95.2829V351.652H96.7589V348.952H97.6469V351.724H99.1469V344.98H97.6469ZM103.958 352.48C103.214 352.48 102.662 351.976 102.662 351.136C102.662 350.296 103.214 349.78 103.958 349.78C104.702 349.78 105.242 350.296 105.242 351.124C105.242 351.976 104.702 352.48 103.958 352.48ZM103.958 348.496C102.35 348.496 101.15 349.588 101.15 351.124C101.15 352.684 102.35 353.776 103.958 353.776C105.554 353.776 106.742 352.684 106.742 351.124C106.742 349.588 105.554 348.496 103.958 348.496ZM104.738 345.172H103.154V346.612H100.706V347.872H107.138V346.612H104.738V345.172ZM111.026 349.3H109.442V344.98H107.858V356.032H109.442V350.608H111.026V349.3ZM115.333 345.94H113.809V347.8C113.809 349.684 113.221 351.664 111.601 352.648L112.549 353.836C113.545 353.236 114.193 352.18 114.577 350.956C114.925 352.072 115.513 353.008 116.449 353.584L117.313 352.36C115.813 351.364 115.333 349.528 115.333 347.74V345.94ZM117.541 348.712H116.149V349.996H117.541V355.54H119.017V345.16H117.541V348.712ZM119.785 344.98V356.032H121.285V344.98H119.785ZM126.624 351.352C127.008 351.424 127.404 351.46 127.836 351.46C128.268 351.46 128.676 351.424 129.06 351.352V353.464H126.624V351.352ZM127.836 346.768C129.372 346.768 130.404 347.392 130.404 348.496C130.404 349.588 129.372 350.224 127.836 350.224C126.3 350.224 125.28 349.588 125.28 348.496C125.28 347.392 126.3 346.768 127.836 346.768ZM130.632 353.464V350.764C131.46 350.248 131.964 349.456 131.964 348.496C131.964 346.684 130.224 345.52 127.836 345.52C125.46 345.52 123.72 346.684 123.72 348.496C123.708 349.456 124.212 350.248 125.052 350.764V353.464H122.844V354.748H132.852V353.464H130.632Z" fill="black"/>
<path d="M102.983 389.992V400H101.719V391.571L99.1689 392.501V391.359L102.785 389.992H102.983ZM112.609 390.48V391.432H116.263V390.48H112.609ZM112.609 393V393.938H116.291V393H112.609ZM115.815 388.436V395.926H116.977V388.436H115.815ZM107.149 389.388V395.016H112.931V389.388H107.149ZM111.783 390.326V394.092H108.283V390.326H111.783ZM112.819 396.29C110.201 396.29 108.591 397.172 108.591 398.684C108.591 400.196 110.201 401.064 112.819 401.064C115.423 401.064 117.033 400.196 117.033 398.684C117.033 397.172 115.423 396.29 112.819 396.29ZM112.819 397.214C114.723 397.214 115.885 397.76 115.885 398.684C115.885 399.608 114.723 400.154 112.819 400.154C110.915 400.154 109.753 399.608 109.753 398.684C109.753 397.76 110.915 397.214 112.819 397.214Z" fill="#A71596"/>
<rect x="76.5" y="375.5" width="64" height="39" rx="7.5" stroke="#A71596"/>
<path d="M178.349 398.961V400H171.834V399.091L175.095 395.461C175.496 395.014 175.806 394.636 176.024 394.326C176.248 394.012 176.403 393.731 176.489 393.485C176.58 393.235 176.626 392.979 176.626 392.72C176.626 392.392 176.558 392.095 176.421 391.831C176.289 391.562 176.093 391.348 175.833 391.188C175.573 391.029 175.259 390.949 174.89 390.949C174.448 390.949 174.078 391.036 173.782 391.209C173.491 391.378 173.272 391.615 173.126 391.92C172.98 392.225 172.907 392.576 172.907 392.973H171.643C171.643 392.412 171.766 391.899 172.012 391.435C172.258 390.97 172.622 390.601 173.105 390.327C173.589 390.049 174.183 389.91 174.89 389.91C175.519 389.91 176.056 390.022 176.503 390.245C176.95 390.464 177.291 390.774 177.528 391.175C177.77 391.571 177.891 392.036 177.891 392.569C177.891 392.861 177.84 393.157 177.74 393.458C177.645 393.754 177.51 394.05 177.337 394.347C177.168 394.643 176.97 394.935 176.742 395.222C176.519 395.509 176.28 395.791 176.024 396.069L173.358 398.961H178.349ZM185.609 390.48V391.432H189.263V390.48H185.609ZM185.609 393V393.938H189.291V393H185.609ZM188.815 388.436V395.926H189.977V388.436H188.815ZM180.149 389.388V395.016H185.931V389.388H180.149ZM184.783 390.326V394.092H181.283V390.326H184.783ZM185.819 396.29C183.201 396.29 181.591 397.172 181.591 398.684C181.591 400.196 183.201 401.064 185.819 401.064C188.423 401.064 190.033 400.196 190.033 398.684C190.033 397.172 188.423 396.29 185.819 396.29ZM185.819 397.214C187.723 397.214 188.885 397.76 188.885 398.684C188.885 399.608 187.723 400.154 185.819 400.154C183.915 400.154 182.753 399.608 182.753 398.684C182.753 397.76 183.915 397.214 185.819 397.214Z" fill="#666666"/>
<rect x="149.5" y="375.5" width="64" height="39" rx="7.5" stroke="#E2E2E2"/>
<path d="M246.666 394.408H247.616C248.213 394.399 248.683 394.242 249.024 393.937C249.366 393.631 249.537 393.219 249.537 392.699C249.537 391.533 248.956 390.949 247.794 390.949C247.247 390.949 246.81 391.106 246.481 391.421C246.158 391.731 245.996 392.143 245.996 392.658H244.731C244.731 391.87 245.019 391.216 245.593 390.696C246.172 390.172 246.905 389.91 247.794 389.91C248.733 389.91 249.469 390.159 250.002 390.655C250.535 391.152 250.802 391.842 250.802 392.727C250.802 393.16 250.66 393.579 250.378 393.984C250.1 394.39 249.719 394.693 249.236 394.894C249.783 395.067 250.205 395.354 250.501 395.755C250.802 396.156 250.952 396.646 250.952 397.225C250.952 398.118 250.66 398.826 250.077 399.351C249.494 399.875 248.735 400.137 247.801 400.137C246.867 400.137 246.105 399.884 245.518 399.378C244.934 398.872 244.643 398.204 244.643 397.375H245.914C245.914 397.899 246.085 398.318 246.427 398.633C246.769 398.947 247.227 399.104 247.801 399.104C248.411 399.104 248.879 398.945 249.202 398.626C249.526 398.307 249.688 397.849 249.688 397.252C249.688 396.673 249.51 396.229 249.154 395.919C248.799 395.609 248.286 395.45 247.616 395.44H246.666V394.408ZM257.783 394.092H254.311V390.354H257.783V394.092ZM261.787 391.446V393H258.903V391.446H261.787ZM258.903 393.924H261.787V395.912H262.949V388.492H261.787V390.522H258.903V389.43H253.177V395.002H258.903V393.924ZM258.791 400.126C256.915 400.126 255.767 399.58 255.767 398.656C255.767 397.732 256.915 397.186 258.791 397.186C260.695 397.186 261.843 397.732 261.843 398.656C261.843 399.58 260.695 400.126 258.791 400.126ZM258.791 396.29C256.215 396.29 254.619 397.144 254.619 398.656C254.619 400.154 256.215 401.022 258.791 401.022C261.381 401.022 262.991 400.154 262.991 398.656C262.991 397.144 261.381 396.29 258.791 396.29Z" fill="#666666"/>
<rect x="222.5" y="375.5" width="64" height="39" rx="7.5" stroke="#E2E2E2"/>
<path d="M323.166 396.657H324.547V397.689H323.166V400H321.895V397.689H317.362V396.944L321.819 390.047H323.166V396.657ZM318.798 396.657H321.895V391.776L321.744 392.05L318.798 396.657ZM330.783 394.092H327.311V390.354H330.783V394.092ZM334.787 391.446V393H331.903V391.446H334.787ZM331.903 393.924H334.787V395.912H335.949V388.492H334.787V390.522H331.903V389.43H326.177V395.002H331.903V393.924ZM331.791 400.126C329.915 400.126 328.767 399.58 328.767 398.656C328.767 397.732 329.915 397.186 331.791 397.186C333.695 397.186 334.843 397.732 334.843 398.656C334.843 399.58 333.695 400.126 331.791 400.126ZM331.791 396.29C329.215 396.29 327.619 397.144 327.619 398.656C327.619 400.154 329.215 401.022 331.791 401.022C334.381 401.022 335.991 400.154 335.991 398.656C335.991 397.144 334.381 396.29 331.791 396.29Z" fill="#666666"/>
<rect x="295.5" y="375.5" width="64" height="39" rx="7.5" stroke="#E2E2E2"/>
<path d="M99.4082 443.01L99.9141 438.047H105.014V439.216H100.987L100.687 441.93C101.174 441.643 101.728 441.499 102.348 441.499C103.255 441.499 103.975 441.8 104.508 442.401C105.041 442.998 105.308 443.807 105.308 444.828C105.308 445.854 105.03 446.662 104.474 447.255C103.922 447.843 103.15 448.137 102.156 448.137C101.277 448.137 100.559 447.893 100.003 447.405C99.4469 446.918 99.1302 446.243 99.0527 445.382H100.249C100.326 445.951 100.529 446.382 100.857 446.674C101.186 446.961 101.618 447.104 102.156 447.104C102.744 447.104 103.204 446.904 103.537 446.503C103.874 446.102 104.043 445.548 104.043 444.842C104.043 444.176 103.861 443.643 103.496 443.242C103.136 442.837 102.655 442.634 102.054 442.634C101.502 442.634 101.069 442.755 100.755 442.996L100.42 443.27L99.4082 443.01ZM111.783 442.092H108.311V438.354H111.783V442.092ZM115.787 439.446V441H112.903V439.446H115.787ZM112.903 441.924H115.787V443.912H116.949V436.492H115.787V438.522H112.903V437.43H107.177V443.002H112.903V441.924ZM112.791 448.126C110.915 448.126 109.767 447.58 109.767 446.656C109.767 445.732 110.915 445.186 112.791 445.186C114.695 445.186 115.843 445.732 115.843 446.656C115.843 447.58 114.695 448.126 112.791 448.126ZM112.791 444.29C110.215 444.29 108.619 445.144 108.619 446.656C108.619 448.154 110.215 449.022 112.791 449.022C115.381 449.022 116.991 448.154 116.991 446.656C116.991 445.144 115.381 444.29 112.791 444.29Z" fill="#666666"/>
<rect x="76.5" y="423.5" width="64" height="39" rx="7.5" stroke="#E2E2E2"/>
<path d="M26.926 395.912H28.088V388.492H26.926V391.152H24.196V392.09H26.926V395.912ZM25.106 394.428C23.272 393.784 22.054 392.23 22.054 390.438V389.192H20.906V390.48C20.906 392.398 19.66 394.078 17.728 394.764L18.33 395.702C19.842 395.128 20.976 393.994 21.508 392.51C22.054 393.812 23.118 394.806 24.49 395.324L25.106 394.428ZM23.944 400.112C22.054 400.112 20.906 399.566 20.906 398.656C20.906 397.732 22.054 397.186 23.944 397.186C25.834 397.186 26.982 397.732 26.982 398.656C26.982 399.566 25.834 400.112 23.944 400.112ZM23.944 396.29C21.368 396.29 19.758 397.144 19.758 398.656C19.758 400.154 21.368 401.022 23.944 401.022C26.52 401.022 28.13 400.154 28.13 398.656C28.13 397.144 26.52 396.29 23.944 396.29ZM40.9249 388.492H39.7769V397.662H40.9249V388.492ZM32.0349 392.44C32.0349 391.222 32.9589 390.354 34.1769 390.354C35.4229 390.354 36.3469 391.222 36.3469 392.44C36.3469 393.686 35.4229 394.554 34.1769 394.554C32.9589 394.554 32.0349 393.686 32.0349 392.44ZM37.4669 392.44C37.4669 390.634 36.0529 389.36 34.1769 389.36C32.3149 389.36 30.9149 390.634 30.9149 392.44C30.9149 394.26 32.3149 395.548 34.1769 395.548C36.0529 395.548 37.4669 394.26 37.4669 392.44ZM33.9949 399.818V396.724H32.8469V400.756H41.3029V399.818H33.9949Z" fill="black"/>
<path d="M102.983 504H101.712V495.571L99.1621 496.508V495.359L102.785 493.999H102.983V504ZM111.783 498.092H108.311V494.354H111.783V498.092ZM115.787 495.446V497H112.903V495.446H115.787ZM112.903 497.924H115.787V499.912H116.949V492.492H115.787V494.522H112.903V493.43H107.177V499.002H112.903V497.924ZM112.791 504.126C110.915 504.126 109.767 503.58 109.767 502.656C109.767 501.732 110.915 501.186 112.791 501.186C114.695 501.186 115.843 501.732 115.843 502.656C115.843 503.58 114.695 504.126 112.791 504.126ZM112.791 500.29C110.215 500.29 108.619 501.144 108.619 502.656C108.619 504.154 110.215 505.022 112.791 505.022C115.381 505.022 116.991 504.154 116.991 502.656C116.991 501.144 115.381 500.29 112.791 500.29Z" fill="#666666"/>
<rect x="76.5" y="479.5" width="64" height="39" rx="7.5" stroke="#E2E2E2"/>
<path d="M178.349 504H171.827V503.091L175.272 499.263C175.783 498.684 176.134 498.215 176.325 497.854C176.521 497.49 176.619 497.114 176.619 496.727C176.619 496.207 176.462 495.781 176.147 495.448C175.833 495.116 175.414 494.949 174.89 494.949C174.261 494.949 173.771 495.129 173.42 495.489C173.074 495.845 172.9 496.341 172.9 496.979H171.636C171.636 496.063 171.93 495.323 172.518 494.758C173.11 494.193 173.901 493.91 174.89 493.91C175.815 493.91 176.546 494.154 177.084 494.642C177.622 495.125 177.891 495.77 177.891 496.576C177.891 497.556 177.266 498.723 176.018 500.076L173.352 502.968H178.349V504ZM184.783 498.092H181.311V494.354H184.783V498.092ZM188.787 495.446V497H185.903V495.446H188.787ZM185.903 497.924H188.787V499.912H189.949V492.492H188.787V494.522H185.903V493.43H180.177V499.002H185.903V497.924ZM185.791 504.126C183.915 504.126 182.767 503.58 182.767 502.656C182.767 501.732 183.915 501.186 185.791 501.186C187.695 501.186 188.843 501.732 188.843 502.656C188.843 503.58 187.695 504.126 185.791 504.126ZM185.791 500.29C183.215 500.29 181.619 501.144 181.619 502.656C181.619 504.154 183.215 505.022 185.791 505.022C188.381 505.022 189.991 504.154 189.991 502.656C189.991 501.144 188.381 500.29 185.791 500.29Z" fill="#666666"/>
<rect x="149.5" y="479.5" width="64" height="39" rx="7.5" stroke="#E2E2E2"/>
<path d="M246.666 498.408H247.616C248.213 498.399 248.683 498.242 249.024 497.937C249.366 497.631 249.537 497.219 249.537 496.699C249.537 495.533 248.956 494.949 247.794 494.949C247.247 494.949 246.81 495.106 246.481 495.421C246.158 495.731 245.996 496.143 245.996 496.658H244.731C244.731 495.87 245.019 495.216 245.593 494.696C246.172 494.172 246.905 493.91 247.794 493.91C248.733 493.91 249.469 494.159 250.002 494.655C250.535 495.152 250.802 495.842 250.802 496.727C250.802 497.16 250.66 497.579 250.378 497.984C250.1 498.39 249.719 498.693 249.236 498.894C249.783 499.067 250.205 499.354 250.501 499.755C250.802 500.156 250.952 500.646 250.952 501.225C250.952 502.118 250.66 502.826 250.077 503.351C249.494 503.875 248.735 504.137 247.801 504.137C246.867 504.137 246.105 503.884 245.518 503.378C244.934 502.872 244.643 502.204 244.643 501.375H245.914C245.914 501.899 246.085 502.318 246.427 502.633C246.769 502.947 247.227 503.104 247.801 503.104C248.411 503.104 248.879 502.945 249.202 502.626C249.526 502.307 249.688 501.849 249.688 501.252C249.688 500.673 249.51 500.229 249.154 499.919C248.799 499.609 248.286 499.45 247.616 499.44H246.666V498.408ZM257.783 498.092H254.311V494.354H257.783V498.092ZM261.787 495.446V497H258.903V495.446H261.787ZM258.903 497.924H261.787V499.912H262.949V492.492H261.787V494.522H258.903V493.43H253.177V499.002H258.903V497.924ZM258.791 504.126C256.915 504.126 255.767 503.58 255.767 502.656C255.767 501.732 256.915 501.186 258.791 501.186C260.695 501.186 261.843 501.732 261.843 502.656C261.843 503.58 260.695 504.126 258.791 504.126ZM258.791 500.29C256.215 500.29 254.619 501.144 254.619 502.656C254.619 504.154 256.215 505.022 258.791 505.022C261.381 505.022 262.991 504.154 262.991 502.656C262.991 501.144 261.381 500.29 258.791 500.29Z" fill="#666666"/>
<rect x="222.5" y="479.5" width="64" height="39" rx="7.5" stroke="#E2E2E2"/>
<path d="M323.166 500.657H324.547V501.689H323.166V504H321.895V501.689H317.362V500.944L321.819 494.047H323.166V500.657ZM318.798 500.657H321.895V495.776L321.744 496.05L318.798 500.657ZM330.783 498.092H327.311V494.354H330.783V498.092ZM334.787 495.446V497H331.903V495.446H334.787ZM331.903 497.924H334.787V499.912H335.949V492.492H334.787V494.522H331.903V493.43H326.177V499.002H331.903V497.924ZM331.791 504.126C329.915 504.126 328.767 503.58 328.767 502.656C328.767 501.732 329.915 501.186 331.791 501.186C333.695 501.186 334.843 501.732 334.843 502.656C334.843 503.58 333.695 504.126 331.791 504.126ZM331.791 500.29C329.215 500.29 327.619 501.144 327.619 502.656C327.619 504.154 329.215 505.022 331.791 505.022C334.381 505.022 335.991 504.154 335.991 502.656C335.991 501.144 334.381 500.29 331.791 500.29Z" fill="#666666"/>
<rect x="295.5" y="479.5" width="64" height="39" rx="7.5" stroke="#E2E2E2"/>
<path d="M99.4082 547.01L99.9141 542.047H105.014V543.216H100.987L100.687 545.93C101.174 545.643 101.728 545.499 102.348 545.499C103.255 545.499 103.975 545.8 104.508 546.401C105.041 546.998 105.308 547.807 105.308 548.828C105.308 549.854 105.03 550.662 104.474 551.255C103.922 551.843 103.15 552.137 102.156 552.137C101.277 552.137 100.559 551.893 100.003 551.405C99.4469 550.918 99.1302 550.243 99.0527 549.382H100.249C100.326 549.951 100.529 550.382 100.857 550.674C101.186 550.961 101.618 551.104 102.156 551.104C102.744 551.104 103.204 550.904 103.537 550.503C103.874 550.102 104.043 549.548 104.043 548.842C104.043 548.176 103.861 547.643 103.496 547.242C103.136 546.837 102.655 546.634 102.054 546.634C101.502 546.634 101.069 546.755 100.755 546.996L100.42 547.27L99.4082 547.01ZM111.783 546.092H108.311V542.354H111.783V546.092ZM115.787 543.446V545H112.903V543.446H115.787ZM112.903 545.924H115.787V547.912H116.949V540.492H115.787V542.522H112.903V541.43H107.177V547.002H112.903V545.924ZM112.791 552.126C110.915 552.126 109.767 551.58 109.767 550.656C109.767 549.732 110.915 549.186 112.791 549.186C114.695 549.186 115.843 549.732 115.843 550.656C115.843 551.58 114.695 552.126 112.791 552.126ZM112.791 548.29C110.215 548.29 108.619 549.144 108.619 550.656C108.619 552.154 110.215 553.022 112.791 553.022C115.381 553.022 116.991 552.154 116.991 550.656C116.991 549.144 115.381 548.29 112.791 548.29Z" fill="#666666"/>
<rect x="76.5" y="527.5" width="64" height="39" rx="7.5" stroke="#E2E2E2"/>
<path d="M26.926 495.726V497.406H23.636V498.344H26.926V499.996H28.088V492.492H26.926V494.788H24.084C24.168 494.354 24.224 493.892 24.224 493.43H18.554V494.354H22.978C22.768 496.524 20.906 498.19 17.91 499.086L18.372 499.996C21.074 499.212 22.978 497.742 23.79 495.726H26.926ZM23.986 504.084C22.138 504.084 20.962 503.51 20.962 502.558C20.962 501.62 22.138 501.046 23.986 501.046C25.834 501.046 27.01 501.62 27.01 502.558C27.01 503.51 25.834 504.084 23.986 504.084ZM23.986 500.136C21.452 500.136 19.828 501.046 19.828 502.558C19.828 504.07 21.452 504.98 23.986 504.98C26.52 504.98 28.144 504.07 28.144 502.558C28.144 501.046 26.52 500.136 23.986 500.136ZM36.8789 502.544V500.178H40.8969V499.254H33.1689V497.224H40.6029V493.402H32.0069V494.34H39.4829V496.3H32.0349V500.178H35.7169V502.544H30.6069V503.482H42.0169V502.544H36.8789Z" fill="black"/>
<path d="M18.212 607.244C19.484 606.86 20.36 606.056 20.84 605.048C21.332 605.96 22.172 606.68 23.396 607.028L24.14 605.804C22.508 605.336 21.728 604.244 21.632 603.14H23.816V601.856H17.84V603.14H20C19.916 604.352 19.112 605.516 17.444 606.008L18.212 607.244ZM21.62 606.752H20.024V608.636C19.076 608.648 18.176 608.648 17.396 608.648L17.576 609.932C19.436 609.944 21.884 609.956 24.212 609.512L24.08 608.372C23.3 608.468 22.46 608.54 21.62 608.588V606.752ZM27.692 605.348H26.24V600.968H24.656V612.032H26.24V606.656H27.692V605.348ZM35.1551 605.984C33.4151 605.408 32.6831 604.064 32.6831 602.684V601.544H31.0751V602.588C31.0751 604.088 30.3191 605.552 28.4831 606.152L29.3111 607.4C30.5591 606.968 31.4111 606.116 31.8911 605.048C32.3591 606.02 33.1511 606.8 34.3271 607.208L35.1551 605.984ZM30.2591 609.308H36.2111V612.044H37.7951V608.06H30.2591V609.308ZM36.2111 600.98V603.044H34.1951V604.328H36.2111V607.556H37.7951V600.98H36.2111ZM44.5861 602.3C46.1941 602.3 46.9501 602.528 46.9501 603.02C46.9501 603.536 46.1941 603.752 44.5861 603.752C42.9901 603.752 42.2341 603.536 42.2341 603.02C42.2341 602.528 42.9901 602.3 44.5861 602.3ZM44.5861 604.904C47.1181 604.904 48.5941 604.244 48.5941 603.02C48.5941 601.808 47.1181 601.136 44.5861 601.136C42.0661 601.136 40.5901 601.808 40.5901 603.02C40.5901 604.244 42.0661 604.904 44.5861 604.904ZM42.3181 610.136H48.3661V607.292H40.7341V608.456H46.8061V609.044H40.7461V611.948H48.6541V610.76H42.3181V610.136ZM39.5941 605.432V606.668H49.5781V605.432H39.5941ZM61.2775 609.14H62.8615V600.98H61.2775V603.332H59.2495V604.616H61.2775V609.14ZM60.2215 606.308C58.4935 605.696 57.7495 604.292 57.7495 602.852V601.652H56.1415V602.84C56.1415 604.412 55.3735 605.948 53.5495 606.56L54.3775 607.796C55.6615 607.328 56.5135 606.428 56.9815 605.288C57.4375 606.308 58.2295 607.112 59.3815 607.532L60.2215 606.308ZM57.1495 610.58V608.324H55.5655V611.84H63.1015V610.58H57.1495ZM69.6285 605.792C68.6205 605.948 67.7445 606.008 66.5565 606.02V605.084H69.2685V603.884H66.5565V602.972H69.3765V601.724H65.0325V607.292H65.8005C67.4445 607.292 68.5125 607.256 69.7725 607.052L69.6285 605.792ZM66.4725 609.464H72.4965V612.044H74.0805V608.204H66.4725V609.464ZM72.5805 600.98V603.692H71.6925V601.172H70.2165V607.652H71.6925V604.952H72.5805V607.724H74.0805V600.98H72.5805ZM78.8916 608.48C78.1476 608.48 77.5956 607.976 77.5956 607.136C77.5956 606.296 78.1476 605.78 78.8916 605.78C79.6356 605.78 80.1756 606.296 80.1756 607.124C80.1756 607.976 79.6356 608.48 78.8916 608.48ZM78.8916 604.496C77.2836 604.496 76.0836 605.588 76.0836 607.124C76.0836 608.684 77.2836 609.776 78.8916 609.776C80.4876 609.776 81.6756 608.684 81.6756 607.124C81.6756 605.588 80.4876 604.496 78.8916 604.496ZM79.6716 601.172H78.0876V602.612H75.6396V603.872H82.0716V602.612H79.6716V601.172ZM85.9596 605.3H84.3756V600.98H82.7916V612.032H84.3756V606.608H85.9596V605.3ZM90.2667 601.94H88.7427V603.8C88.7427 605.684 88.1547 607.664 86.5347 608.648L87.4827 609.836C88.4787 609.236 89.1267 608.18 89.5107 606.956C89.8587 608.072 90.4467 609.008 91.3827 609.584L92.2467 608.36C90.7467 607.364 90.2667 605.528 90.2667 603.74V601.94ZM92.4747 604.712H91.0827V605.996H92.4747V611.54H93.9507V601.16H92.4747V604.712ZM94.7187 600.98V612.032H96.2187V600.98H94.7187ZM101.558 607.352C101.942 607.424 102.338 607.46 102.77 607.46C103.202 607.46 103.61 607.424 103.994 607.352V609.464H101.558V607.352ZM102.77 602.768C104.306 602.768 105.338 603.392 105.338 604.496C105.338 605.588 104.306 606.224 102.77 606.224C101.234 606.224 100.214 605.588 100.214 604.496C100.214 603.392 101.234 602.768 102.77 602.768ZM105.566 609.464V606.764C106.394 606.248 106.898 605.456 106.898 604.496C106.898 602.684 105.158 601.52 102.77 601.52C100.394 601.52 98.6537 602.684 98.6537 604.496C98.6417 605.456 99.1457 606.248 99.9857 606.764V609.464H97.7777V610.748H107.786V609.464H105.566Z" fill="black"/>
<rect x="16.5" y="631.5" width="79" height="32" rx="3.5" fill="#E2E2E2"/>
<path d="M35.7715 652H34.6816V644.775L32.4961 645.578V644.594L35.6016 643.428H35.7715V652ZM48.0903 643.696H44.2383V642.292H43.2543V643.696H39.3543V644.5H48.0903V643.696ZM41.2023 647.272C41.2023 646.48 42.1743 646 43.7463 646C45.2943 646 46.2543 646.48 46.2543 647.272C46.2543 648.076 45.2943 648.556 43.7463 648.556C42.1743 648.556 41.2023 648.076 41.2023 647.272ZM44.2383 650.824V649.312C46.1103 649.192 47.2503 648.472 47.2503 647.272C47.2503 645.976 45.8943 645.232 43.7463 645.232C41.5623 645.232 40.2063 645.976 40.2063 647.272C40.2063 648.472 41.3583 649.204 43.2543 649.312V650.824H38.8743V651.628H48.6303V650.824H44.2383ZM53.5133 644.776H55.9013V643.984H53.5133V642.316H52.5293V643.984H50.1053V644.776H52.5413V645.616C52.5413 647.476 51.3893 649.3 49.8173 650.068L50.3693 650.812C51.5933 650.212 52.5773 648.964 53.0333 647.488C53.4893 648.868 54.4013 650.044 55.5773 650.62L56.1293 649.852C54.5813 649.108 53.5133 647.344 53.5133 645.616V644.776ZM59.9693 646.552H58.1933V642.124H57.2093V652.888H58.1933V647.368H59.9693V646.552Z" fill="#A5A4A5"/>
<path d="M68.5586 648.361C68.5586 649.631 68.3418 650.574 67.9082 651.191C67.4746 651.809 66.7969 652.117 65.875 652.117C64.9648 652.117 64.291 651.816 63.8535 651.215C63.416 650.609 63.1895 649.707 63.1738 648.508V647.061C63.1738 645.807 63.3906 644.875 63.8242 644.266C64.2578 643.656 64.9375 643.352 65.8633 643.352C66.7812 643.352 67.457 643.646 67.8906 644.236C68.3242 644.822 68.5469 645.729 68.5586 646.955V648.361ZM67.4746 646.879C67.4746 645.961 67.3457 645.293 67.0879 644.875C66.8301 644.453 66.4219 644.242 65.8633 644.242C65.3086 644.242 64.9043 644.451 64.6504 644.869C64.3965 645.287 64.2656 645.93 64.2578 646.797V648.531C64.2578 649.453 64.3906 650.135 64.6562 650.576C64.9258 651.014 65.332 651.232 65.875 651.232C66.4102 651.232 66.8066 651.025 67.0645 650.611C67.3262 650.197 67.4629 649.545 67.4746 648.654V646.879ZM76.1623 647.248C74.6023 646.696 73.5343 645.316 73.5343 643.84V642.664H72.5503V643.804C72.5503 645.436 71.5183 646.888 69.8863 647.476L70.4023 648.268C71.6623 647.764 72.6103 646.804 73.0663 645.544C73.5343 646.672 74.4583 647.572 75.6343 648.028L76.1623 647.248ZM71.5303 649.876H77.7463V652.9H78.7423V649.084H71.5303V649.876ZM77.7463 642.136V644.38H75.4063V645.184H77.7463V648.484H78.7423V642.136H77.7463Z" fill="#A5A4A5"/>
<rect x="16.5" y="631.5" width="79" height="32" rx="3.5" stroke="#E2E2E2"/>
<path d="M122.299 652H116.709V651.221L119.662 647.939C120.1 647.443 120.4 647.041 120.564 646.732C120.732 646.42 120.816 646.098 120.816 645.766C120.816 645.32 120.682 644.955 120.412 644.67C120.143 644.385 119.783 644.242 119.334 644.242C118.795 644.242 118.375 644.396 118.074 644.705C117.777 645.01 117.629 645.436 117.629 645.982H116.545C116.545 645.197 116.797 644.562 117.301 644.078C117.809 643.594 118.486 643.352 119.334 643.352C120.127 643.352 120.754 643.561 121.215 643.979C121.676 644.393 121.906 644.945 121.906 645.637C121.906 646.477 121.371 647.477 120.301 648.637L118.016 651.115H122.299V652ZM132.59 643.696H128.738V642.292H127.754V643.696H123.854V644.5H132.59V643.696ZM125.702 647.272C125.702 646.48 126.674 646 128.246 646C129.794 646 130.754 646.48 130.754 647.272C130.754 648.076 129.794 648.556 128.246 648.556C126.674 648.556 125.702 648.076 125.702 647.272ZM128.738 650.824V649.312C130.61 649.192 131.75 648.472 131.75 647.272C131.75 645.976 130.394 645.232 128.246 645.232C126.062 645.232 124.706 645.976 124.706 647.272C124.706 648.472 125.858 649.204 127.754 649.312V650.824H123.374V651.628H133.13V650.824H128.738ZM138.013 644.776H140.401V643.984H138.013V642.316H137.029V643.984H134.605V644.776H137.041V645.616C137.041 647.476 135.889 649.3 134.317 650.068L134.869 650.812C136.093 650.212 137.077 648.964 137.533 647.488C137.989 648.868 138.901 650.044 140.077 650.62L140.629 649.852C139.081 649.108 138.013 647.344 138.013 645.616V644.776ZM144.469 646.552H142.693V642.124H141.709V652.888H142.693V647.368H144.469V646.552Z" fill="#666666"/>
<path d="M152.285 649.135H153.469V650.02H152.285V652H151.195V650.02H147.311V649.381L151.131 643.469H152.285V649.135ZM148.541 649.135H151.195V644.951L151.066 645.186L148.541 649.135ZM159.797 648.361C159.797 649.631 159.58 650.574 159.146 651.191C158.713 651.809 158.035 652.117 157.113 652.117C156.203 652.117 155.529 651.816 155.092 651.215C154.654 650.609 154.428 649.707 154.412 648.508V647.061C154.412 645.807 154.629 644.875 155.062 644.266C155.496 643.656 156.176 643.352 157.102 643.352C158.02 643.352 158.695 643.646 159.129 644.236C159.562 644.822 159.785 645.729 159.797 646.955V648.361ZM158.713 646.879C158.713 645.961 158.584 645.293 158.326 644.875C158.068 644.453 157.66 644.242 157.102 644.242C156.547 644.242 156.143 644.451 155.889 644.869C155.635 645.287 155.504 645.93 155.496 646.797V648.531C155.496 649.453 155.629 650.135 155.895 650.576C156.164 651.014 156.57 651.232 157.113 651.232C157.648 651.232 158.045 651.025 158.303 650.611C158.564 650.197 158.701 649.545 158.713 648.654V646.879ZM167.401 647.248C165.841 646.696 164.773 645.316 164.773 643.84V642.664H163.789V643.804C163.789 645.436 162.757 646.888 161.125 647.476L161.641 648.268C162.901 647.764 163.849 646.804 164.305 645.544C164.773 646.672 165.697 647.572 166.873 648.028L167.401 647.248ZM162.769 649.876H168.985V652.9H169.981V649.084H162.769V649.876ZM168.985 642.136V644.38H166.645V645.184H168.985V648.484H169.981V642.136H168.985Z" fill="#666666"/>
<rect x="104.5" y="631.5" width="79" height="32" rx="3.5" stroke="#E2E2E2"/>
<path d="M206.285 647.207H207.1C207.611 647.199 208.014 647.064 208.307 646.803C208.6 646.541 208.746 646.188 208.746 645.742C208.746 644.742 208.248 644.242 207.252 644.242C206.783 644.242 206.408 644.377 206.127 644.646C205.85 644.912 205.711 645.266 205.711 645.707H204.627C204.627 645.031 204.873 644.471 205.365 644.025C205.861 643.576 206.49 643.352 207.252 643.352C208.057 643.352 208.688 643.564 209.145 643.99C209.602 644.416 209.83 645.008 209.83 645.766C209.83 646.137 209.709 646.496 209.467 646.844C209.229 647.191 208.902 647.451 208.488 647.623C208.957 647.771 209.318 648.018 209.572 648.361C209.83 648.705 209.959 649.125 209.959 649.621C209.959 650.387 209.709 650.994 209.209 651.443C208.709 651.893 208.059 652.117 207.258 652.117C206.457 652.117 205.805 651.9 205.301 651.467C204.801 651.033 204.551 650.461 204.551 649.75H205.641C205.641 650.199 205.787 650.559 206.08 650.828C206.373 651.098 206.766 651.232 207.258 651.232C207.781 651.232 208.182 651.096 208.459 650.822C208.736 650.549 208.875 650.156 208.875 649.645C208.875 649.148 208.723 648.768 208.418 648.502C208.113 648.236 207.674 648.1 207.1 648.092H206.285V647.207ZM220.59 643.696H216.738V642.292H215.754V643.696H211.854V644.5H220.59V643.696ZM213.702 647.272C213.702 646.48 214.674 646 216.246 646C217.794 646 218.754 646.48 218.754 647.272C218.754 648.076 217.794 648.556 216.246 648.556C214.674 648.556 213.702 648.076 213.702 647.272ZM216.738 650.824V649.312C218.61 649.192 219.75 648.472 219.75 647.272C219.75 645.976 218.394 645.232 216.246 645.232C214.062 645.232 212.706 645.976 212.706 647.272C212.706 648.472 213.858 649.204 215.754 649.312V650.824H211.374V651.628H221.13V650.824H216.738ZM226.013 644.776H228.401V643.984H226.013V642.316H225.029V643.984H222.605V644.776H225.041V645.616C225.041 647.476 223.889 649.3 222.317 650.068L222.869 650.812C224.093 650.212 225.077 648.964 225.533 647.488C225.989 648.868 226.901 650.044 228.077 650.62L228.629 649.852C227.081 649.108 226.013 647.344 226.013 645.616V644.776ZM232.469 646.552H230.693V642.124H229.709V652.888H230.693V647.368H232.469V646.552Z" fill="#666666"/>
<path d="M239.271 652H238.182V644.775L235.996 645.578V644.594L239.102 643.428H239.271V652ZM247.797 648.361C247.797 649.631 247.58 650.574 247.146 651.191C246.713 651.809 246.035 652.117 245.113 652.117C244.203 652.117 243.529 651.816 243.092 651.215C242.654 650.609 242.428 649.707 242.412 648.508V647.061C242.412 645.807 242.629 644.875 243.062 644.266C243.496 643.656 244.176 643.352 245.102 643.352C246.02 643.352 246.695 643.646 247.129 644.236C247.562 644.822 247.785 645.729 247.797 646.955V648.361ZM246.713 646.879C246.713 645.961 246.584 645.293 246.326 644.875C246.068 644.453 245.66 644.242 245.102 644.242C244.547 644.242 244.143 644.451 243.889 644.869C243.635 645.287 243.504 645.93 243.496 646.797V648.531C243.496 649.453 243.629 650.135 243.895 650.576C244.164 651.014 244.57 651.232 245.113 651.232C245.648 651.232 246.045 651.025 246.303 650.611C246.564 650.197 246.701 649.545 246.713 648.654V646.879ZM255.401 647.248C253.841 646.696 252.773 645.316 252.773 643.84V642.664H251.789V643.804C251.789 645.436 250.757 646.888 249.125 647.476L249.641 648.268C250.901 647.764 251.849 646.804 252.305 645.544C252.773 646.672 253.697 647.572 254.873 648.028L255.401 647.248ZM250.769 649.876H256.985V652.9H257.981V649.084H250.769V649.876ZM256.985 642.136V644.38H254.645V645.184H256.985V648.484H257.981V642.136H256.985Z" fill="#666666"/>
<rect x="192.5" y="631.5" width="79" height="32" rx="3.5" stroke="#E2E2E2"/>
<path d="M297.285 649.135H298.469V650.02H297.285V652H296.195V650.02H292.311V649.381L296.131 643.469H297.285V649.135ZM293.541 649.135H296.195V644.951L296.066 645.186L293.541 649.135ZM308.59 643.696H304.738V642.292H303.754V643.696H299.854V644.5H308.59V643.696ZM301.702 647.272C301.702 646.48 302.674 646 304.246 646C305.794 646 306.754 646.48 306.754 647.272C306.754 648.076 305.794 648.556 304.246 648.556C302.674 648.556 301.702 648.076 301.702 647.272ZM304.738 650.824V649.312C306.61 649.192 307.75 648.472 307.75 647.272C307.75 645.976 306.394 645.232 304.246 645.232C302.062 645.232 300.706 645.976 300.706 647.272C300.706 648.472 301.858 649.204 303.754 649.312V650.824H299.374V651.628H309.13V650.824H304.738ZM314.013 644.776H316.401V643.984H314.013V642.316H313.029V643.984H310.605V644.776H313.041V645.616C313.041 647.476 311.889 649.3 310.317 650.068L310.869 650.812C312.093 650.212 313.077 648.964 313.533 647.488C313.989 648.868 314.901 650.044 316.077 650.62L316.629 649.852C315.081 649.108 314.013 647.344 314.013 645.616V644.776ZM320.469 646.552H318.693V642.124H317.709V652.888H318.693V647.368H320.469V646.552Z" fill="#666666"/>
<path d="M329.299 652H323.709V651.221L326.662 647.939C327.1 647.443 327.4 647.041 327.564 646.732C327.732 646.42 327.816 646.098 327.816 645.766C327.816 645.32 327.682 644.955 327.412 644.67C327.143 644.385 326.783 644.242 326.334 644.242C325.795 644.242 325.375 644.396 325.074 644.705C324.777 645.01 324.629 645.436 324.629 645.982H323.545C323.545 645.197 323.797 644.562 324.301 644.078C324.809 643.594 325.486 643.352 326.334 643.352C327.127 643.352 327.754 643.561 328.215 643.979C328.676 644.393 328.906 644.945 328.906 645.637C328.906 646.477 328.371 647.477 327.301 648.637L325.016 651.115H329.299V652ZM336.037 652H330.447V651.221L333.4 647.939C333.838 647.443 334.139 647.041 334.303 646.732C334.471 646.42 334.555 646.098 334.555 645.766C334.555 645.32 334.42 644.955 334.15 644.67C333.881 644.385 333.521 644.242 333.072 644.242C332.533 644.242 332.113 644.396 331.812 644.705C331.516 645.01 331.367 645.436 331.367 645.982H330.283C330.283 645.197 330.535 644.562 331.039 644.078C331.547 643.594 332.225 643.352 333.072 643.352C333.865 643.352 334.492 643.561 334.953 643.979C335.414 644.393 335.645 644.945 335.645 645.637C335.645 646.477 335.109 647.477 334.039 648.637L331.754 651.115H336.037V652ZM343.401 647.248C341.841 646.696 340.773 645.316 340.773 643.84V642.664H339.789V643.804C339.789 645.436 338.757 646.888 337.125 647.476L337.641 648.268C338.901 647.764 339.849 646.804 340.305 645.544C340.773 646.672 341.697 647.572 342.873 648.028L343.401 647.248ZM338.769 649.876H344.985V652.9H345.981V649.084H338.769V649.876ZM344.985 642.136V644.38H342.645V645.184H344.985V648.484H345.981V642.136H344.985Z" fill="#666666"/>
<rect x="280.5" y="631.5" width="79" height="32" rx="3.5" stroke="#E2E2E2"/>
<path d="M31.808 108.712H34.544V114.88H36.44V101.248H34.544V107.104H31.808V101.656H29.936V114.088H31.808V108.712ZM29.072 103.816H24.608V101.416H22.664V103.816H18.152V105.376H29.096L29.072 103.816ZM20.816 110.176C20.816 108.856 21.944 107.968 23.648 107.968C25.328 107.968 26.48 108.856 26.48 110.176C26.48 111.52 25.328 112.408 23.648 112.408C21.944 112.408 20.816 111.52 20.816 110.176ZM28.232 110.176C28.232 107.968 26.36 106.504 23.648 106.504C20.936 106.504 19.04 107.968 19.04 110.176C19.04 112.432 20.936 113.872 23.648 113.872C26.36 113.872 28.232 112.432 28.232 110.176ZM29.36 121.24C26.072 121.24 24.104 120.424 24.104 119.008C24.104 117.568 26.072 116.752 29.36 116.752C32.624 116.752 34.592 117.568 34.592 119.008C34.592 120.424 32.624 121.24 29.36 121.24ZM29.36 115.24C24.872 115.24 22.16 116.584 22.16 119.008C22.16 121.408 24.872 122.752 29.36 122.752C33.848 122.752 36.56 121.408 36.56 119.008C36.56 116.584 33.848 115.24 29.36 115.24ZM46.3741 103.12H44.4301V106.984C44.4301 110.896 41.9821 115.024 38.8861 116.608L40.0621 118.192C42.4861 116.896 44.4781 114.208 45.4141 111.064C46.3981 114.016 48.3421 116.536 50.6221 117.76L51.8461 116.2C48.8221 114.688 46.3741 110.776 46.3741 106.984V103.12ZM59.2621 109.984H55.7101V101.272H53.7421V122.776H55.7101V111.616H59.2621V109.984ZM72.5082 111.664C69.3402 110.608 67.3002 108.088 67.3002 105.28V104.44H72.0522V102.856H60.5082V104.44H65.3322V105.28C65.3322 108.376 63.1722 111.16 59.9322 112.288L60.9402 113.848C63.5082 112.936 65.4522 111.016 66.3642 108.568C67.2762 110.704 69.1242 112.408 71.5722 113.2L72.5082 111.664ZM69.8922 121.192C66.6762 121.192 64.7562 120.304 64.7562 118.768C64.7562 117.256 66.6762 116.368 69.8922 116.368C73.0602 116.368 75.0042 117.256 75.0042 118.768C75.0042 120.304 73.0602 121.192 69.8922 121.192ZM69.8922 114.808C65.4762 114.808 62.7882 116.272 62.7882 118.768C62.7882 121.288 65.4762 122.752 69.8922 122.752C74.2602 122.752 76.9722 121.288 76.9722 118.768C76.9722 116.272 74.2602 114.808 69.8922 114.808ZM76.7322 106.696V101.272H74.7642V114.256H76.7322V108.352H79.9242V106.696H76.7322ZM94.4424 108.712H97.1784V114.88H99.0744V101.248H97.1784V107.104H94.4424V101.656H92.5704V114.088H94.4424V108.712ZM91.7064 103.816H87.2424V101.416H85.2984V103.816H80.7864V105.376H91.7304L91.7064 103.816ZM83.4504 110.176C83.4504 108.856 84.5784 107.968 86.2824 107.968C87.9624 107.968 89.1144 108.856 89.1144 110.176C89.1144 111.52 87.9624 112.408 86.2824 112.408C84.5784 112.408 83.4504 111.52 83.4504 110.176ZM90.8664 110.176C90.8664 107.968 88.9944 106.504 86.2824 106.504C83.5704 106.504 81.6744 107.968 81.6744 110.176C81.6744 112.432 83.5704 113.872 86.2824 113.872C88.9944 113.872 90.8664 112.432 90.8664 110.176ZM91.9944 121.24C88.7064 121.24 86.7384 120.424 86.7384 119.008C86.7384 117.568 88.7064 116.752 91.9944 116.752C95.2584 116.752 97.2264 117.568 97.2264 119.008C97.2264 120.424 95.2584 121.24 91.9944 121.24ZM91.9944 115.24C87.5064 115.24 84.7944 116.584 84.7944 119.008C84.7944 121.408 87.5064 122.752 91.9944 122.752C96.4824 122.752 99.1944 121.408 99.1944 119.008C99.1944 116.584 96.4824 115.24 91.9944 115.24ZM115.802 113.008C115.922 112.24 115.994 111.448 115.994 110.536C115.994 109.624 115.922 108.832 115.802 108.064H118.73V113.008H115.802ZM111.386 116.224C109.682 116.224 108.578 114.04 108.578 110.536C108.578 107.056 109.682 104.872 111.386 104.872C113.114 104.872 114.194 107.056 114.194 110.536C114.194 114.04 113.114 116.224 111.386 116.224ZM118.73 106.456H115.394C114.65 104.296 113.258 103.048 111.386 103.048C108.602 103.048 106.802 105.928 106.802 110.536C106.802 115.168 108.602 118.048 111.386 118.048C113.258 118.048 114.626 116.8 115.394 114.64H118.73V121.72H120.602V101.728H118.73V106.456ZM122.954 101.248V122.776H124.826V101.248H122.954ZM129.744 107.632C129.744 105.592 131.28 104.2 133.44 104.2C135.576 104.2 137.136 105.592 137.136 107.632C137.136 109.648 135.576 111.064 133.44 111.064C131.28 111.064 129.744 109.648 129.744 107.632ZM139.056 107.632C139.056 104.608 136.68 102.544 133.44 102.544C130.176 102.544 127.824 104.608 127.824 107.632C127.824 110.632 130.176 112.72 133.44 112.72C136.68 112.72 139.056 110.632 139.056 107.632ZM130.128 116.656H142.152V122.776H144.12V115.048H130.128V116.656ZM147.24 106.168V104.536H144.12V101.272H142.152V114.04H144.12V110.752H147.24V109.144H144.12V106.168H147.24ZM154.606 116.344C152.662 116.344 151.246 114.952 151.246 113.032C151.246 111.088 152.662 109.696 154.606 109.696C156.574 109.696 157.99 111.088 157.99 113.032C157.99 114.952 156.574 116.344 154.606 116.344ZM154.606 108.064C151.582 108.064 149.398 110.128 149.398 113.032C149.398 115.96 151.582 117.976 154.606 117.976C157.678 117.976 159.862 115.96 159.862 113.032C159.862 110.128 157.678 108.064 154.606 108.064ZM155.566 101.512H153.598V104.704H148.174V106.288H160.87V104.704H155.566V101.512ZM168.406 110.104H164.878V101.272H162.91V122.776H164.878V111.76H168.406V110.104ZM170.444 103.576V105.16H178.532C178.124 110.272 175.244 114.4 169.46 117.16L170.516 118.768C177.668 115.264 180.524 109.792 180.524 103.576H170.444ZM184.868 101.248V122.776H186.836V101.248H184.868Z" fill="#121212"/>
<circle cx="339" cy="113" r="4" fill="#C4C4C4"/>
<circle cx="355" cy="113" r="4" fill="#C4C4C4"/>
<circle cx="323" cy="113" r="4" fill="#C4C4C4"/>
<circle cx="307" cy="113" r="4" fill="#C4C4C4"/>
<circle cx="287" cy="113" r="8" fill="#A71596"/>
<path d="M287.936 116H286.666V111.104L285.15 111.575V110.542L287.8 109.593H287.936V116Z" fill="white"/>
</g>
<defs>
<clipPath id="clip0_304_465">
<rect width="375" height="800" fill="white"/>
</clipPath>
</defs>
</svg>
