<svg width="375" height="812" viewBox="0 0 375 812" fill="none" xmlns="http://www.w3.org/2000/svg">
<g clip-path="url(#clip0_304_465)">
<rect width="375" height="812" fill="white"/>
<rect x="16" y="778" width="344" height="136" fill="#F5F5F5"/>
<path d="M40.588 801.584V802.4H50.428V801.584H40.588ZM45.076 802.1V804.596H46.084V802.1H45.076ZM41.836 805.868V806.696H49.336V805.868H41.836ZM41.836 803.528V806.096H42.832V803.528H41.836ZM45.496 796.352C43.192 796.352 41.692 797.192 41.692 798.536C41.692 799.88 43.192 800.72 45.496 800.72C47.788 800.72 49.3 799.88 49.3 798.536C49.3 797.192 47.788 796.352 45.496 796.352ZM45.496 797.168C47.152 797.168 48.244 797.696 48.244 798.536C48.244 799.388 47.152 799.904 45.496 799.904C43.84 799.904 42.748 799.388 42.748 798.536C42.748 797.696 43.84 797.168 45.496 797.168ZM59.8231 796.088V802.952H60.7711V796.088H59.8231ZM58.0591 799.028V799.856H60.1111V799.028H58.0591ZM57.5071 796.304V802.568H58.4431V796.304H57.5071ZM51.5791 797.384V798.176H57.0751V797.384H51.5791ZM54.3391 798.728C52.9711 798.728 52.0231 799.472 52.0231 800.588C52.0231 801.716 52.9711 802.448 54.3391 802.448C55.6951 802.448 56.6431 801.716 56.6431 800.588C56.6431 799.472 55.6951 798.728 54.3391 798.728ZM54.3391 799.472C55.1791 799.472 55.7551 799.916 55.7551 800.588C55.7551 801.272 55.1791 801.704 54.3391 801.704C53.4871 801.704 52.9111 801.272 52.9111 800.588C52.9111 799.916 53.4871 799.472 54.3391 799.472ZM53.8471 796.172V797.828H54.8191V796.172H53.8471ZM57.2191 803.144C54.9391 803.144 53.5951 803.816 53.5951 805.028C53.5951 806.228 54.9391 806.912 57.2191 806.912C59.4751 806.912 60.8311 806.228 60.8311 805.028C60.8311 803.816 59.4751 803.144 57.2191 803.144ZM57.2191 803.912C58.8631 803.912 59.8471 804.308 59.8471 805.028C59.8471 805.748 58.8631 806.156 57.2191 806.156C55.5511 806.156 54.5791 805.748 54.5791 805.028C54.5791 804.308 55.5511 803.912 57.2191 803.912ZM73.5507 796.088V806.936H74.5467V796.088H73.5507ZM70.3707 797.252V797.42C70.3707 800.3 68.9187 802.604 65.7867 804.116L66.3147 804.92C69.9387 803.144 71.3547 800.396 71.3547 797.252H70.3707ZM66.2787 797.252V798.068H70.8027V797.252H66.2787ZM84.1098 796.088V804.02H85.1058V796.088H84.1098ZM84.7938 799.376V800.204H86.7138V799.376H84.7938ZM81.1458 796.928V797.36C81.1458 799.448 79.4298 801.128 76.6938 801.968L77.1258 802.784C80.2338 801.788 82.2018 799.736 82.2018 796.928H81.1458ZM77.1378 796.928V797.744H81.6498V796.928H77.1378ZM78.3378 805.88V806.696H85.5858V805.88H78.3378ZM78.3378 803.216V806.204H79.3338V803.216H78.3378ZM90.7094 801.428V802.244H100.513V801.428H90.7094ZM95.1134 799.688V801.764H96.0974V799.688H95.1134ZM91.9454 799.376V800.192H99.3734V799.376H91.9454ZM91.9454 796.58V799.856H92.9294V797.384H99.2894V796.58H91.9454ZM95.5934 803.024C93.2774 803.024 91.8734 803.732 91.8734 804.968C91.8734 806.228 93.2774 806.924 95.5934 806.924C97.9094 806.924 99.3134 806.228 99.3134 804.968C99.3134 803.732 97.9094 803.024 95.5934 803.024ZM95.5934 803.792C97.2974 803.792 98.3054 804.224 98.3054 804.968C98.3054 805.724 97.2974 806.144 95.5934 806.144C93.9014 806.144 92.8814 805.724 92.8814 804.968C92.8814 804.224 93.9014 803.792 95.5934 803.792ZM109.164 796.076V804.068H110.16V796.076H109.164ZM109.848 799.376V800.204H111.768V799.376H109.848ZM103.404 805.88V806.696H110.652V805.88H103.404ZM103.404 803.252V806.204H104.4V803.252H103.404ZM104.772 796.844C103.152 796.844 101.94 797.96 101.94 799.52C101.94 801.092 103.152 802.196 104.772 802.196C106.392 802.196 107.604 801.092 107.604 799.52C107.604 797.96 106.392 796.844 104.772 796.844ZM104.772 797.72C105.828 797.72 106.632 798.464 106.632 799.52C106.632 800.588 105.828 801.32 104.772 801.32C103.716 801.32 102.912 800.588 102.912 799.52C102.912 798.464 103.716 797.72 104.772 797.72ZM119.436 797.422V806H118.352V798.775L116.166 799.572V798.594L119.266 797.422H119.436ZM125.598 802.592V804.38H126.606V802.592H125.598ZM130.35 796.088V806.936H131.346V796.088H130.35ZM122.706 804.872C124.71 804.872 127.326 804.848 129.738 804.44L129.666 803.708C127.326 804.008 124.626 804.032 122.574 804.044L122.706 804.872ZM122.802 797.408V798.212H129.39V797.408H122.802ZM126.09 798.836C124.542 798.836 123.486 799.628 123.486 800.84C123.486 802.064 124.542 802.844 126.09 802.844C127.65 802.844 128.706 802.064 128.706 800.84C128.706 799.628 127.65 798.836 126.09 798.836ZM126.09 799.604C127.074 799.604 127.758 800.096 127.758 800.84C127.758 801.584 127.074 802.076 126.09 802.076C125.118 802.076 124.434 801.584 124.434 800.84C124.434 800.096 125.118 799.604 126.09 799.604ZM125.598 796.088V797.852H126.594V796.088H125.598ZM134.764 804.711V805.584C134.764 805.939 134.674 806.314 134.494 806.709C134.314 807.107 134.062 807.439 133.738 807.705L133.123 807.277C133.248 807.105 133.354 806.93 133.439 806.75C133.525 806.574 133.59 806.391 133.633 806.199C133.68 806.012 133.703 805.812 133.703 805.602V804.711H134.764ZM141.981 802.592V804.38H142.989V802.592H141.981ZM146.733 796.088V806.936H147.729V796.088H146.733ZM139.089 804.872C141.093 804.872 143.709 804.848 146.121 804.44L146.049 803.708C143.709 804.008 141.009 804.032 138.957 804.044L139.089 804.872ZM139.185 797.408V798.212H145.773V797.408H139.185ZM142.473 798.836C140.925 798.836 139.869 799.628 139.869 800.84C139.869 802.064 140.925 802.844 142.473 802.844C144.033 802.844 145.089 802.064 145.089 800.84C145.089 799.628 144.033 798.836 142.473 798.836ZM142.473 799.604C143.457 799.604 144.141 800.096 144.141 800.84C144.141 801.584 143.457 802.076 142.473 802.076C141.501 802.076 140.817 801.584 140.817 800.84C140.817 800.096 141.501 799.604 142.473 799.604ZM141.981 796.088V797.852H142.977V796.088H141.981ZM157.364 796.088V802.532H158.36V796.088H157.364ZM158.072 798.908V799.736H159.956V798.908H158.072ZM154.892 802.76C152.696 802.76 151.328 803.54 151.328 804.848C151.328 806.156 152.696 806.924 154.892 806.924C157.088 806.924 158.456 806.156 158.456 804.848C158.456 803.54 157.088 802.76 154.892 802.76ZM154.892 803.576C156.5 803.576 157.484 804.032 157.484 804.848C157.484 805.64 156.5 806.108 154.892 806.108C153.284 806.108 152.3 805.64 152.3 804.848C152.3 804.032 153.284 803.576 154.892 803.576ZM150.416 800.864V801.68H151.256C153.548 801.68 154.832 801.608 156.332 801.308L156.212 800.492C154.76 800.792 153.5 800.864 151.256 800.864H150.416ZM150.416 796.916V801.392H151.4V797.732H155.204V796.916H150.416ZM169.826 803.129V804.02H163.662V803.381L167.482 797.469H168.367L167.418 799.18L164.893 803.129H169.826ZM168.637 797.469V806H167.553V797.469H168.637ZM173.486 797.384V798.02C173.486 799.496 172.358 800.78 170.75 801.296L171.242 802.076C173.054 801.476 174.302 799.928 174.302 798.02V797.384H173.486ZM173.666 797.384V798.02C173.666 799.832 174.878 801.32 176.678 801.896L177.146 801.116C175.562 800.624 174.482 799.4 174.482 798.02V797.384H173.666ZM171.074 797.084V797.912H176.882V797.084H171.074ZM173.486 801.62V804.14H174.482V801.62H173.486ZM178.742 800.588V801.428H180.746V800.588H178.742ZM178.034 796.088V806.936H179.03V796.088H178.034ZM170.702 804.668C172.574 804.68 175.118 804.668 177.434 804.26L177.35 803.516C175.118 803.84 172.478 803.84 170.57 803.84L170.702 804.668ZM187.309 798.356V799.184H189.877V798.356H187.309ZM184.441 796.64V797.768C184.441 799.424 183.385 800.876 181.753 801.476L182.269 802.268C184.093 801.572 185.257 799.856 185.257 797.768V796.64H184.441ZM184.621 796.64V797.816C184.621 799.724 185.797 801.368 187.537 802.028L188.065 801.248C186.505 800.696 185.425 799.304 185.425 797.816V796.64H184.621ZM183.421 803.096V803.9H189.661V806.936H190.657V803.096H183.421ZM189.661 796.088V802.496H190.657V796.088H189.661ZM200.304 796.088V806.936H201.288V796.088H200.304ZM200.976 800.552V801.392H202.908V800.552H200.976ZM195.108 797.252V797.36C195.108 799.82 194.508 802.076 192.72 803.936L193.524 804.5C195.468 802.4 196.02 799.868 196.02 797.252H195.108ZM193.068 797.252V798.08H195.48V797.252H193.068ZM198.06 797.252V797.348C198.06 799.856 197.652 802.544 195.816 804.668L196.62 805.22C198.612 802.856 198.984 799.88 198.984 797.252H198.06ZM196.368 797.252V798.08H198.468V797.252H196.368ZM206.687 797.636V799.4C206.687 801.272 205.379 803.312 203.807 804.056L204.383 804.848C206.111 803.996 207.491 801.692 207.491 799.4V797.636H206.687ZM206.879 797.636V799.4C206.879 801.656 208.271 803.768 210.023 804.584L210.587 803.792C208.991 803.108 207.683 801.236 207.683 799.4V797.636H206.879ZM204.167 797.192V798.032H210.227V797.192H204.167ZM211.691 796.088V806.936H212.687V796.088H211.691ZM222.154 798.704V799.532H224.266V798.704H222.154ZM222.154 802.004V802.832H224.266V802.004H222.154ZM226.09 796.088V806.936H227.05V796.088H226.09ZM223.966 796.316V806.396H224.902V796.316H223.966ZM220.27 796.988C218.866 796.988 217.966 798.44 217.966 800.768C217.966 803.096 218.866 804.548 220.27 804.548C221.674 804.548 222.586 803.096 222.586 800.768C222.586 798.44 221.674 796.988 220.27 796.988ZM220.27 797.912C221.134 797.912 221.674 799.016 221.674 800.768C221.674 802.52 221.134 803.624 220.27 803.624C219.418 803.624 218.866 802.52 218.866 800.768C218.866 799.016 219.418 797.912 220.27 797.912ZM236.985 797.732V798.572H238.869V797.732H236.985ZM236.985 800.06V800.888H238.869V800.06H236.985ZM236.289 796.088V802.532H237.285V796.088H236.289ZM230.241 803.048V803.852H236.289V806.936H237.285V803.048H230.241ZM231.897 796.724C230.265 796.724 229.065 797.78 229.065 799.304C229.065 800.816 230.265 801.86 231.897 801.86C233.529 801.86 234.729 800.816 234.729 799.304C234.729 797.78 233.529 796.724 231.897 796.724ZM231.897 797.576C232.977 797.576 233.757 798.272 233.757 799.304C233.757 800.324 232.977 801.032 231.897 801.032C230.817 801.032 230.037 800.324 230.037 799.304C230.037 798.272 230.817 797.576 231.897 797.576ZM250.221 796.076V806.936H251.229V796.076H250.221ZM250.953 800.48V801.308H252.957V800.48H250.953ZM247.449 797.252V797.408C247.449 800.276 245.949 802.592 242.949 804.116L243.501 804.884C247.005 803.12 248.421 800.336 248.421 797.252H247.449ZM243.453 797.252V798.068H247.965V797.252H243.453ZM255.26 799.1V799.916H262.616V799.1H255.26ZM255.26 796.304V799.46H256.244V796.304H255.26ZM253.928 801.176V801.98H263.732V801.176H253.928ZM258.812 802.952C256.496 802.952 255.092 803.66 255.092 804.932C255.092 806.18 256.496 806.9 258.812 806.9C261.128 806.9 262.532 806.18 262.532 804.932C262.532 803.66 261.128 802.952 258.812 802.952ZM258.812 803.732C260.516 803.732 261.524 804.164 261.524 804.932C261.524 805.676 260.516 806.108 258.812 806.108C257.12 806.108 256.1 805.676 256.1 804.932C256.1 804.164 257.12 803.732 258.812 803.732ZM272.383 796.088V802.388H273.379V796.088H272.383ZM272.947 798.848V799.688H274.987V798.848H272.947ZM266.563 802.868V806.792H273.379V802.868H272.395V804.02H267.535V802.868H266.563ZM267.535 804.788H272.395V805.988H267.535V804.788ZM264.991 797.192V798.008H271.399V797.192H264.991ZM268.195 798.5C266.635 798.5 265.591 799.256 265.591 800.408C265.591 801.56 266.635 802.316 268.195 802.316C269.743 802.316 270.787 801.56 270.787 800.408C270.787 799.256 269.743 798.5 268.195 798.5ZM268.195 799.256C269.167 799.256 269.839 799.712 269.839 800.408C269.839 801.104 269.167 801.56 268.195 801.56C267.199 801.56 266.539 801.104 266.539 800.408C266.539 799.712 267.199 799.256 268.195 799.256ZM267.691 795.98V797.636H268.687V795.98H267.691ZM283.89 796.088V806.936H284.886V796.088H283.89ZM276.69 797.144V803.864H277.674V797.144H276.69ZM276.69 803.276V804.14H277.578C279.294 804.14 281.01 804.008 282.894 803.624L282.774 802.772C280.938 803.156 279.222 803.276 277.578 803.276H276.69ZM294.377 796.076V806.948H295.385V796.076H294.377ZM295.145 800.36V801.2H297.161V800.36H295.145ZM287.501 803.408V804.248H288.353C290.393 804.248 291.821 804.188 293.489 803.876L293.381 803.036C291.761 803.336 290.357 803.408 288.353 803.408H287.501ZM287.501 797.132V803.78H288.485V797.948H292.541V797.132H287.501ZM298.328 805.426C298.328 805.242 298.385 805.088 298.498 804.963C298.615 804.834 298.783 804.77 299.002 804.77C299.221 804.77 299.387 804.834 299.5 804.963C299.617 805.088 299.676 805.242 299.676 805.426C299.676 805.605 299.617 805.758 299.5 805.883C299.387 806.008 299.221 806.07 299.002 806.07C298.783 806.07 298.615 806.008 298.498 805.883C298.385 805.758 298.328 805.605 298.328 805.426Z" fill="#666666"/>
<circle cx="34" cy="802" r="2" fill="#C4C4C4"/>
<rect y="44" width="375" height="45" fill="white"/>
<path d="M25 58.5L17.5 66L25 73.5" stroke="black" stroke-width="2" stroke-linecap="round"/>
<path d="M17.5 66H38.5" stroke="black" stroke-width="2" stroke-linecap="round"/>
<path d="M304.996 65.944V70.48H306.604V65.944H304.996ZM310.156 59.956V71.068H311.752V59.956H310.156ZM302.428 66.34C304.6 66.328 307.192 66.28 309.652 65.92L309.532 64.744C307.132 65.008 304.444 65.044 302.236 65.044L302.428 66.34ZM303.136 60.712V61.996H307.492V60.712H303.136ZM306.916 60.712V61.348C306.916 62.188 306.916 63.412 306.568 65.176L308.152 65.296C308.5 63.496 308.5 62.212 308.5 61.348V60.712H306.916ZM320.439 59.944V71.056H322.047V59.944H320.439ZM321.627 64.192V65.5H323.583V64.192H321.627ZM317.523 61.096V61.372C317.523 64.384 316.143 66.424 313.227 67.936L314.115 69.148C317.811 67.288 319.083 64.432 319.083 61.096H317.523ZM313.839 61.096V62.38H318.339V61.096H313.839ZM332.331 59.956V66.916H333.843V59.956H332.331ZM330.975 62.692V63.988H332.751V62.692H330.975ZM330.027 60.172V66.556H331.515V60.172H330.027ZM324.327 61.096V62.32H329.715V61.096H324.327ZM327.039 62.68C325.647 62.68 324.639 63.472 324.639 64.624C324.639 65.776 325.647 66.556 327.039 66.556C328.431 66.556 329.439 65.776 329.439 64.624C329.439 63.472 328.431 62.68 327.039 62.68ZM327.039 63.82C327.615 63.82 328.011 64.108 328.011 64.624C328.011 65.14 327.615 65.428 327.039 65.428C326.451 65.428 326.055 65.14 326.055 64.624C326.055 64.108 326.451 63.82 327.039 63.82ZM326.235 60.064V61.936H327.807V60.064H326.235ZM330.087 67.036C327.699 67.036 326.259 67.756 326.259 69.052C326.259 70.336 327.699 71.068 330.087 71.068C332.463 71.068 333.903 70.336 333.903 69.052C333.903 67.756 332.463 67.036 330.087 67.036ZM330.087 68.224C331.563 68.224 332.307 68.476 332.307 69.052C332.307 69.616 331.563 69.88 330.087 69.88C328.599 69.88 327.855 69.616 327.855 69.052C327.855 68.476 328.599 68.224 330.087 68.224ZM342.818 62.404V63.688H344.666V62.404H342.818ZM342.818 65.836V67.132H344.666V65.836H342.818ZM346.43 59.956V71.068H347.954V59.956H346.43ZM344.21 60.124V70.564H345.698V60.124H344.21ZM340.898 60.736C339.434 60.736 338.498 62.26 338.498 64.768C338.498 67.288 339.434 68.812 340.898 68.812C342.374 68.812 343.322 67.288 343.322 64.768C343.322 62.26 342.374 60.736 340.898 60.736ZM340.898 62.236C341.522 62.236 341.882 63.076 341.882 64.768C341.882 66.472 341.522 67.3 340.898 67.3C340.286 67.3 339.926 66.472 339.926 64.768C339.926 63.076 340.286 62.236 340.898 62.236ZM357.697 61.396V62.704H359.617V61.396H357.697ZM357.697 63.808V65.116H359.617V63.808H357.697ZM356.593 59.956V66.508H358.189V59.956H356.593ZM350.773 66.964V68.236H356.593V71.068H358.189V66.964H350.773ZM352.537 60.556C350.821 60.556 349.513 61.696 349.513 63.28C349.513 64.864 350.821 65.992 352.537 65.992C354.253 65.992 355.561 64.864 355.561 63.28C355.561 61.696 354.253 60.556 352.537 60.556ZM352.537 61.912C353.377 61.912 354.001 62.404 354.001 63.28C354.001 64.156 353.377 64.66 352.537 64.66C351.697 64.66 351.073 64.156 351.073 63.28C351.073 62.404 351.697 61.912 352.537 61.912Z" fill="#A71596"/>
<line y1="709.5" x2="375" y2="709.5" stroke="#E2E2E2"/>
<line y1="757.5" x2="375" y2="757.5" stroke="#E2E2E2"/>
<path d="M19.4268 734.263L18.415 734.003L18.9141 729.047H24.0205V730.216H19.9873L19.6865 732.923C19.8688 732.818 20.099 732.72 20.377 732.629C20.6595 732.538 20.9831 732.492 21.3477 732.492C21.8079 732.492 22.2204 732.572 22.585 732.731C22.9495 732.886 23.2594 733.11 23.5146 733.401C23.7744 733.693 23.9727 734.044 24.1094 734.454C24.2461 734.864 24.3145 735.322 24.3145 735.828C24.3145 736.307 24.2484 736.746 24.1162 737.147C23.9886 737.549 23.7949 737.899 23.5352 738.2C23.2754 738.496 22.9473 738.727 22.5508 738.891C22.1589 739.055 21.6963 739.137 21.1631 739.137C20.762 739.137 20.3815 739.082 20.0215 738.973C19.666 738.859 19.347 738.688 19.0645 738.46C18.7865 738.228 18.5586 737.94 18.3809 737.599C18.2077 737.252 18.0983 736.847 18.0527 736.382H19.2559C19.3105 736.756 19.4199 737.07 19.584 737.325C19.748 737.58 19.9622 737.774 20.2266 737.906C20.4954 738.034 20.8076 738.098 21.1631 738.098C21.4639 738.098 21.7305 738.045 21.9629 737.94C22.1953 737.836 22.3913 737.685 22.5508 737.489C22.7103 737.293 22.8311 737.056 22.9131 736.778C22.9997 736.5 23.043 736.188 23.043 735.842C23.043 735.527 22.9997 735.236 22.9131 734.967C22.8265 734.698 22.6966 734.463 22.5234 734.263C22.3548 734.062 22.1475 733.907 21.9014 733.798C21.6553 733.684 21.3727 733.627 21.0537 733.627C20.6299 733.627 20.3086 733.684 20.0898 733.798C19.8757 733.912 19.6546 734.067 19.4268 734.263ZM28.963 732.672V734.926H30.125V732.672H28.963ZM34.773 727.436V734.884H35.935V727.436H34.773ZM25.673 733.064C28.039 733.064 31.063 733.036 33.835 732.63L33.765 731.874C31.063 732.182 27.969 732.196 25.533 732.196L25.673 733.064ZM27.451 735.346V736.186H34.787V737.208H27.479V739.406H28.613V737.978H35.935V735.346H27.451ZM27.479 739.112V739.952H36.355V739.112H27.479ZM32.253 733.456V734.212H35.137V733.456H32.253ZM29.621 727.674C27.731 727.674 26.499 728.402 26.499 729.578C26.499 730.754 27.731 731.482 29.621 731.482C31.497 731.482 32.729 730.754 32.729 729.578C32.729 728.402 31.497 727.674 29.621 727.674ZM29.621 728.486C30.839 728.486 31.637 728.906 31.637 729.578C31.637 730.25 30.839 730.67 29.621 730.67C28.375 730.67 27.577 730.25 27.577 729.578C27.577 728.906 28.375 728.486 29.621 728.486ZM46.21 728.992V739H44.9453V730.571L42.3955 731.501V730.359L46.0117 728.992H46.21ZM51.5283 734.263L50.5166 734.003L51.0156 729.047H56.1221V730.216H52.0889L51.7881 732.923C51.9704 732.818 52.2005 732.72 52.4785 732.629C52.7611 732.538 53.0846 732.492 53.4492 732.492C53.9095 732.492 54.3219 732.572 54.6865 732.731C55.0511 732.886 55.361 733.11 55.6162 733.401C55.876 733.693 56.0742 734.044 56.2109 734.454C56.3477 734.864 56.416 735.322 56.416 735.828C56.416 736.307 56.3499 736.746 56.2178 737.147C56.0902 737.549 55.8965 737.899 55.6367 738.2C55.377 738.496 55.0488 738.727 54.6523 738.891C54.2604 739.055 53.7979 739.137 53.2646 739.137C52.8636 739.137 52.4831 739.082 52.123 738.973C51.7676 738.859 51.4486 738.688 51.166 738.46C50.888 738.228 50.6602 737.94 50.4824 737.599C50.3092 737.252 50.1999 736.847 50.1543 736.382H51.3574C51.4121 736.756 51.5215 737.07 51.6855 737.325C51.8496 737.58 52.0638 737.774 52.3281 737.906C52.597 738.034 52.9092 738.098 53.2646 738.098C53.5654 738.098 53.832 738.045 54.0645 737.94C54.2969 737.836 54.4928 737.685 54.6523 737.489C54.8118 737.293 54.9326 737.056 55.0146 736.778C55.1012 736.5 55.1445 736.188 55.1445 735.842C55.1445 735.527 55.1012 735.236 55.0146 734.967C54.9281 734.698 54.7982 734.463 54.625 734.263C54.4564 734.062 54.249 733.907 54.0029 733.798C53.7568 733.684 53.4743 733.627 53.1553 733.627C52.7314 733.627 52.4102 733.684 52.1914 733.798C51.9772 733.912 51.7562 734.067 51.5283 734.263ZM61.2186 727.898C59.3426 727.898 57.9566 729.046 57.9566 730.712C57.9566 732.364 59.3426 733.512 61.2186 733.512C63.1086 733.512 64.4946 732.364 64.4946 730.712C64.4946 729.046 63.1086 727.898 61.2186 727.898ZM61.2186 728.85C62.4506 728.85 63.3606 729.62 63.3606 730.712C63.3606 731.804 62.4506 732.56 61.2186 732.56C60.0006 732.56 59.0766 731.804 59.0766 730.712C59.0766 729.62 60.0006 728.85 61.2186 728.85ZM66.8746 727.436V733.918H68.0506V727.436H66.8746ZM59.8606 734.534V735.472H66.9026V736.746H59.8886V739.518H61.0226V737.614H68.0506V734.534H59.8606ZM59.8886 739V739.924H68.4706V739H59.8886ZM70.7715 735.021V734.953C70.7715 733.96 70.8831 733.062 71.1064 732.26C71.3298 731.453 71.6146 730.747 71.9609 730.141C72.3073 729.535 72.6719 729.033 73.0547 728.637C73.4375 728.236 73.7907 727.946 74.1143 727.769L74.3809 728.603C74.112 728.808 73.8385 729.09 73.5605 729.45C73.2871 729.81 73.0342 730.252 72.8018 730.776C72.5739 731.3 72.3893 731.909 72.248 732.602C72.1068 733.294 72.0361 734.074 72.0361 734.939V735.035C72.0361 735.901 72.1068 736.683 72.248 737.38C72.3893 738.073 72.5739 738.683 72.8018 739.212C73.0342 739.741 73.2871 740.189 73.5605 740.559C73.8385 740.932 74.112 741.229 74.3809 741.447L74.1143 742.213C73.7907 742.035 73.4375 741.746 73.0547 741.345C72.6719 740.948 72.3073 740.447 71.9609 739.841C71.6146 739.239 71.3298 738.535 71.1064 737.729C70.8831 736.922 70.7715 736.02 70.7715 735.021ZM78.8963 727.898C77.0203 727.898 75.6343 729.046 75.6343 730.712C75.6343 732.364 77.0203 733.512 78.8963 733.512C80.7863 733.512 82.1723 732.364 82.1723 730.712C82.1723 729.046 80.7863 727.898 78.8963 727.898ZM78.8963 728.85C80.1283 728.85 81.0383 729.62 81.0383 730.712C81.0383 731.804 80.1283 732.56 78.8963 732.56C77.6783 732.56 76.7543 731.804 76.7543 730.712C76.7543 729.62 77.6783 728.85 78.8963 728.85ZM84.5523 727.436V733.918H85.7283V727.436H84.5523ZM77.5383 734.534V735.472H84.5803V736.746H77.5663V739.518H78.7003V737.614H85.7283V734.534H77.5383ZM77.5663 739V739.924H86.1483V739H77.5663ZM91.4092 734.953V735.021C91.4092 736.02 91.2975 736.922 91.0742 737.729C90.8509 738.535 90.5661 739.239 90.2197 739.841C89.8734 740.447 89.5088 740.948 89.126 741.345C88.7432 741.746 88.39 742.035 88.0664 742.213L87.7998 741.447C88.0687 741.242 88.3398 740.955 88.6133 740.586C88.8867 740.221 89.1396 739.77 89.3721 739.232C89.6045 738.699 89.7913 738.084 89.9326 737.387C90.0739 736.685 90.1445 735.901 90.1445 735.035V734.939C90.1445 734.074 90.0693 733.292 89.9189 732.595C89.7686 731.893 89.5726 731.275 89.3311 730.742C89.0941 730.209 88.8389 729.76 88.5654 729.396C88.2965 729.026 88.0413 728.742 87.7998 728.541L88.0664 727.769C88.39 727.946 88.7432 728.236 89.126 728.637C89.5088 729.033 89.8734 729.535 90.2197 730.141C90.5661 730.747 90.8509 731.453 91.0742 732.26C91.2975 733.062 91.4092 733.96 91.4092 734.953Z" fill="black"/>
<path d="M343 732L348 737L353 732" stroke="black" stroke-width="2" stroke-linecap="round"/>
<rect width="375" height="48" transform="matrix(1 0 0 -1 0 221)" fill="#F5F5F5"/>
<line y1="172.5" x2="375" y2="172.5" stroke="#E2E2E2"/>
<path d="M19.5361 197.468L17.9639 197.092L18.5312 192.047H24.123V193.64H20.1514L19.9053 195.848C20.0374 195.77 20.238 195.688 20.5068 195.602C20.7757 195.51 21.0765 195.465 21.4092 195.465C21.8923 195.465 22.3206 195.54 22.6943 195.69C23.068 195.841 23.3848 196.06 23.6445 196.347C23.9089 196.634 24.1094 196.985 24.2461 197.399C24.3828 197.814 24.4512 198.284 24.4512 198.808C24.4512 199.25 24.3828 199.671 24.2461 200.072C24.1094 200.469 23.902 200.824 23.624 201.139C23.346 201.449 22.9974 201.692 22.5781 201.87C22.1589 202.048 21.6621 202.137 21.0879 202.137C20.6595 202.137 20.2448 202.073 19.8438 201.945C19.4473 201.818 19.0895 201.629 18.7705 201.378C18.4561 201.127 18.2031 200.824 18.0117 200.469C17.8249 200.109 17.7269 199.699 17.7178 199.238H19.6729C19.7002 199.521 19.7731 199.765 19.8916 199.97C20.0146 200.17 20.1764 200.325 20.377 200.435C20.5775 200.544 20.8122 200.599 21.0811 200.599C21.3317 200.599 21.5459 200.551 21.7236 200.455C21.9014 200.359 22.0449 200.227 22.1543 200.059C22.2637 199.885 22.3434 199.685 22.3936 199.457C22.4482 199.225 22.4756 198.974 22.4756 198.705C22.4756 198.436 22.4437 198.192 22.3799 197.974C22.3161 197.755 22.2181 197.566 22.0859 197.406C21.9538 197.247 21.7852 197.124 21.5801 197.037C21.3796 196.951 21.1449 196.907 20.876 196.907C20.5114 196.907 20.2288 196.964 20.0283 197.078C19.8324 197.192 19.6683 197.322 19.5361 197.468ZM28.7351 195.546V197.8H30.5971V195.546H28.7351ZM34.6571 190.282V197.786H36.5191V190.282H34.6571ZM25.8091 196.12C28.2311 196.134 31.1851 196.106 33.9991 195.714L33.9011 194.566C31.1711 194.832 28.1051 194.832 25.6131 194.832L25.8091 196.12ZM27.4471 198.178V199.438H34.6711V200.054H27.4751V202.238H29.3091V201.216H36.5191V198.178H27.4471ZM27.4751 201.888V203.162H36.8131V201.888H27.4751ZM32.3611 196.288V197.394H35.2311V196.288H32.3611ZM29.7291 190.464C27.7831 190.464 26.4811 191.234 26.4811 192.41C26.4811 193.6 27.7831 194.356 29.7291 194.356C31.6611 194.356 32.9631 193.6 32.9631 192.41C32.9631 191.234 31.6611 190.464 29.7291 190.464ZM29.7291 191.682C30.6531 191.682 31.2271 191.934 31.2271 192.41C31.2271 192.886 30.6531 193.124 29.7291 193.124C28.7911 193.124 28.2171 192.886 28.2171 192.41C28.2171 191.934 28.7911 191.682 29.7291 191.682ZM46.8867 192.026V202H44.918V194.296L42.5527 195.048V193.496L46.6748 192.026H46.8867ZM57.0996 198.281V199.826H49.9287L49.833 198.63L53.9824 192.047H55.5479L53.8525 194.884L51.7881 198.281H57.0996ZM55.9717 192.047V202H54.0029V192.047H55.9717ZM61.6964 190.66C59.7224 190.66 58.2384 191.892 58.2384 193.628C58.2384 195.35 59.7224 196.582 61.6964 196.582C63.6704 196.582 65.1544 195.35 65.1544 193.628C65.1544 191.892 63.6704 190.66 61.6964 190.66ZM61.6964 192.172C62.6484 192.172 63.3484 192.704 63.3484 193.628C63.3484 194.552 62.6484 195.084 61.6964 195.084C60.7444 195.084 60.0304 194.552 60.0304 193.628C60.0304 192.704 60.7444 192.172 61.6964 192.172ZM66.9464 190.282V196.764H68.8224V190.282H66.9464ZM60.1704 197.296V198.738H66.9744V199.508H60.1984V202.42H62.0184V200.852H68.8224V197.296H60.1704ZM60.1984 201.664V203.106H69.1444V201.664H60.1984ZM71.2158 198.104V197.953C71.2158 196.992 71.3161 196.119 71.5166 195.335C71.7217 194.551 71.9906 193.863 72.3232 193.271C72.6605 192.674 73.0273 192.179 73.4238 191.787C73.8203 191.395 74.2145 191.113 74.6064 190.939L74.9824 191.979C74.7227 192.17 74.4674 192.434 74.2168 192.771C73.9661 193.104 73.7383 193.514 73.5332 194.002C73.3327 194.485 73.1709 195.055 73.0479 195.711C72.9248 196.363 72.8633 197.105 72.8633 197.939V198.117C72.8633 198.951 72.9248 199.696 73.0479 200.353C73.1709 201.004 73.3327 201.574 73.5332 202.062C73.7383 202.554 73.9661 202.968 74.2168 203.306C74.4674 203.643 74.7227 203.91 74.9824 204.105L74.6064 205.117C74.2145 204.944 73.8203 204.661 73.4238 204.27C73.0273 203.882 72.6605 203.39 72.3232 202.793C71.9906 202.201 71.7217 201.512 71.5166 200.729C71.3161 199.94 71.2158 199.065 71.2158 198.104ZM77.2019 196.694V198.164H86.3159V196.694H77.2019ZM75.8299 200.32V201.818H87.5619V200.32H75.8299ZM80.7579 197.436V200.978H82.6199V197.436H80.7579ZM77.2019 191.164V197.254H79.0919V192.648H86.2039V191.164H77.2019ZM78.5179 193.908V195.364H85.9099V193.908H78.5179ZM92.2842 197.953V198.104C92.2842 199.033 92.1794 199.89 91.9697 200.674C91.7601 201.453 91.4821 202.144 91.1357 202.745C90.7939 203.351 90.418 203.855 90.0078 204.256C89.6022 204.657 89.1966 204.944 88.791 205.117L88.4082 204.105C88.668 203.914 88.9209 203.65 89.167 203.312C89.4176 202.975 89.6455 202.561 89.8506 202.068C90.0557 201.581 90.2174 201.009 90.3359 200.353C90.459 199.696 90.5205 198.951 90.5205 198.117V197.939C90.5205 197.105 90.459 196.36 90.3359 195.704C90.2129 195.048 90.0465 194.476 89.8369 193.988C89.6318 193.496 89.404 193.084 89.1533 192.751C88.9072 192.414 88.6589 192.149 88.4082 191.958L88.791 190.939C89.1966 191.113 89.6022 191.402 90.0078 191.808C90.418 192.209 90.7939 192.71 91.1357 193.312C91.4821 193.913 91.7601 194.606 91.9697 195.39C92.1794 196.169 92.2842 197.023 92.2842 197.953Z" fill="black"/>
<path d="M353 199L348 194L343 199" stroke="black" stroke-width="2" stroke-linecap="round"/>
<path d="M18.608 259.732V261.004H26.48V259.732H18.608ZM17.492 263.536V264.82H27.548V263.536H17.492ZM21.716 260.488V263.896H23.312V260.488H21.716ZM18.608 255.796V260.284H20.216V255.796H18.608ZM34.1951 257.32V258.604H36.7751V257.32H34.1951ZM31.0631 255.64V256.84C31.0631 258.412 30.2951 259.948 28.4591 260.56L29.2991 261.808C31.3991 261.04 32.3471 259.108 32.3471 256.84V255.64H31.0631ZM31.4111 255.64V256.852C31.4111 258.952 32.3231 260.812 34.3151 261.532L35.1671 260.308C33.4151 259.708 32.6831 258.28 32.6831 256.852V255.64H31.4111ZM36.2231 254.968V263.164H37.8191V254.968H36.2231ZM30.4631 264.604V265.876H38.0591V264.604H30.4631ZM30.4631 262.336V265.312H32.0711V262.336H30.4631ZM44.5861 255.112C42.0421 255.112 40.5661 255.784 40.5661 257.008C40.5661 258.232 42.0421 258.904 44.5861 258.904C47.1181 258.904 48.6061 258.232 48.6061 257.008C48.6061 255.784 47.1181 255.112 44.5861 255.112ZM44.5861 256.276C46.1941 256.276 46.9501 256.516 46.9501 257.008C46.9501 257.524 46.1941 257.74 44.5861 257.74C42.9781 257.74 42.2221 257.524 42.2221 257.008C42.2221 256.516 42.9781 256.276 44.5861 256.276ZM39.5581 259.42V260.68H49.6021V259.42H39.5581ZM40.7101 261.304V262.492H46.8181V263.056H40.7221V265.144H42.2941V264.16H48.3901V261.304H40.7101ZM40.7221 264.796V265.996H48.6781V264.796H40.7221ZM59.2615 257.32V258.604H61.8415V257.32H59.2615ZM56.1295 255.64V256.84C56.1295 258.412 55.3615 259.948 53.5255 260.56L54.3655 261.808C56.4655 261.04 57.4135 259.108 57.4135 256.84V255.64H56.1295ZM56.4775 255.64V256.852C56.4775 258.952 57.3895 260.812 59.3815 261.532L60.2335 260.308C58.4815 259.708 57.7495 258.28 57.7495 256.852V255.64H56.4775ZM61.2895 254.968V263.164H62.8855V254.968H61.2895ZM55.5295 264.604V265.876H63.1255V264.604H55.5295ZM55.5295 262.336V265.312H57.1375V262.336H55.5295ZM64.9965 260.02V261.316H65.7645C67.4205 261.316 68.5005 261.28 69.7725 261.064L69.6285 259.792C68.4045 259.996 67.3725 260.02 65.7645 260.02H64.9965ZM64.9965 255.7V260.728H66.5325V256.972H69.3765V255.7H64.9965ZM66.0765 257.872V259.072H69.2565V257.872H66.0765ZM72.5805 254.956V261.736H74.0925V254.956H72.5805ZM71.2485 257.68V258.952H73.0125V257.68H71.2485ZM70.2045 255.16V261.664H71.6925V255.16H70.2045ZM66.4605 262.216V263.488H72.5085V266.068H74.0925V262.216H66.4605ZM82.7916 254.956V266.068H84.3756V254.956H82.7916ZM84.0156 259.288V260.62H85.9836V259.288H84.0156ZM75.6156 256.6V257.872H82.0836V256.6H75.6156ZM78.8676 258.496C77.2476 258.496 76.0476 259.6 76.0476 261.148C76.0476 262.696 77.2476 263.8 78.8676 263.8C80.4876 263.8 81.6876 262.696 81.6876 261.148C81.6876 259.6 80.4876 258.496 78.8676 258.496ZM78.8676 259.792C79.6236 259.792 80.1636 260.296 80.1636 261.148C80.1636 262 79.6236 262.504 78.8676 262.504C78.1116 262.504 77.5716 262 77.5716 261.148C77.5716 260.296 78.1116 259.792 78.8676 259.792ZM78.0636 255.136V257.08H79.6596V255.136H78.0636ZM91.0827 258.688V259.984H92.9187V258.688H91.0827ZM88.7067 255.916V257.788C88.7067 259.672 88.1307 261.652 86.4987 262.66L87.4587 263.86C89.2347 262.768 89.9307 260.308 89.9307 257.788V255.916H88.7067ZM89.0547 255.916V257.716C89.0547 260.116 89.6067 262.516 91.3707 263.608L92.2347 262.36C90.7227 261.376 90.2547 259.528 90.2547 257.716V255.916H89.0547ZM94.7307 254.956V266.068H96.2547V254.956H94.7307ZM92.4747 255.124V265.564H93.9627V255.124H92.4747ZM99.9617 260.596V263.716H101.546V260.596H99.9617ZM103.994 260.596V263.716H105.59V260.596H103.994ZM97.7537 263.488V264.784H107.81V263.488H97.7537ZM102.77 255.496C100.37 255.496 98.6177 256.672 98.6177 258.484C98.6177 260.296 100.37 261.46 102.77 261.46C105.158 261.46 106.922 260.296 106.922 258.484C106.922 256.672 105.158 255.496 102.77 255.496ZM102.77 256.744C104.318 256.744 105.35 257.38 105.35 258.484C105.35 259.576 104.318 260.224 102.77 260.224C101.222 260.224 100.19 259.576 100.19 258.484C100.19 257.38 101.222 256.744 102.77 256.744Z" fill="black"/>
<rect x="16.5" y="281.5" width="343" height="43" rx="3.5" stroke="#E2E2E2"/>
<path d="M42.9756 305.872H44.1376V296.492H42.9756V299.432H40.2316V300.384H42.9756V305.872ZM41.1276 302.904C39.3216 302.232 38.0896 300.58 38.0896 298.83V297.234H36.9416V298.788C36.9416 300.706 35.6816 302.484 33.8056 303.17L34.4076 304.08C35.8776 303.492 36.9976 302.302 37.5296 300.804C38.0616 302.162 39.1396 303.24 40.5256 303.786L41.1276 302.904ZM37.2076 307.818V304.836H36.0596V308.756H44.4316V307.818H37.2076ZM52.5505 302.162C51.2345 302.428 50.1145 302.498 48.3225 302.498V300.79H51.9205V299.908H48.3225V298.326H52.0605V297.402H47.2165V303.436H48.0145C50.0305 303.436 51.2205 303.38 52.6625 303.086L52.5505 302.162ZM48.8265 305.676H56.1205V309.036H57.2685V304.752H48.8265V305.676ZM56.1625 296.492V299.754H54.4825V296.716H53.3905V304.01H54.4825V300.692H56.1625V304.094H57.2685V296.492H56.1625ZM63.2314 305.284C62.0974 305.284 61.2714 304.472 61.2714 303.352C61.2714 302.218 62.0974 301.406 63.2314 301.406C64.3794 301.406 65.2054 302.218 65.2054 303.352C65.2054 304.472 64.3794 305.284 63.2314 305.284ZM63.2314 300.454C61.4674 300.454 60.1934 301.658 60.1934 303.352C60.1934 305.06 61.4674 306.236 63.2314 306.236C65.0234 306.236 66.2974 305.06 66.2974 303.352C66.2974 301.658 65.0234 300.454 63.2314 300.454ZM63.7914 296.632H62.6434V298.494H59.4794V299.418H66.8854V298.494H63.7914V296.632ZM71.2814 301.644H69.2234V296.492H68.0754V309.036H69.2234V302.61H71.2814V301.644ZM76.1523 297.668H75.0463V300.062C75.0463 302.218 74.0103 304.472 72.2883 305.48L73.0023 306.334C74.2483 305.564 75.1583 304.15 75.6063 302.484C76.0543 304.01 76.8943 305.34 78.0843 306.068L78.7423 305.172C77.0903 304.164 76.1523 302.036 76.1523 300.02V297.668ZM79.4563 300.986H77.3843V301.938H79.4563V308.42H80.5343V296.758H79.4563V300.986ZM82.0043 296.478V309.036H83.0963V296.478H82.0043ZM89.2412 303.52C89.7592 303.646 90.3612 303.716 90.9772 303.716C91.6072 303.716 92.2092 303.646 92.7412 303.52V306.474H89.2412V303.52ZM90.9772 298.172C92.9932 298.172 94.4492 299.096 94.4492 300.496C94.4492 301.896 92.9932 302.82 90.9772 302.82C88.9612 302.82 87.5192 301.896 87.5192 300.496C87.5192 299.096 88.9612 298.172 90.9772 298.172ZM93.8892 306.474V303.072C94.9252 302.526 95.5412 301.63 95.5412 300.496C95.5412 298.536 93.6512 297.276 90.9772 297.276C88.3172 297.276 86.4132 298.536 86.4132 300.496C86.4132 301.63 87.0432 302.54 88.0932 303.086V306.474H85.2932V307.426H96.7032V306.474H93.8892Z" fill="#898989"/>
<path d="M332.921 301L337.936 306L342.951 301H332.921Z" fill="#121212"/>
<path d="M23.696 363.336C22.412 363.564 21.272 363.612 19.496 363.624V362.808H22.88V361.584H19.496V360.792H23.108V359.532H17.924V364.872H18.848C21.044 364.872 22.388 364.824 23.864 364.56L23.696 363.336ZM24.644 368.64H20.564V367.716H24.644V368.64ZM24.644 366.504H20.564V365.556H19.004V369.9H26.216V365.556H24.644V366.504ZM27.68 361.356H26.216V358.98H24.632V365.1H26.216V362.652H27.68V361.356ZM38.0471 362.232C35.5751 361.92 34.3631 360.648 34.3631 359.496V359.172H32.7311V359.496C32.7311 360.66 31.5191 361.92 29.0471 362.232L29.6231 363.468C31.4951 363.204 32.8511 362.4 33.5471 361.332C34.2551 362.4 35.5991 363.204 37.4831 363.468L38.0471 362.232ZM33.5231 368.856C32.0471 368.856 31.2911 368.604 31.2911 368.04C31.2911 367.476 32.0471 367.224 33.5231 367.224C34.9991 367.224 35.7551 367.476 35.7551 368.04C35.7551 368.604 34.9991 368.856 33.5231 368.856ZM33.5231 366.036C31.1351 366.036 29.6951 366.756 29.6951 368.04C29.6951 369.324 31.1351 370.044 33.5231 370.044C35.9111 370.044 37.3631 369.324 37.3631 368.04C37.3631 366.756 35.9111 366.036 33.5231 366.036ZM28.5551 364.056V365.304H38.5391V364.056H28.5551ZM51.7624 358.992H50.1664V366.924H51.7624V358.992ZM44.2864 362.496C44.2864 361.584 44.9344 361.056 45.7504 361.056C46.5784 361.056 47.2024 361.584 47.2024 362.496C47.2024 363.384 46.5784 363.924 45.7504 363.924C44.9344 363.924 44.2864 363.384 44.2864 362.496ZM48.7504 362.496C48.7504 360.864 47.4424 359.688 45.7504 359.688C44.0584 359.688 42.7384 360.864 42.7384 362.496C42.7384 364.104 44.0584 365.292 45.7504 365.292C47.4424 365.292 48.7504 364.104 48.7504 362.496ZM45.9904 368.58V366.144H44.4064V369.84H52.0384V368.58H45.9904ZM59.2615 365.4V366.48H61.3375V367.356H62.9215V358.98H61.3375V365.4H59.2615ZM57.1375 360.504C57.8695 360.504 58.3855 360.792 58.3855 361.332C58.3855 361.872 57.8695 362.148 57.1375 362.148C56.3935 362.148 55.8775 361.872 55.8775 361.332C55.8775 360.792 56.3935 360.504 57.1375 360.504ZM57.1375 363.3C58.7455 363.3 59.8855 362.508 59.8855 361.332C59.8855 360.156 58.7455 359.352 57.1375 359.352C55.5175 359.352 54.3895 360.156 54.3895 361.332C54.3895 362.508 55.5175 363.3 57.1375 363.3ZM56.5495 368.58V367.068H58.0735V364.98C58.9615 364.908 59.8495 364.812 60.7135 364.668L60.6055 363.54C58.2775 363.84 55.5895 363.864 53.5735 363.876L53.7775 365.136C54.6055 365.136 55.5295 365.124 56.5015 365.076V366.552H54.9655V369.84H63.1615V368.58H56.5495ZM69.6525 360.3C71.2605 360.3 72.0165 360.528 72.0165 361.02C72.0165 361.536 71.2605 361.752 69.6525 361.752C68.0565 361.752 67.3005 361.536 67.3005 361.02C67.3005 360.528 68.0565 360.3 69.6525 360.3ZM69.6525 362.904C72.1845 362.904 73.6605 362.244 73.6605 361.02C73.6605 359.808 72.1845 359.136 69.6525 359.136C67.1325 359.136 65.6565 359.808 65.6565 361.02C65.6565 362.244 67.1325 362.904 69.6525 362.904ZM67.3845 368.136H73.4325V365.292H65.8005V366.456H71.8725V367.044H65.8125V369.948H73.7205V368.76H67.3845V368.136ZM64.6605 363.432V364.668H74.6445V363.432H64.6605ZM86.3439 367.14H87.9279V358.98H86.3439V361.332H84.3159V362.616H86.3439V367.14ZM85.2879 364.308C83.5599 363.696 82.8159 362.292 82.8159 360.852V359.652H81.2079V360.84C81.2079 362.412 80.4399 363.948 78.6159 364.56L79.4439 365.796C80.7279 365.328 81.5799 364.428 82.0479 363.288C82.5039 364.308 83.2959 365.112 84.4479 365.532L85.2879 364.308ZM82.2159 368.58V366.324H80.6319V369.84H88.1679V368.58H82.2159ZM94.6949 363.792C93.6869 363.948 92.8109 364.008 91.6229 364.02V363.084H94.3349V361.884H91.6229V360.972H94.4429V359.724H90.0989V365.292H90.8669C92.5109 365.292 93.5789 365.256 94.8389 365.052L94.6949 363.792ZM91.5389 367.464H97.5629V370.044H99.1469V366.204H91.5389V367.464ZM97.6469 358.98V361.692H96.7589V359.172H95.2829V365.652H96.7589V362.952H97.6469V365.724H99.1469V358.98H97.6469ZM103.958 366.48C103.214 366.48 102.662 365.976 102.662 365.136C102.662 364.296 103.214 363.78 103.958 363.78C104.702 363.78 105.242 364.296 105.242 365.124C105.242 365.976 104.702 366.48 103.958 366.48ZM103.958 362.496C102.35 362.496 101.15 363.588 101.15 365.124C101.15 366.684 102.35 367.776 103.958 367.776C105.554 367.776 106.742 366.684 106.742 365.124C106.742 363.588 105.554 362.496 103.958 362.496ZM104.738 359.172H103.154V360.612H100.706V361.872H107.138V360.612H104.738V359.172ZM111.026 363.3H109.442V358.98H107.858V370.032H109.442V364.608H111.026V363.3ZM115.333 359.94H113.809V361.8C113.809 363.684 113.221 365.664 111.601 366.648L112.549 367.836C113.545 367.236 114.193 366.18 114.577 364.956C114.925 366.072 115.513 367.008 116.449 367.584L117.313 366.36C115.813 365.364 115.333 363.528 115.333 361.74V359.94ZM117.541 362.712H116.149V363.996H117.541V369.54H119.017V359.16H117.541V362.712ZM119.785 358.98V370.032H121.285V358.98H119.785ZM126.624 365.352C127.008 365.424 127.404 365.46 127.836 365.46C128.268 365.46 128.676 365.424 129.06 365.352V367.464H126.624V365.352ZM127.836 360.768C129.372 360.768 130.404 361.392 130.404 362.496C130.404 363.588 129.372 364.224 127.836 364.224C126.3 364.224 125.28 363.588 125.28 362.496C125.28 361.392 126.3 360.768 127.836 360.768ZM130.632 367.464V364.764C131.46 364.248 131.964 363.456 131.964 362.496C131.964 360.684 130.224 359.52 127.836 359.52C125.46 359.52 123.72 360.684 123.72 362.496C123.708 363.456 124.212 364.248 125.052 364.764V367.464H122.844V368.748H132.852V367.464H130.632Z" fill="black"/>
<path d="M102.983 403.992V414H101.719V405.571L99.1689 406.501V405.359L102.785 403.992H102.983ZM112.609 404.48V405.432H116.263V404.48H112.609ZM112.609 407V407.938H116.291V407H112.609ZM115.815 402.436V409.926H116.977V402.436H115.815ZM107.149 403.388V409.016H112.931V403.388H107.149ZM111.783 404.326V408.092H108.283V404.326H111.783ZM112.819 410.29C110.201 410.29 108.591 411.172 108.591 412.684C108.591 414.196 110.201 415.064 112.819 415.064C115.423 415.064 117.033 414.196 117.033 412.684C117.033 411.172 115.423 410.29 112.819 410.29ZM112.819 411.214C114.723 411.214 115.885 411.76 115.885 412.684C115.885 413.608 114.723 414.154 112.819 414.154C110.915 414.154 109.753 413.608 109.753 412.684C109.753 411.76 110.915 411.214 112.819 411.214Z" fill="#A71596"/>
<rect x="76.5" y="389.5" width="64" height="39" rx="7.5" stroke="#A71596"/>
<path d="M178.349 412.961V414H171.834V413.091L175.095 409.461C175.496 409.014 175.806 408.636 176.024 408.326C176.248 408.012 176.403 407.731 176.489 407.485C176.58 407.235 176.626 406.979 176.626 406.72C176.626 406.392 176.558 406.095 176.421 405.831C176.289 405.562 176.093 405.348 175.833 405.188C175.573 405.029 175.259 404.949 174.89 404.949C174.448 404.949 174.078 405.036 173.782 405.209C173.491 405.378 173.272 405.615 173.126 405.92C172.98 406.225 172.907 406.576 172.907 406.973H171.643C171.643 406.412 171.766 405.899 172.012 405.435C172.258 404.97 172.622 404.601 173.105 404.327C173.589 404.049 174.183 403.91 174.89 403.91C175.519 403.91 176.056 404.022 176.503 404.245C176.95 404.464 177.291 404.774 177.528 405.175C177.77 405.571 177.891 406.036 177.891 406.569C177.891 406.861 177.84 407.157 177.74 407.458C177.645 407.754 177.51 408.05 177.337 408.347C177.168 408.643 176.97 408.935 176.742 409.222C176.519 409.509 176.28 409.791 176.024 410.069L173.358 412.961H178.349ZM185.609 404.48V405.432H189.263V404.48H185.609ZM185.609 407V407.938H189.291V407H185.609ZM188.815 402.436V409.926H189.977V402.436H188.815ZM180.149 403.388V409.016H185.931V403.388H180.149ZM184.783 404.326V408.092H181.283V404.326H184.783ZM185.819 410.29C183.201 410.29 181.591 411.172 181.591 412.684C181.591 414.196 183.201 415.064 185.819 415.064C188.423 415.064 190.033 414.196 190.033 412.684C190.033 411.172 188.423 410.29 185.819 410.29ZM185.819 411.214C187.723 411.214 188.885 411.76 188.885 412.684C188.885 413.608 187.723 414.154 185.819 414.154C183.915 414.154 182.753 413.608 182.753 412.684C182.753 411.76 183.915 411.214 185.819 411.214Z" fill="#666666"/>
<rect x="149.5" y="389.5" width="64" height="39" rx="7.5" stroke="#E2E2E2"/>
<path d="M246.666 408.408H247.616C248.213 408.399 248.683 408.242 249.024 407.937C249.366 407.631 249.537 407.219 249.537 406.699C249.537 405.533 248.956 404.949 247.794 404.949C247.247 404.949 246.81 405.106 246.481 405.421C246.158 405.731 245.996 406.143 245.996 406.658H244.731C244.731 405.87 245.019 405.216 245.593 404.696C246.172 404.172 246.905 403.91 247.794 403.91C248.733 403.91 249.469 404.159 250.002 404.655C250.535 405.152 250.802 405.842 250.802 406.727C250.802 407.16 250.66 407.579 250.378 407.984C250.1 408.39 249.719 408.693 249.236 408.894C249.783 409.067 250.205 409.354 250.501 409.755C250.802 410.156 250.952 410.646 250.952 411.225C250.952 412.118 250.66 412.826 250.077 413.351C249.494 413.875 248.735 414.137 247.801 414.137C246.867 414.137 246.105 413.884 245.518 413.378C244.934 412.872 244.643 412.204 244.643 411.375H245.914C245.914 411.899 246.085 412.318 246.427 412.633C246.769 412.947 247.227 413.104 247.801 413.104C248.411 413.104 248.879 412.945 249.202 412.626C249.526 412.307 249.688 411.849 249.688 411.252C249.688 410.673 249.51 410.229 249.154 409.919C248.799 409.609 248.286 409.45 247.616 409.44H246.666V408.408ZM257.783 408.092H254.311V404.354H257.783V408.092ZM261.787 405.446V407H258.903V405.446H261.787ZM258.903 407.924H261.787V409.912H262.949V402.492H261.787V404.522H258.903V403.43H253.177V409.002H258.903V407.924ZM258.791 414.126C256.915 414.126 255.767 413.58 255.767 412.656C255.767 411.732 256.915 411.186 258.791 411.186C260.695 411.186 261.843 411.732 261.843 412.656C261.843 413.58 260.695 414.126 258.791 414.126ZM258.791 410.29C256.215 410.29 254.619 411.144 254.619 412.656C254.619 414.154 256.215 415.022 258.791 415.022C261.381 415.022 262.991 414.154 262.991 412.656C262.991 411.144 261.381 410.29 258.791 410.29Z" fill="#666666"/>
<rect x="222.5" y="389.5" width="64" height="39" rx="7.5" stroke="#E2E2E2"/>
<path d="M323.166 410.657H324.547V411.689H323.166V414H321.895V411.689H317.362V410.944L321.819 404.047H323.166V410.657ZM318.798 410.657H321.895V405.776L321.744 406.05L318.798 410.657ZM330.783 408.092H327.311V404.354H330.783V408.092ZM334.787 405.446V407H331.903V405.446H334.787ZM331.903 407.924H334.787V409.912H335.949V402.492H334.787V404.522H331.903V403.43H326.177V409.002H331.903V407.924ZM331.791 414.126C329.915 414.126 328.767 413.58 328.767 412.656C328.767 411.732 329.915 411.186 331.791 411.186C333.695 411.186 334.843 411.732 334.843 412.656C334.843 413.58 333.695 414.126 331.791 414.126ZM331.791 410.29C329.215 410.29 327.619 411.144 327.619 412.656C327.619 414.154 329.215 415.022 331.791 415.022C334.381 415.022 335.991 414.154 335.991 412.656C335.991 411.144 334.381 410.29 331.791 410.29Z" fill="#666666"/>
<rect x="295.5" y="389.5" width="64" height="39" rx="7.5" stroke="#E2E2E2"/>
<path d="M99.4082 457.01L99.9141 452.047H105.014V453.216H100.987L100.687 455.93C101.174 455.643 101.728 455.499 102.348 455.499C103.255 455.499 103.975 455.8 104.508 456.401C105.041 456.998 105.308 457.807 105.308 458.828C105.308 459.854 105.03 460.662 104.474 461.255C103.922 461.843 103.15 462.137 102.156 462.137C101.277 462.137 100.559 461.893 100.003 461.405C99.4469 460.918 99.1302 460.243 99.0527 459.382H100.249C100.326 459.951 100.529 460.382 100.857 460.674C101.186 460.961 101.618 461.104 102.156 461.104C102.744 461.104 103.204 460.904 103.537 460.503C103.874 460.102 104.043 459.548 104.043 458.842C104.043 458.176 103.861 457.643 103.496 457.242C103.136 456.837 102.655 456.634 102.054 456.634C101.502 456.634 101.069 456.755 100.755 456.996L100.42 457.27L99.4082 457.01ZM111.783 456.092H108.311V452.354H111.783V456.092ZM115.787 453.446V455H112.903V453.446H115.787ZM112.903 455.924H115.787V457.912H116.949V450.492H115.787V452.522H112.903V451.43H107.177V457.002H112.903V455.924ZM112.791 462.126C110.915 462.126 109.767 461.58 109.767 460.656C109.767 459.732 110.915 459.186 112.791 459.186C114.695 459.186 115.843 459.732 115.843 460.656C115.843 461.58 114.695 462.126 112.791 462.126ZM112.791 458.29C110.215 458.29 108.619 459.144 108.619 460.656C108.619 462.154 110.215 463.022 112.791 463.022C115.381 463.022 116.991 462.154 116.991 460.656C116.991 459.144 115.381 458.29 112.791 458.29Z" fill="#666666"/>
<rect x="76.5" y="437.5" width="64" height="39" rx="7.5" stroke="#E2E2E2"/>
<path d="M26.926 409.912H28.088V402.492H26.926V405.152H24.196V406.09H26.926V409.912ZM25.106 408.428C23.272 407.784 22.054 406.23 22.054 404.438V403.192H20.906V404.48C20.906 406.398 19.66 408.078 17.728 408.764L18.33 409.702C19.842 409.128 20.976 407.994 21.508 406.51C22.054 407.812 23.118 408.806 24.49 409.324L25.106 408.428ZM23.944 414.112C22.054 414.112 20.906 413.566 20.906 412.656C20.906 411.732 22.054 411.186 23.944 411.186C25.834 411.186 26.982 411.732 26.982 412.656C26.982 413.566 25.834 414.112 23.944 414.112ZM23.944 410.29C21.368 410.29 19.758 411.144 19.758 412.656C19.758 414.154 21.368 415.022 23.944 415.022C26.52 415.022 28.13 414.154 28.13 412.656C28.13 411.144 26.52 410.29 23.944 410.29ZM40.9249 402.492H39.7769V411.662H40.9249V402.492ZM32.0349 406.44C32.0349 405.222 32.9589 404.354 34.1769 404.354C35.4229 404.354 36.3469 405.222 36.3469 406.44C36.3469 407.686 35.4229 408.554 34.1769 408.554C32.9589 408.554 32.0349 407.686 32.0349 406.44ZM37.4669 406.44C37.4669 404.634 36.0529 403.36 34.1769 403.36C32.3149 403.36 30.9149 404.634 30.9149 406.44C30.9149 408.26 32.3149 409.548 34.1769 409.548C36.0529 409.548 37.4669 408.26 37.4669 406.44ZM33.9949 413.818V410.724H32.8469V414.756H41.3029V413.818H33.9949Z" fill="black"/>
<path d="M102.983 518H101.712V509.571L99.1621 510.508V509.359L102.785 507.999H102.983V518ZM111.783 512.092H108.311V508.354H111.783V512.092ZM115.787 509.446V511H112.903V509.446H115.787ZM112.903 511.924H115.787V513.912H116.949V506.492H115.787V508.522H112.903V507.43H107.177V513.002H112.903V511.924ZM112.791 518.126C110.915 518.126 109.767 517.58 109.767 516.656C109.767 515.732 110.915 515.186 112.791 515.186C114.695 515.186 115.843 515.732 115.843 516.656C115.843 517.58 114.695 518.126 112.791 518.126ZM112.791 514.29C110.215 514.29 108.619 515.144 108.619 516.656C108.619 518.154 110.215 519.022 112.791 519.022C115.381 519.022 116.991 518.154 116.991 516.656C116.991 515.144 115.381 514.29 112.791 514.29Z" fill="#666666"/>
<rect x="76.5" y="493.5" width="64" height="39" rx="7.5" stroke="#E2E2E2"/>
<path d="M178.349 518H171.827V517.091L175.272 513.263C175.783 512.684 176.134 512.215 176.325 511.854C176.521 511.49 176.619 511.114 176.619 510.727C176.619 510.207 176.462 509.781 176.147 509.448C175.833 509.116 175.414 508.949 174.89 508.949C174.261 508.949 173.771 509.129 173.42 509.489C173.074 509.845 172.9 510.341 172.9 510.979H171.636C171.636 510.063 171.93 509.323 172.518 508.758C173.11 508.193 173.901 507.91 174.89 507.91C175.815 507.91 176.546 508.154 177.084 508.642C177.622 509.125 177.891 509.77 177.891 510.576C177.891 511.556 177.266 512.723 176.018 514.076L173.352 516.968H178.349V518ZM184.783 512.092H181.311V508.354H184.783V512.092ZM188.787 509.446V511H185.903V509.446H188.787ZM185.903 511.924H188.787V513.912H189.949V506.492H188.787V508.522H185.903V507.43H180.177V513.002H185.903V511.924ZM185.791 518.126C183.915 518.126 182.767 517.58 182.767 516.656C182.767 515.732 183.915 515.186 185.791 515.186C187.695 515.186 188.843 515.732 188.843 516.656C188.843 517.58 187.695 518.126 185.791 518.126ZM185.791 514.29C183.215 514.29 181.619 515.144 181.619 516.656C181.619 518.154 183.215 519.022 185.791 519.022C188.381 519.022 189.991 518.154 189.991 516.656C189.991 515.144 188.381 514.29 185.791 514.29Z" fill="#666666"/>
<rect x="149.5" y="493.5" width="64" height="39" rx="7.5" stroke="#E2E2E2"/>
<path d="M246.666 512.408H247.616C248.213 512.399 248.683 512.242 249.024 511.937C249.366 511.631 249.537 511.219 249.537 510.699C249.537 509.533 248.956 508.949 247.794 508.949C247.247 508.949 246.81 509.106 246.481 509.421C246.158 509.731 245.996 510.143 245.996 510.658H244.731C244.731 509.87 245.019 509.216 245.593 508.696C246.172 508.172 246.905 507.91 247.794 507.91C248.733 507.91 249.469 508.159 250.002 508.655C250.535 509.152 250.802 509.842 250.802 510.727C250.802 511.16 250.66 511.579 250.378 511.984C250.1 512.39 249.719 512.693 249.236 512.894C249.783 513.067 250.205 513.354 250.501 513.755C250.802 514.156 250.952 514.646 250.952 515.225C250.952 516.118 250.66 516.826 250.077 517.351C249.494 517.875 248.735 518.137 247.801 518.137C246.867 518.137 246.105 517.884 245.518 517.378C244.934 516.872 244.643 516.204 244.643 515.375H245.914C245.914 515.899 246.085 516.318 246.427 516.633C246.769 516.947 247.227 517.104 247.801 517.104C248.411 517.104 248.879 516.945 249.202 516.626C249.526 516.307 249.688 515.849 249.688 515.252C249.688 514.673 249.51 514.229 249.154 513.919C248.799 513.609 248.286 513.45 247.616 513.44H246.666V512.408ZM257.783 512.092H254.311V508.354H257.783V512.092ZM261.787 509.446V511H258.903V509.446H261.787ZM258.903 511.924H261.787V513.912H262.949V506.492H261.787V508.522H258.903V507.43H253.177V513.002H258.903V511.924ZM258.791 518.126C256.915 518.126 255.767 517.58 255.767 516.656C255.767 515.732 256.915 515.186 258.791 515.186C260.695 515.186 261.843 515.732 261.843 516.656C261.843 517.58 260.695 518.126 258.791 518.126ZM258.791 514.29C256.215 514.29 254.619 515.144 254.619 516.656C254.619 518.154 256.215 519.022 258.791 519.022C261.381 519.022 262.991 518.154 262.991 516.656C262.991 515.144 261.381 514.29 258.791 514.29Z" fill="#666666"/>
<rect x="222.5" y="493.5" width="64" height="39" rx="7.5" stroke="#E2E2E2"/>
<path d="M323.166 514.657H324.547V515.689H323.166V518H321.895V515.689H317.362V514.944L321.819 508.047H323.166V514.657ZM318.798 514.657H321.895V509.776L321.744 510.05L318.798 514.657ZM330.783 512.092H327.311V508.354H330.783V512.092ZM334.787 509.446V511H331.903V509.446H334.787ZM331.903 511.924H334.787V513.912H335.949V506.492H334.787V508.522H331.903V507.43H326.177V513.002H331.903V511.924ZM331.791 518.126C329.915 518.126 328.767 517.58 328.767 516.656C328.767 515.732 329.915 515.186 331.791 515.186C333.695 515.186 334.843 515.732 334.843 516.656C334.843 517.58 333.695 518.126 331.791 518.126ZM331.791 514.29C329.215 514.29 327.619 515.144 327.619 516.656C327.619 518.154 329.215 519.022 331.791 519.022C334.381 519.022 335.991 518.154 335.991 516.656C335.991 515.144 334.381 514.29 331.791 514.29Z" fill="#666666"/>
<rect x="295.5" y="493.5" width="64" height="39" rx="7.5" stroke="#E2E2E2"/>
<path d="M99.4082 561.01L99.9141 556.047H105.014V557.216H100.987L100.687 559.93C101.174 559.643 101.728 559.499 102.348 559.499C103.255 559.499 103.975 559.8 104.508 560.401C105.041 560.998 105.308 561.807 105.308 562.828C105.308 563.854 105.03 564.662 104.474 565.255C103.922 565.843 103.15 566.137 102.156 566.137C101.277 566.137 100.559 565.893 100.003 565.405C99.4469 564.918 99.1302 564.243 99.0527 563.382H100.249C100.326 563.951 100.529 564.382 100.857 564.674C101.186 564.961 101.618 565.104 102.156 565.104C102.744 565.104 103.204 564.904 103.537 564.503C103.874 564.102 104.043 563.548 104.043 562.842C104.043 562.176 103.861 561.643 103.496 561.242C103.136 560.837 102.655 560.634 102.054 560.634C101.502 560.634 101.069 560.755 100.755 560.996L100.42 561.27L99.4082 561.01ZM111.783 560.092H108.311V556.354H111.783V560.092ZM115.787 557.446V559H112.903V557.446H115.787ZM112.903 559.924H115.787V561.912H116.949V554.492H115.787V556.522H112.903V555.43H107.177V561.002H112.903V559.924ZM112.791 566.126C110.915 566.126 109.767 565.58 109.767 564.656C109.767 563.732 110.915 563.186 112.791 563.186C114.695 563.186 115.843 563.732 115.843 564.656C115.843 565.58 114.695 566.126 112.791 566.126ZM112.791 562.29C110.215 562.29 108.619 563.144 108.619 564.656C108.619 566.154 110.215 567.022 112.791 567.022C115.381 567.022 116.991 566.154 116.991 564.656C116.991 563.144 115.381 562.29 112.791 562.29Z" fill="#666666"/>
<rect x="76.5" y="541.5" width="64" height="39" rx="7.5" stroke="#E2E2E2"/>
<path d="M26.926 509.726V511.406H23.636V512.344H26.926V513.996H28.088V506.492H26.926V508.788H24.084C24.168 508.354 24.224 507.892 24.224 507.43H18.554V508.354H22.978C22.768 510.524 20.906 512.19 17.91 513.086L18.372 513.996C21.074 513.212 22.978 511.742 23.79 509.726H26.926ZM23.986 518.084C22.138 518.084 20.962 517.51 20.962 516.558C20.962 515.62 22.138 515.046 23.986 515.046C25.834 515.046 27.01 515.62 27.01 516.558C27.01 517.51 25.834 518.084 23.986 518.084ZM23.986 514.136C21.452 514.136 19.828 515.046 19.828 516.558C19.828 518.07 21.452 518.98 23.986 518.98C26.52 518.98 28.144 518.07 28.144 516.558C28.144 515.046 26.52 514.136 23.986 514.136ZM36.8789 516.544V514.178H40.8969V513.254H33.1689V511.224H40.6029V507.402H32.0069V508.34H39.4829V510.3H32.0349V514.178H35.7169V516.544H30.6069V517.482H42.0169V516.544H36.8789Z" fill="black"/>
<path d="M18.212 621.244C19.484 620.86 20.36 620.056 20.84 619.048C21.332 619.96 22.172 620.68 23.396 621.028L24.14 619.804C22.508 619.336 21.728 618.244 21.632 617.14H23.816V615.856H17.84V617.14H20C19.916 618.352 19.112 619.516 17.444 620.008L18.212 621.244ZM21.62 620.752H20.024V622.636C19.076 622.648 18.176 622.648 17.396 622.648L17.576 623.932C19.436 623.944 21.884 623.956 24.212 623.512L24.08 622.372C23.3 622.468 22.46 622.54 21.62 622.588V620.752ZM27.692 619.348H26.24V614.968H24.656V626.032H26.24V620.656H27.692V619.348ZM35.1551 619.984C33.4151 619.408 32.6831 618.064 32.6831 616.684V615.544H31.0751V616.588C31.0751 618.088 30.3191 619.552 28.4831 620.152L29.3111 621.4C30.5591 620.968 31.4111 620.116 31.8911 619.048C32.3591 620.02 33.1511 620.8 34.3271 621.208L35.1551 619.984ZM30.2591 623.308H36.2111V626.044H37.7951V622.06H30.2591V623.308ZM36.2111 614.98V617.044H34.1951V618.328H36.2111V621.556H37.7951V614.98H36.2111ZM44.5861 616.3C46.1941 616.3 46.9501 616.528 46.9501 617.02C46.9501 617.536 46.1941 617.752 44.5861 617.752C42.9901 617.752 42.2341 617.536 42.2341 617.02C42.2341 616.528 42.9901 616.3 44.5861 616.3ZM44.5861 618.904C47.1181 618.904 48.5941 618.244 48.5941 617.02C48.5941 615.808 47.1181 615.136 44.5861 615.136C42.0661 615.136 40.5901 615.808 40.5901 617.02C40.5901 618.244 42.0661 618.904 44.5861 618.904ZM42.3181 624.136H48.3661V621.292H40.7341V622.456H46.8061V623.044H40.7461V625.948H48.6541V624.76H42.3181V624.136ZM39.5941 619.432V620.668H49.5781V619.432H39.5941ZM61.2775 623.14H62.8615V614.98H61.2775V617.332H59.2495V618.616H61.2775V623.14ZM60.2215 620.308C58.4935 619.696 57.7495 618.292 57.7495 616.852V615.652H56.1415V616.84C56.1415 618.412 55.3735 619.948 53.5495 620.56L54.3775 621.796C55.6615 621.328 56.5135 620.428 56.9815 619.288C57.4375 620.308 58.2295 621.112 59.3815 621.532L60.2215 620.308ZM57.1495 624.58V622.324H55.5655V625.84H63.1015V624.58H57.1495ZM69.6285 619.792C68.6205 619.948 67.7445 620.008 66.5565 620.02V619.084H69.2685V617.884H66.5565V616.972H69.3765V615.724H65.0325V621.292H65.8005C67.4445 621.292 68.5125 621.256 69.7725 621.052L69.6285 619.792ZM66.4725 623.464H72.4965V626.044H74.0805V622.204H66.4725V623.464ZM72.5805 614.98V617.692H71.6925V615.172H70.2165V621.652H71.6925V618.952H72.5805V621.724H74.0805V614.98H72.5805ZM78.8916 622.48C78.1476 622.48 77.5956 621.976 77.5956 621.136C77.5956 620.296 78.1476 619.78 78.8916 619.78C79.6356 619.78 80.1756 620.296 80.1756 621.124C80.1756 621.976 79.6356 622.48 78.8916 622.48ZM78.8916 618.496C77.2836 618.496 76.0836 619.588 76.0836 621.124C76.0836 622.684 77.2836 623.776 78.8916 623.776C80.4876 623.776 81.6756 622.684 81.6756 621.124C81.6756 619.588 80.4876 618.496 78.8916 618.496ZM79.6716 615.172H78.0876V616.612H75.6396V617.872H82.0716V616.612H79.6716V615.172ZM85.9596 619.3H84.3756V614.98H82.7916V626.032H84.3756V620.608H85.9596V619.3ZM90.2667 615.94H88.7427V617.8C88.7427 619.684 88.1547 621.664 86.5347 622.648L87.4827 623.836C88.4787 623.236 89.1267 622.18 89.5107 620.956C89.8587 622.072 90.4467 623.008 91.3827 623.584L92.2467 622.36C90.7467 621.364 90.2667 619.528 90.2667 617.74V615.94ZM92.4747 618.712H91.0827V619.996H92.4747V625.54H93.9507V615.16H92.4747V618.712ZM94.7187 614.98V626.032H96.2187V614.98H94.7187ZM101.558 621.352C101.942 621.424 102.338 621.46 102.77 621.46C103.202 621.46 103.61 621.424 103.994 621.352V623.464H101.558V621.352ZM102.77 616.768C104.306 616.768 105.338 617.392 105.338 618.496C105.338 619.588 104.306 620.224 102.77 620.224C101.234 620.224 100.214 619.588 100.214 618.496C100.214 617.392 101.234 616.768 102.77 616.768ZM105.566 623.464V620.764C106.394 620.248 106.898 619.456 106.898 618.496C106.898 616.684 105.158 615.52 102.77 615.52C100.394 615.52 98.6537 616.684 98.6537 618.496C98.6417 619.456 99.1457 620.248 99.9857 620.764V623.464H97.7777V624.748H107.786V623.464H105.566Z" fill="black"/>
<rect x="16.5" y="645.5" width="79" height="32" rx="3.5" fill="#E2E2E2"/>
<path d="M35.7715 666H34.6816V658.775L32.4961 659.578V658.594L35.6016 657.428H35.7715V666ZM48.0903 657.696H44.2383V656.292H43.2543V657.696H39.3543V658.5H48.0903V657.696ZM41.2023 661.272C41.2023 660.48 42.1743 660 43.7463 660C45.2943 660 46.2543 660.48 46.2543 661.272C46.2543 662.076 45.2943 662.556 43.7463 662.556C42.1743 662.556 41.2023 662.076 41.2023 661.272ZM44.2383 664.824V663.312C46.1103 663.192 47.2503 662.472 47.2503 661.272C47.2503 659.976 45.8943 659.232 43.7463 659.232C41.5623 659.232 40.2063 659.976 40.2063 661.272C40.2063 662.472 41.3583 663.204 43.2543 663.312V664.824H38.8743V665.628H48.6303V664.824H44.2383ZM53.5133 658.776H55.9013V657.984H53.5133V656.316H52.5293V657.984H50.1053V658.776H52.5413V659.616C52.5413 661.476 51.3893 663.3 49.8173 664.068L50.3693 664.812C51.5933 664.212 52.5773 662.964 53.0333 661.488C53.4893 662.868 54.4013 664.044 55.5773 664.62L56.1293 663.852C54.5813 663.108 53.5133 661.344 53.5133 659.616V658.776ZM59.9693 660.552H58.1933V656.124H57.2093V666.888H58.1933V661.368H59.9693V660.552Z" fill="#A5A4A5"/>
<path d="M68.5586 662.361C68.5586 663.631 68.3418 664.574 67.9082 665.191C67.4746 665.809 66.7969 666.117 65.875 666.117C64.9648 666.117 64.291 665.816 63.8535 665.215C63.416 664.609 63.1895 663.707 63.1738 662.508V661.061C63.1738 659.807 63.3906 658.875 63.8242 658.266C64.2578 657.656 64.9375 657.352 65.8633 657.352C66.7812 657.352 67.457 657.646 67.8906 658.236C68.3242 658.822 68.5469 659.729 68.5586 660.955V662.361ZM67.4746 660.879C67.4746 659.961 67.3457 659.293 67.0879 658.875C66.8301 658.453 66.4219 658.242 65.8633 658.242C65.3086 658.242 64.9043 658.451 64.6504 658.869C64.3965 659.287 64.2656 659.93 64.2578 660.797V662.531C64.2578 663.453 64.3906 664.135 64.6562 664.576C64.9258 665.014 65.332 665.232 65.875 665.232C66.4102 665.232 66.8066 665.025 67.0645 664.611C67.3262 664.197 67.4629 663.545 67.4746 662.654V660.879ZM76.1623 661.248C74.6023 660.696 73.5343 659.316 73.5343 657.84V656.664H72.5503V657.804C72.5503 659.436 71.5183 660.888 69.8863 661.476L70.4023 662.268C71.6623 661.764 72.6103 660.804 73.0663 659.544C73.5343 660.672 74.4583 661.572 75.6343 662.028L76.1623 661.248ZM71.5303 663.876H77.7463V666.9H78.7423V663.084H71.5303V663.876ZM77.7463 656.136V658.38H75.4063V659.184H77.7463V662.484H78.7423V656.136H77.7463Z" fill="#A5A4A5"/>
<rect x="16.5" y="645.5" width="79" height="32" rx="3.5" stroke="#E2E2E2"/>
<path d="M122.299 666H116.709V665.221L119.662 661.939C120.1 661.443 120.4 661.041 120.564 660.732C120.732 660.42 120.816 660.098 120.816 659.766C120.816 659.32 120.682 658.955 120.412 658.67C120.143 658.385 119.783 658.242 119.334 658.242C118.795 658.242 118.375 658.396 118.074 658.705C117.777 659.01 117.629 659.436 117.629 659.982H116.545C116.545 659.197 116.797 658.562 117.301 658.078C117.809 657.594 118.486 657.352 119.334 657.352C120.127 657.352 120.754 657.561 121.215 657.979C121.676 658.393 121.906 658.945 121.906 659.637C121.906 660.477 121.371 661.477 120.301 662.637L118.016 665.115H122.299V666ZM132.59 657.696H128.738V656.292H127.754V657.696H123.854V658.5H132.59V657.696ZM125.702 661.272C125.702 660.48 126.674 660 128.246 660C129.794 660 130.754 660.48 130.754 661.272C130.754 662.076 129.794 662.556 128.246 662.556C126.674 662.556 125.702 662.076 125.702 661.272ZM128.738 664.824V663.312C130.61 663.192 131.75 662.472 131.75 661.272C131.75 659.976 130.394 659.232 128.246 659.232C126.062 659.232 124.706 659.976 124.706 661.272C124.706 662.472 125.858 663.204 127.754 663.312V664.824H123.374V665.628H133.13V664.824H128.738ZM138.013 658.776H140.401V657.984H138.013V656.316H137.029V657.984H134.605V658.776H137.041V659.616C137.041 661.476 135.889 663.3 134.317 664.068L134.869 664.812C136.093 664.212 137.077 662.964 137.533 661.488C137.989 662.868 138.901 664.044 140.077 664.62L140.629 663.852C139.081 663.108 138.013 661.344 138.013 659.616V658.776ZM144.469 660.552H142.693V656.124H141.709V666.888H142.693V661.368H144.469V660.552Z" fill="#666666"/>
<path d="M152.285 663.135H153.469V664.02H152.285V666H151.195V664.02H147.311V663.381L151.131 657.469H152.285V663.135ZM148.541 663.135H151.195V658.951L151.066 659.186L148.541 663.135ZM159.797 662.361C159.797 663.631 159.58 664.574 159.146 665.191C158.713 665.809 158.035 666.117 157.113 666.117C156.203 666.117 155.529 665.816 155.092 665.215C154.654 664.609 154.428 663.707 154.412 662.508V661.061C154.412 659.807 154.629 658.875 155.062 658.266C155.496 657.656 156.176 657.352 157.102 657.352C158.02 657.352 158.695 657.646 159.129 658.236C159.562 658.822 159.785 659.729 159.797 660.955V662.361ZM158.713 660.879C158.713 659.961 158.584 659.293 158.326 658.875C158.068 658.453 157.66 658.242 157.102 658.242C156.547 658.242 156.143 658.451 155.889 658.869C155.635 659.287 155.504 659.93 155.496 660.797V662.531C155.496 663.453 155.629 664.135 155.895 664.576C156.164 665.014 156.57 665.232 157.113 665.232C157.648 665.232 158.045 665.025 158.303 664.611C158.564 664.197 158.701 663.545 158.713 662.654V660.879ZM167.401 661.248C165.841 660.696 164.773 659.316 164.773 657.84V656.664H163.789V657.804C163.789 659.436 162.757 660.888 161.125 661.476L161.641 662.268C162.901 661.764 163.849 660.804 164.305 659.544C164.773 660.672 165.697 661.572 166.873 662.028L167.401 661.248ZM162.769 663.876H168.985V666.9H169.981V663.084H162.769V663.876ZM168.985 656.136V658.38H166.645V659.184H168.985V662.484H169.981V656.136H168.985Z" fill="#666666"/>
<rect x="104.5" y="645.5" width="79" height="32" rx="3.5" stroke="#E2E2E2"/>
<path d="M206.285 661.207H207.1C207.611 661.199 208.014 661.064 208.307 660.803C208.6 660.541 208.746 660.188 208.746 659.742C208.746 658.742 208.248 658.242 207.252 658.242C206.783 658.242 206.408 658.377 206.127 658.646C205.85 658.912 205.711 659.266 205.711 659.707H204.627C204.627 659.031 204.873 658.471 205.365 658.025C205.861 657.576 206.49 657.352 207.252 657.352C208.057 657.352 208.688 657.564 209.145 657.99C209.602 658.416 209.83 659.008 209.83 659.766C209.83 660.137 209.709 660.496 209.467 660.844C209.229 661.191 208.902 661.451 208.488 661.623C208.957 661.771 209.318 662.018 209.572 662.361C209.83 662.705 209.959 663.125 209.959 663.621C209.959 664.387 209.709 664.994 209.209 665.443C208.709 665.893 208.059 666.117 207.258 666.117C206.457 666.117 205.805 665.9 205.301 665.467C204.801 665.033 204.551 664.461 204.551 663.75H205.641C205.641 664.199 205.787 664.559 206.08 664.828C206.373 665.098 206.766 665.232 207.258 665.232C207.781 665.232 208.182 665.096 208.459 664.822C208.736 664.549 208.875 664.156 208.875 663.645C208.875 663.148 208.723 662.768 208.418 662.502C208.113 662.236 207.674 662.1 207.1 662.092H206.285V661.207ZM220.59 657.696H216.738V656.292H215.754V657.696H211.854V658.5H220.59V657.696ZM213.702 661.272C213.702 660.48 214.674 660 216.246 660C217.794 660 218.754 660.48 218.754 661.272C218.754 662.076 217.794 662.556 216.246 662.556C214.674 662.556 213.702 662.076 213.702 661.272ZM216.738 664.824V663.312C218.61 663.192 219.75 662.472 219.75 661.272C219.75 659.976 218.394 659.232 216.246 659.232C214.062 659.232 212.706 659.976 212.706 661.272C212.706 662.472 213.858 663.204 215.754 663.312V664.824H211.374V665.628H221.13V664.824H216.738ZM226.013 658.776H228.401V657.984H226.013V656.316H225.029V657.984H222.605V658.776H225.041V659.616C225.041 661.476 223.889 663.3 222.317 664.068L222.869 664.812C224.093 664.212 225.077 662.964 225.533 661.488C225.989 662.868 226.901 664.044 228.077 664.62L228.629 663.852C227.081 663.108 226.013 661.344 226.013 659.616V658.776ZM232.469 660.552H230.693V656.124H229.709V666.888H230.693V661.368H232.469V660.552Z" fill="#666666"/>
<path d="M239.271 666H238.182V658.775L235.996 659.578V658.594L239.102 657.428H239.271V666ZM247.797 662.361C247.797 663.631 247.58 664.574 247.146 665.191C246.713 665.809 246.035 666.117 245.113 666.117C244.203 666.117 243.529 665.816 243.092 665.215C242.654 664.609 242.428 663.707 242.412 662.508V661.061C242.412 659.807 242.629 658.875 243.062 658.266C243.496 657.656 244.176 657.352 245.102 657.352C246.02 657.352 246.695 657.646 247.129 658.236C247.562 658.822 247.785 659.729 247.797 660.955V662.361ZM246.713 660.879C246.713 659.961 246.584 659.293 246.326 658.875C246.068 658.453 245.66 658.242 245.102 658.242C244.547 658.242 244.143 658.451 243.889 658.869C243.635 659.287 243.504 659.93 243.496 660.797V662.531C243.496 663.453 243.629 664.135 243.895 664.576C244.164 665.014 244.57 665.232 245.113 665.232C245.648 665.232 246.045 665.025 246.303 664.611C246.564 664.197 246.701 663.545 246.713 662.654V660.879ZM255.401 661.248C253.841 660.696 252.773 659.316 252.773 657.84V656.664H251.789V657.804C251.789 659.436 250.757 660.888 249.125 661.476L249.641 662.268C250.901 661.764 251.849 660.804 252.305 659.544C252.773 660.672 253.697 661.572 254.873 662.028L255.401 661.248ZM250.769 663.876H256.985V666.9H257.981V663.084H250.769V663.876ZM256.985 656.136V658.38H254.645V659.184H256.985V662.484H257.981V656.136H256.985Z" fill="#666666"/>
<rect x="192.5" y="645.5" width="79" height="32" rx="3.5" stroke="#E2E2E2"/>
<path d="M297.285 663.135H298.469V664.02H297.285V666H296.195V664.02H292.311V663.381L296.131 657.469H297.285V663.135ZM293.541 663.135H296.195V658.951L296.066 659.186L293.541 663.135ZM308.59 657.696H304.738V656.292H303.754V657.696H299.854V658.5H308.59V657.696ZM301.702 661.272C301.702 660.48 302.674 660 304.246 660C305.794 660 306.754 660.48 306.754 661.272C306.754 662.076 305.794 662.556 304.246 662.556C302.674 662.556 301.702 662.076 301.702 661.272ZM304.738 664.824V663.312C306.61 663.192 307.75 662.472 307.75 661.272C307.75 659.976 306.394 659.232 304.246 659.232C302.062 659.232 300.706 659.976 300.706 661.272C300.706 662.472 301.858 663.204 303.754 663.312V664.824H299.374V665.628H309.13V664.824H304.738ZM314.013 658.776H316.401V657.984H314.013V656.316H313.029V657.984H310.605V658.776H313.041V659.616C313.041 661.476 311.889 663.3 310.317 664.068L310.869 664.812C312.093 664.212 313.077 662.964 313.533 661.488C313.989 662.868 314.901 664.044 316.077 664.62L316.629 663.852C315.081 663.108 314.013 661.344 314.013 659.616V658.776ZM320.469 660.552H318.693V656.124H317.709V666.888H318.693V661.368H320.469V660.552Z" fill="#666666"/>
<path d="M329.299 666H323.709V665.221L326.662 661.939C327.1 661.443 327.4 661.041 327.564 660.732C327.732 660.42 327.816 660.098 327.816 659.766C327.816 659.32 327.682 658.955 327.412 658.67C327.143 658.385 326.783 658.242 326.334 658.242C325.795 658.242 325.375 658.396 325.074 658.705C324.777 659.01 324.629 659.436 324.629 659.982H323.545C323.545 659.197 323.797 658.562 324.301 658.078C324.809 657.594 325.486 657.352 326.334 657.352C327.127 657.352 327.754 657.561 328.215 657.979C328.676 658.393 328.906 658.945 328.906 659.637C328.906 660.477 328.371 661.477 327.301 662.637L325.016 665.115H329.299V666ZM336.037 666H330.447V665.221L333.4 661.939C333.838 661.443 334.139 661.041 334.303 660.732C334.471 660.42 334.555 660.098 334.555 659.766C334.555 659.32 334.42 658.955 334.15 658.67C333.881 658.385 333.521 658.242 333.072 658.242C332.533 658.242 332.113 658.396 331.812 658.705C331.516 659.01 331.367 659.436 331.367 659.982H330.283C330.283 659.197 330.535 658.562 331.039 658.078C331.547 657.594 332.225 657.352 333.072 657.352C333.865 657.352 334.492 657.561 334.953 657.979C335.414 658.393 335.645 658.945 335.645 659.637C335.645 660.477 335.109 661.477 334.039 662.637L331.754 665.115H336.037V666ZM343.401 661.248C341.841 660.696 340.773 659.316 340.773 657.84V656.664H339.789V657.804C339.789 659.436 338.757 660.888 337.125 661.476L337.641 662.268C338.901 661.764 339.849 660.804 340.305 659.544C340.773 660.672 341.697 661.572 342.873 662.028L343.401 661.248ZM338.769 663.876H344.985V666.9H345.981V663.084H338.769V663.876ZM344.985 656.136V658.38H342.645V659.184H344.985V662.484H345.981V656.136H344.985Z" fill="#666666"/>
<rect x="280.5" y="645.5" width="79" height="32" rx="3.5" stroke="#E2E2E2"/>
<path d="M31.808 122.712H34.544V128.88H36.44V115.248H34.544V121.104H31.808V115.656H29.936V128.088H31.808V122.712ZM29.072 117.816H24.608V115.416H22.664V117.816H18.152V119.376H29.096L29.072 117.816ZM20.816 124.176C20.816 122.856 21.944 121.968 23.648 121.968C25.328 121.968 26.48 122.856 26.48 124.176C26.48 125.52 25.328 126.408 23.648 126.408C21.944 126.408 20.816 125.52 20.816 124.176ZM28.232 124.176C28.232 121.968 26.36 120.504 23.648 120.504C20.936 120.504 19.04 121.968 19.04 124.176C19.04 126.432 20.936 127.872 23.648 127.872C26.36 127.872 28.232 126.432 28.232 124.176ZM29.36 135.24C26.072 135.24 24.104 134.424 24.104 133.008C24.104 131.568 26.072 130.752 29.36 130.752C32.624 130.752 34.592 131.568 34.592 133.008C34.592 134.424 32.624 135.24 29.36 135.24ZM29.36 129.24C24.872 129.24 22.16 130.584 22.16 133.008C22.16 135.408 24.872 136.752 29.36 136.752C33.848 136.752 36.56 135.408 36.56 133.008C36.56 130.584 33.848 129.24 29.36 129.24ZM46.3741 117.12H44.4301V120.984C44.4301 124.896 41.9821 129.024 38.8861 130.608L40.0621 132.192C42.4861 130.896 44.4781 128.208 45.4141 125.064C46.3981 128.016 48.3421 130.536 50.6221 131.76L51.8461 130.2C48.8221 128.688 46.3741 124.776 46.3741 120.984V117.12ZM59.2621 123.984H55.7101V115.272H53.7421V136.776H55.7101V125.616H59.2621V123.984ZM72.5082 125.664C69.3402 124.608 67.3002 122.088 67.3002 119.28V118.44H72.0522V116.856H60.5082V118.44H65.3322V119.28C65.3322 122.376 63.1722 125.16 59.9322 126.288L60.9402 127.848C63.5082 126.936 65.4522 125.016 66.3642 122.568C67.2762 124.704 69.1242 126.408 71.5722 127.2L72.5082 125.664ZM69.8922 135.192C66.6762 135.192 64.7562 134.304 64.7562 132.768C64.7562 131.256 66.6762 130.368 69.8922 130.368C73.0602 130.368 75.0042 131.256 75.0042 132.768C75.0042 134.304 73.0602 135.192 69.8922 135.192ZM69.8922 128.808C65.4762 128.808 62.7882 130.272 62.7882 132.768C62.7882 135.288 65.4762 136.752 69.8922 136.752C74.2602 136.752 76.9722 135.288 76.9722 132.768C76.9722 130.272 74.2602 128.808 69.8922 128.808ZM76.7322 120.696V115.272H74.7642V128.256H76.7322V122.352H79.9242V120.696H76.7322ZM94.4424 122.712H97.1784V128.88H99.0744V115.248H97.1784V121.104H94.4424V115.656H92.5704V128.088H94.4424V122.712ZM91.7064 117.816H87.2424V115.416H85.2984V117.816H80.7864V119.376H91.7304L91.7064 117.816ZM83.4504 124.176C83.4504 122.856 84.5784 121.968 86.2824 121.968C87.9624 121.968 89.1144 122.856 89.1144 124.176C89.1144 125.52 87.9624 126.408 86.2824 126.408C84.5784 126.408 83.4504 125.52 83.4504 124.176ZM90.8664 124.176C90.8664 121.968 88.9944 120.504 86.2824 120.504C83.5704 120.504 81.6744 121.968 81.6744 124.176C81.6744 126.432 83.5704 127.872 86.2824 127.872C88.9944 127.872 90.8664 126.432 90.8664 124.176ZM91.9944 135.24C88.7064 135.24 86.7384 134.424 86.7384 133.008C86.7384 131.568 88.7064 130.752 91.9944 130.752C95.2584 130.752 97.2264 131.568 97.2264 133.008C97.2264 134.424 95.2584 135.24 91.9944 135.24ZM91.9944 129.24C87.5064 129.24 84.7944 130.584 84.7944 133.008C84.7944 135.408 87.5064 136.752 91.9944 136.752C96.4824 136.752 99.1944 135.408 99.1944 133.008C99.1944 130.584 96.4824 129.24 91.9944 129.24ZM115.802 127.008C115.922 126.24 115.994 125.448 115.994 124.536C115.994 123.624 115.922 122.832 115.802 122.064H118.73V127.008H115.802ZM111.386 130.224C109.682 130.224 108.578 128.04 108.578 124.536C108.578 121.056 109.682 118.872 111.386 118.872C113.114 118.872 114.194 121.056 114.194 124.536C114.194 128.04 113.114 130.224 111.386 130.224ZM118.73 120.456H115.394C114.65 118.296 113.258 117.048 111.386 117.048C108.602 117.048 106.802 119.928 106.802 124.536C106.802 129.168 108.602 132.048 111.386 132.048C113.258 132.048 114.626 130.8 115.394 128.64H118.73V135.72H120.602V115.728H118.73V120.456ZM122.954 115.248V136.776H124.826V115.248H122.954ZM129.744 121.632C129.744 119.592 131.28 118.2 133.44 118.2C135.576 118.2 137.136 119.592 137.136 121.632C137.136 123.648 135.576 125.064 133.44 125.064C131.28 125.064 129.744 123.648 129.744 121.632ZM139.056 121.632C139.056 118.608 136.68 116.544 133.44 116.544C130.176 116.544 127.824 118.608 127.824 121.632C127.824 124.632 130.176 126.72 133.44 126.72C136.68 126.72 139.056 124.632 139.056 121.632ZM130.128 130.656H142.152V136.776H144.12V129.048H130.128V130.656ZM147.24 120.168V118.536H144.12V115.272H142.152V128.04H144.12V124.752H147.24V123.144H144.12V120.168H147.24ZM154.606 130.344C152.662 130.344 151.246 128.952 151.246 127.032C151.246 125.088 152.662 123.696 154.606 123.696C156.574 123.696 157.99 125.088 157.99 127.032C157.99 128.952 156.574 130.344 154.606 130.344ZM154.606 122.064C151.582 122.064 149.398 124.128 149.398 127.032C149.398 129.96 151.582 131.976 154.606 131.976C157.678 131.976 159.862 129.96 159.862 127.032C159.862 124.128 157.678 122.064 154.606 122.064ZM155.566 115.512H153.598V118.704H148.174V120.288H160.87V118.704H155.566V115.512ZM168.406 124.104H164.878V115.272H162.91V136.776H164.878V125.76H168.406V124.104ZM170.444 117.576V119.16H178.532C178.124 124.272 175.244 128.4 169.46 131.16L170.516 132.768C177.668 129.264 180.524 123.792 180.524 117.576H170.444ZM184.868 115.248V136.776H186.836V115.248H184.868Z" fill="#121212"/>
<circle cx="339" cy="127" r="4" fill="#C4C4C4"/>
<circle cx="355" cy="127" r="4" fill="#C4C4C4"/>
<circle cx="323" cy="127" r="4" fill="#C4C4C4"/>
<circle cx="307" cy="127" r="4" fill="#C4C4C4"/>
<circle cx="287" cy="127" r="8" fill="#A71596"/>
<path d="M287.936 130H286.666V125.104L285.15 125.575V124.542L287.8 123.593H287.936V130Z" fill="white"/>
</g>
<defs>
<clipPath id="clip0_304_465">
<rect width="375" height="812" fill="white"/>
</clipPath>
</defs>
</svg>
