<?xml version="1.0" encoding="UTF-8"?>
<svg id="_레이어_1" data-name="레이어 1" xmlns="http://www.w3.org/2000/svg" viewBox="0 0 134 180">
  <defs>
    <style>
      .cls-1 {
        fill: #36459c;
      }

      .cls-1, .cls-2 {
        stroke-width: 0px;
      }

      .cls-2 {
        fill: #fff;
      }
    </style>
  </defs>
  <g>
    <polygon class="cls-1" points="132.38 25.36 1.69 2.32 1.69 111.81 113.63 131.55 132.38 25.36"/>
    <g>
      <path class="cls-2" d="m13.18,159.16l-.97-3.26h-5.75l-.99,3.26H1.62l5.7-17.49h4.33l5.64,17.49h-4.1Zm-3.81-13.01h-.07l-1.87,6.32h3.79l-1.85-6.32Z"/>
      <path class="cls-2" d="m26.18,153.11h-3.34v6.05h-4.01v-17.46h7.26c3.56,0,5.63,2.38,5.63,5.61,0,2.87-1.62,5.81-5.54,5.81Zm-.74-7.99h-2.59v4.63h2.59c1.37,0,2.34-.78,2.34-2.35s-.9-2.28-2.34-2.28Z"/>
      <path class="cls-2" d="m41.1,153.11h-3.34v6.05h-4.01v-17.46h7.26c3.56,0,5.63,2.38,5.63,5.61,0,2.87-1.62,5.81-5.54,5.81Zm-.74-7.99h-2.59v4.63h2.59c1.37,0,2.34-.78,2.34-2.35s-.9-2.28-2.34-2.28Z"/>
      <path class="cls-2" d="m60.37,159.16l-.97-3.26h-5.75l-.99,3.26h-3.85l5.7-17.49h4.33l5.63,17.49h-4.1Zm-3.81-13.01h-.07l-1.87,6.32h3.79l-1.85-6.32Z"/>
      <path class="cls-2" d="m80.25,159.18h-3.76l-2.57-11.02h-.07l-2.61,11.02h-3.65l-4.06-17.49h4.01l2.21,10.63h.07l2.46-10.63h3.54l2.39,10.66h.02l2.23-10.66h3.85l-4.06,17.49Z"/>
      <path class="cls-2" d="m94.92,159.16l-.97-3.26h-5.75l-.99,3.26h-3.85l5.7-17.49h4.33l5.63,17.49h-4.1Zm-3.81-13.01h-.07l-1.87,6.32h3.79l-1.85-6.32Z"/>
      <path class="cls-2" d="m109.61,159.16l-3.18-6.17h-1.83v6.17h-4.04v-17.46h7.03c1.6,0,2.84.37,3.85,1.18,1.24.98,1.9,2.6,1.9,4.33,0,2.13-.95,4.21-3.04,5.15l3.7,6.81h-4.39Zm-2.52-14.04h-2.5v4.63h2.5c1.44,0,2.34-.9,2.34-2.33,0-1.62-.99-2.3-2.34-2.3Z"/>
      <path class="cls-2" d="m122.56,159.16h-6.74v-17.46h6.69c3.58,0,6.58,2.08,6.58,6.15v4.92c0,4.34-3.15,6.39-6.54,6.39Zm-.36-13.89h-2.37v10.34h2.48c1.46,0,2.73-1,2.73-2.79l.02-4.8c0-1.72-1.26-2.75-2.86-2.75Z"/>
    </g>
    <polygon class="cls-2" points="95.81 44.88 85.99 43.14 63.57 80.39 55.92 37.81 47.6 36.34 17.02 87.2 26.71 88.84 49 52.41 52.66 71.82 45.49 70.55 40.13 79.32 54.55 81.86 56.87 94.18 65.11 95.64 88.39 57.68 92.22 77.87 85.07 76.6 79.69 85.37 93.99 87.9 96.65 101.23 106.05 102.9 95.81 44.88"/>
  </g>
  <g>
    <g>
      <path class="cls-2" d="m37.31,180h-1.52l-2.93-11.4h-.06l-2.97,11.4h-1.53l-3.67-13.95h1.61l2.82,11.4h.08l2.95-11.4h1.57l2.89,11.42h.06l2.87-11.42h1.53l-3.71,13.95Z"/>
      <path class="cls-2" d="m41.68,179.9v-1.4h3.01v-11.05h-3.01v-1.4h7.59v1.4h-3.01v11.05h3.01v1.4h-7.59Z"/>
      <path class="cls-2" d="m59.43,179.94l-6.97-11.23h-.04v11.19h-1.48v-13.85h1.59l6.86,10.96h.06v-10.96h1.46v13.89h-1.48Z"/>
      <path class="cls-2" d="m71.31,179.94l-6.97-11.23h-.04v11.19h-1.48v-13.85h1.59l6.86,10.96h.06v-10.96h1.46v13.89h-1.48Z"/>
      <path class="cls-2" d="m74.71,179.9v-13.85h8.43v1.4h-6.86v4.58h5.54v1.38h-5.54v5.09h6.88v1.4h-8.45Z"/>
      <path class="cls-2" d="m92.69,179.9l-3.73-5.5h-2.6v5.5h-1.59v-13.85h4.76c1.24,0,2.27.29,3.07.89.93.72,1.48,1.83,1.48,3.21,0,2.16-1.22,3.69-3.44,4.12l3.9,5.63h-1.84Zm-.23-9.75c0-1.85-1.42-2.74-3.38-2.74h-2.74v5.63h2.78c2.18,0,3.32-.95,3.32-2.89h.02Z"/>
    </g>
    <g>
      <path class="cls-2" d="m3.03,179.64v-1.63l4.62-5.44c.82-.95,1.26-1.88,1.26-2.99v-.35c0-.95-.6-1.69-1.92-1.69-1.24,0-1.94.72-1.94,1.83v.37h-2.35v-.5c0-2.43,1.88-3.65,4.49-3.65,2.8,0,4.23,1.67,4.23,3.9,0,2.58-1.77,4.23-3.38,6.04l-1.79,2v.04h5.36v2.08H3.03Z"/>
      <path class="cls-2" d="m16.35,179.88c-2.99,0-4.45-1.5-4.45-3.46v-.5h2.41v.37c0,1.13.95,1.61,2.16,1.61s2.06-.84,2.06-2.23c0-1.83-1.63-2.21-2.31-2.21h-.99v-1.77h.99c1.26,0,2.06-.66,2.06-2.12s-1.07-1.96-1.92-1.96c-1.34,0-1.96.72-1.96,1.83v.14h-2.35v-.47c0-2,1.61-3.54,4.37-3.54,3.03,0,4.31,1.83,4.31,3.65,0,1.51-.82,2.78-2.02,3.19v.08c1.26.37,2.47,1.5,2.47,3.26,0,2.82-2.33,4.14-4.82,4.14Z"/>
    </g>
  </g>
</svg>